G75*
G70*
%OFA0B0*%
%FSLAX24Y24*%
%IPPOS*%
%LPD*%
%AMOC8*
5,1,8,0,0,1.08239X$1,22.5*
%
%ADD10C,0.0515*%
%ADD11C,0.0860*%
%ADD12OC8,0.0520*%
%ADD13OC8,0.0630*%
%ADD14C,0.0630*%
%ADD15C,0.0760*%
%ADD16C,0.1400*%
%ADD17C,0.1300*%
%ADD18C,0.0160*%
%ADD19C,0.0396*%
%ADD20C,0.0500*%
%ADD21C,0.0560*%
%ADD22C,0.0760*%
%ADD23C,0.0240*%
%ADD24C,0.0400*%
D10*
X009930Y014415D02*
X009930Y014930D01*
X010430Y015680D02*
X010430Y016195D01*
X011430Y016195D02*
X011430Y015680D01*
X010930Y014930D02*
X010930Y014415D01*
X011930Y014415D02*
X011930Y014930D01*
X012430Y015680D02*
X012430Y016195D01*
X013430Y016195D02*
X013430Y015680D01*
X012930Y014930D02*
X012930Y014415D01*
X013930Y014415D02*
X013930Y014930D01*
X014430Y015680D02*
X014430Y016195D01*
X015430Y016195D02*
X015430Y015680D01*
X014930Y014930D02*
X014930Y014415D01*
X015930Y014415D02*
X015930Y014930D01*
X016430Y015680D02*
X016430Y016195D01*
X017430Y016195D02*
X017430Y015680D01*
X016930Y014930D02*
X016930Y014415D01*
X017930Y014415D02*
X017930Y014930D01*
X018430Y015680D02*
X018430Y016195D01*
X019430Y016195D02*
X019430Y015680D01*
X018930Y014930D02*
X018930Y014415D01*
X019930Y014415D02*
X019930Y014930D01*
X020430Y015680D02*
X020430Y016195D01*
X021430Y016195D02*
X021430Y015680D01*
X020930Y014930D02*
X020930Y014415D01*
X021930Y014415D02*
X021930Y014930D01*
D11*
X021430Y002930D03*
X020430Y002930D03*
X019430Y002930D03*
X017430Y002930D03*
X016430Y002930D03*
X015430Y002930D03*
X014430Y002930D03*
X022430Y002930D03*
D12*
X012920Y006430D03*
X011930Y007430D03*
X010940Y006430D03*
D13*
X009380Y011430D03*
D14*
X007980Y011430D03*
D15*
X011430Y002430D03*
X012430Y002430D03*
D16*
X005430Y008493D03*
X005430Y010793D03*
X005430Y014067D03*
X005430Y016367D03*
D17*
X006930Y003680D03*
X008930Y003680D03*
D18*
X001871Y001393D02*
X001605Y001605D01*
X001393Y001871D01*
X001245Y002178D01*
X001170Y002510D01*
X001160Y002680D01*
X001160Y015680D01*
X001170Y015850D01*
X001245Y016182D01*
X001393Y016489D01*
X001605Y016755D01*
X001871Y016967D01*
X002178Y017115D01*
X002510Y017190D01*
X002680Y017200D01*
X004985Y017200D01*
X004898Y017164D01*
X004633Y016899D01*
X004490Y016554D01*
X004490Y016180D01*
X004633Y015835D01*
X004810Y015658D01*
X004810Y014776D01*
X004633Y014599D01*
X004490Y014254D01*
X004490Y013880D01*
X004633Y013535D01*
X004898Y013270D01*
X005243Y013127D01*
X005617Y013127D01*
X005962Y013270D01*
X006227Y013535D01*
X006370Y013880D01*
X006370Y014254D01*
X006227Y014599D01*
X006050Y014776D01*
X006050Y015658D01*
X006202Y015810D01*
X008803Y015810D01*
X009031Y015904D01*
X009537Y016410D01*
X010981Y016410D01*
X010933Y016294D01*
X010933Y015581D01*
X010996Y015427D01*
X010831Y015427D01*
X010648Y015352D01*
X010508Y015212D01*
X010433Y015029D01*
X010433Y014316D01*
X010508Y014133D01*
X010570Y014071D01*
X010570Y011579D01*
X008476Y009485D01*
X008375Y009384D01*
X008320Y009252D01*
X008320Y008190D01*
X008309Y008178D01*
X008305Y008170D01*
X008301Y008178D01*
X008178Y008301D01*
X008017Y008368D01*
X007843Y008368D01*
X007682Y008301D01*
X007559Y008178D01*
X007492Y008017D01*
X007492Y007843D01*
X007559Y007682D01*
X007682Y007559D01*
X007843Y007492D01*
X007859Y007492D01*
X009226Y006125D01*
X009358Y006070D01*
X010593Y006070D01*
X010733Y005930D01*
X011147Y005930D01*
X011440Y006223D01*
X011440Y006637D01*
X011147Y006930D01*
X010733Y006930D01*
X010593Y006790D01*
X009579Y006790D01*
X008845Y007524D01*
X008928Y007559D01*
X009051Y007682D01*
X009118Y007843D01*
X009118Y008017D01*
X009051Y008178D01*
X009040Y008190D01*
X009040Y009031D01*
X009362Y009353D01*
X009320Y009252D01*
X009320Y008190D01*
X009309Y008178D01*
X009242Y008017D01*
X009242Y007843D01*
X009309Y007682D01*
X009432Y007559D01*
X009593Y007492D01*
X009767Y007492D01*
X009928Y007559D01*
X010051Y007682D01*
X010118Y007843D01*
X010118Y008017D01*
X010051Y008178D01*
X010040Y008190D01*
X010040Y009031D01*
X011570Y010561D01*
X011570Y007777D01*
X011430Y007637D01*
X011430Y007223D01*
X011723Y006930D01*
X012137Y006930D01*
X012430Y007223D01*
X012430Y007637D01*
X012290Y007777D01*
X012290Y010014D01*
X012343Y009992D01*
X012517Y009992D01*
X012678Y010059D01*
X012801Y010182D01*
X012868Y010343D01*
X012868Y010359D01*
X012992Y010483D01*
X012992Y010343D01*
X013059Y010182D01*
X013182Y010059D01*
X013343Y009992D01*
X013517Y009992D01*
X013678Y010059D01*
X013801Y010182D01*
X013868Y010343D01*
X013868Y010517D01*
X013801Y010678D01*
X013790Y010690D01*
X013790Y013281D01*
X013910Y013401D01*
X013910Y008309D01*
X013767Y008368D01*
X013593Y008368D01*
X013432Y008301D01*
X013309Y008178D01*
X013242Y008017D01*
X013242Y007843D01*
X013309Y007682D01*
X013320Y007670D01*
X013320Y006737D01*
X013127Y006930D01*
X012713Y006930D01*
X012420Y006637D01*
X012420Y006223D01*
X012713Y005930D01*
X013127Y005930D01*
X013320Y006123D01*
X013320Y004609D01*
X013291Y004678D01*
X013168Y004801D01*
X013007Y004868D01*
X012833Y004868D01*
X012672Y004801D01*
X012660Y004790D01*
X011940Y004790D01*
X011928Y004801D01*
X011767Y004868D01*
X011593Y004868D01*
X011432Y004801D01*
X011309Y004678D01*
X011242Y004517D01*
X011242Y004343D01*
X011309Y004182D01*
X011432Y004059D01*
X011593Y003992D01*
X011767Y003992D01*
X011928Y004059D01*
X011940Y004070D01*
X012660Y004070D01*
X012672Y004059D01*
X012833Y003992D01*
X013007Y003992D01*
X013168Y004059D01*
X013291Y004182D01*
X013320Y004251D01*
X013320Y002358D01*
X013375Y002226D01*
X013875Y001726D01*
X013976Y001625D01*
X014108Y001570D01*
X018502Y001570D01*
X018634Y001625D01*
X019277Y002268D01*
X019297Y002260D01*
X019563Y002260D01*
X019810Y002362D01*
X019972Y002525D01*
X020033Y002465D01*
X020110Y002408D01*
X020196Y002365D01*
X020287Y002335D01*
X020382Y002320D01*
X020402Y002320D01*
X020402Y002902D01*
X020458Y002902D01*
X020458Y002320D01*
X020478Y002320D01*
X020573Y002335D01*
X020664Y002365D01*
X020750Y002408D01*
X020827Y002465D01*
X020888Y002525D01*
X021050Y002362D01*
X021297Y002260D01*
X021563Y002260D01*
X021810Y002362D01*
X021930Y002482D01*
X022050Y002362D01*
X022297Y002260D01*
X022563Y002260D01*
X022810Y002362D01*
X022998Y002550D01*
X023100Y002797D01*
X023100Y003063D01*
X022998Y003310D01*
X022810Y003498D01*
X022563Y003600D01*
X022297Y003600D01*
X022277Y003592D01*
X021510Y004359D01*
X021692Y004359D01*
X022194Y004506D01*
X022194Y004506D01*
X022635Y004789D01*
X022635Y004789D01*
X022635Y004789D01*
X022978Y005185D01*
X022978Y005185D01*
X023195Y005662D01*
X023270Y006180D01*
X023195Y006698D01*
X022978Y007175D01*
X022635Y007571D01*
X022194Y007854D01*
X021692Y008001D01*
X021168Y008001D01*
X020666Y007854D01*
X020666Y007854D01*
X020225Y007571D01*
X020225Y007571D01*
X020225Y007571D01*
X019882Y007175D01*
X019665Y006698D01*
X019590Y006180D01*
X019665Y005662D01*
X019882Y005185D01*
X020225Y004789D01*
X020225Y004789D01*
X020613Y004540D01*
X020079Y004540D01*
X019540Y005079D01*
X019540Y011781D01*
X020735Y012976D01*
X020790Y013108D01*
X020790Y013935D01*
X020831Y013918D01*
X021029Y013918D01*
X021212Y013993D01*
X021352Y014133D01*
X021427Y014316D01*
X021427Y015029D01*
X021364Y015183D01*
X021496Y015183D01*
X021433Y015029D01*
X021433Y014316D01*
X021508Y014133D01*
X021648Y013993D01*
X021831Y013918D01*
X022029Y013918D01*
X022212Y013993D01*
X022352Y014133D01*
X022427Y014316D01*
X022427Y015029D01*
X022352Y015212D01*
X022212Y015352D01*
X022029Y015427D01*
X021864Y015427D01*
X021927Y015581D01*
X021927Y016294D01*
X021852Y016477D01*
X021712Y016617D01*
X021529Y016692D01*
X021331Y016692D01*
X021148Y016617D01*
X021008Y016477D01*
X020933Y016294D01*
X020933Y015581D01*
X020996Y015427D01*
X020864Y015427D01*
X020927Y015581D01*
X020927Y016294D01*
X020852Y016477D01*
X020712Y016617D01*
X020529Y016692D01*
X020331Y016692D01*
X020148Y016617D01*
X020008Y016477D01*
X019933Y016294D01*
X019933Y015581D01*
X019996Y015427D01*
X019864Y015427D01*
X019927Y015581D01*
X019927Y016294D01*
X019920Y016312D01*
X019920Y016527D01*
X019845Y016708D01*
X019708Y016845D01*
X019353Y017200D01*
X021930Y017200D01*
X022100Y017190D01*
X022432Y017115D01*
X022739Y016967D01*
X023005Y016755D01*
X023217Y016489D01*
X023365Y016182D01*
X023440Y015850D01*
X023450Y015680D01*
X023450Y002680D01*
X023440Y002510D01*
X023365Y002178D01*
X023217Y001871D01*
X023005Y001605D01*
X022739Y001393D01*
X022432Y001245D01*
X022100Y001170D01*
X021930Y001160D01*
X002680Y001160D01*
X002510Y001170D01*
X002178Y001245D01*
X001871Y001393D01*
X001802Y001448D02*
X022808Y001448D01*
X023006Y001607D02*
X018590Y001607D01*
X018774Y001765D02*
X023132Y001765D01*
X023242Y001924D02*
X018933Y001924D01*
X019091Y002082D02*
X023318Y002082D01*
X023379Y002241D02*
X019250Y002241D01*
X019847Y002399D02*
X020128Y002399D01*
X020402Y002399D02*
X020458Y002399D01*
X020458Y002558D02*
X020402Y002558D01*
X020402Y002716D02*
X020458Y002716D01*
X020458Y002875D02*
X020402Y002875D01*
X020731Y002399D02*
X021013Y002399D01*
X021847Y002399D02*
X022013Y002399D01*
X022847Y002399D02*
X023415Y002399D01*
X023443Y002558D02*
X023001Y002558D01*
X023067Y002716D02*
X023450Y002716D01*
X023450Y002875D02*
X023100Y002875D01*
X023100Y003033D02*
X023450Y003033D01*
X023450Y003192D02*
X023047Y003192D01*
X022958Y003350D02*
X023450Y003350D01*
X023450Y003509D02*
X022784Y003509D01*
X022202Y003667D02*
X023450Y003667D01*
X023450Y003826D02*
X022044Y003826D01*
X021885Y003984D02*
X023450Y003984D01*
X023450Y004143D02*
X021727Y004143D01*
X021568Y004301D02*
X023450Y004301D01*
X023450Y004460D02*
X022035Y004460D01*
X022368Y004618D02*
X023450Y004618D01*
X023450Y004777D02*
X022615Y004777D01*
X022761Y004935D02*
X023450Y004935D01*
X023450Y005094D02*
X022898Y005094D01*
X023008Y005252D02*
X023450Y005252D01*
X023450Y005411D02*
X023081Y005411D01*
X023153Y005569D02*
X023450Y005569D01*
X023450Y005728D02*
X023205Y005728D01*
X023195Y005662D02*
X023195Y005662D01*
X023228Y005886D02*
X023450Y005886D01*
X023450Y006045D02*
X023251Y006045D01*
X023267Y006203D02*
X023450Y006203D01*
X023450Y006362D02*
X023244Y006362D01*
X023221Y006520D02*
X023450Y006520D01*
X023450Y006679D02*
X023198Y006679D01*
X023195Y006698D02*
X023195Y006698D01*
X023132Y006837D02*
X023450Y006837D01*
X023450Y006996D02*
X023060Y006996D01*
X022987Y007154D02*
X023450Y007154D01*
X023450Y007313D02*
X022859Y007313D01*
X022978Y007175D02*
X022978Y007175D01*
X022721Y007471D02*
X023450Y007471D01*
X023450Y007630D02*
X022543Y007630D01*
X022635Y007571D02*
X022635Y007571D01*
X022297Y007788D02*
X023450Y007788D01*
X023450Y007947D02*
X021878Y007947D01*
X022194Y007854D02*
X022194Y007854D01*
X020982Y007947D02*
X019540Y007947D01*
X019540Y008105D02*
X023450Y008105D01*
X023450Y008264D02*
X019540Y008264D01*
X019540Y008422D02*
X023450Y008422D01*
X023450Y008581D02*
X019540Y008581D01*
X019540Y008739D02*
X023450Y008739D01*
X023450Y008898D02*
X019540Y008898D01*
X019540Y009056D02*
X023450Y009056D01*
X023450Y009215D02*
X019540Y009215D01*
X019540Y009373D02*
X023450Y009373D01*
X023450Y009532D02*
X019540Y009532D01*
X019540Y009690D02*
X023450Y009690D01*
X023450Y009849D02*
X019540Y009849D01*
X019540Y010007D02*
X023450Y010007D01*
X023450Y010166D02*
X019540Y010166D01*
X019540Y010324D02*
X023450Y010324D01*
X023450Y010483D02*
X019540Y010483D01*
X019540Y010641D02*
X023450Y010641D01*
X023450Y010800D02*
X019540Y010800D01*
X019540Y010958D02*
X023450Y010958D01*
X023450Y011117D02*
X019540Y011117D01*
X019540Y011275D02*
X023450Y011275D01*
X023450Y011434D02*
X019540Y011434D01*
X019540Y011592D02*
X023450Y011592D01*
X023450Y011751D02*
X019540Y011751D01*
X019668Y011909D02*
X023450Y011909D01*
X023450Y012068D02*
X019827Y012068D01*
X019985Y012226D02*
X023450Y012226D01*
X023450Y012385D02*
X020144Y012385D01*
X020302Y012543D02*
X023450Y012543D01*
X023450Y012702D02*
X020461Y012702D01*
X020619Y012860D02*
X023450Y012860D01*
X023450Y013019D02*
X020753Y013019D01*
X020790Y013177D02*
X023450Y013177D01*
X023450Y013336D02*
X020790Y013336D01*
X020790Y013494D02*
X023450Y013494D01*
X023450Y013653D02*
X020790Y013653D01*
X020790Y013811D02*
X023450Y013811D01*
X023450Y013970D02*
X022154Y013970D01*
X022347Y014128D02*
X023450Y014128D01*
X023450Y014287D02*
X022415Y014287D01*
X022427Y014445D02*
X023450Y014445D01*
X023450Y014604D02*
X022427Y014604D01*
X022427Y014762D02*
X023450Y014762D01*
X023450Y014921D02*
X022427Y014921D01*
X022407Y015079D02*
X023450Y015079D01*
X023450Y015238D02*
X022326Y015238D01*
X022105Y015396D02*
X023450Y015396D01*
X023450Y015555D02*
X021916Y015555D01*
X021927Y015713D02*
X023448Y015713D01*
X023436Y015872D02*
X021927Y015872D01*
X021927Y016030D02*
X023399Y016030D01*
X023362Y016189D02*
X021927Y016189D01*
X021905Y016347D02*
X023285Y016347D01*
X023217Y016489D02*
X023217Y016489D01*
X023204Y016506D02*
X021823Y016506D01*
X021598Y016664D02*
X023077Y016664D01*
X022920Y016823D02*
X019730Y016823D01*
X019863Y016664D02*
X020262Y016664D01*
X020037Y016506D02*
X019920Y016506D01*
X019920Y016347D02*
X019955Y016347D01*
X019933Y016189D02*
X019927Y016189D01*
X019927Y016030D02*
X019933Y016030D01*
X019927Y015872D02*
X019933Y015872D01*
X019927Y015713D02*
X019933Y015713D01*
X019916Y015555D02*
X019944Y015555D01*
X020916Y015555D02*
X020944Y015555D01*
X020927Y015713D02*
X020933Y015713D01*
X020927Y015872D02*
X020933Y015872D01*
X020927Y016030D02*
X020933Y016030D01*
X020927Y016189D02*
X020933Y016189D01*
X020955Y016347D02*
X020905Y016347D01*
X020823Y016506D02*
X021037Y016506D01*
X021262Y016664D02*
X020598Y016664D01*
X019572Y016981D02*
X022710Y016981D01*
X022323Y017140D02*
X019413Y017140D01*
X017993Y016440D02*
X017933Y016294D01*
X017933Y015581D01*
X018008Y015398D01*
X018058Y015348D01*
X018032Y015357D01*
X017964Y015367D01*
X017930Y015367D01*
X017930Y014930D01*
X018367Y014930D01*
X018367Y014964D01*
X018364Y014987D01*
X018433Y014918D01*
X018433Y014316D01*
X018508Y014133D01*
X018570Y014071D01*
X018570Y013829D01*
X017976Y013235D01*
X017920Y013179D01*
X017920Y013777D01*
X017845Y013958D01*
X017808Y013995D01*
X017828Y013988D01*
X017896Y013978D01*
X017930Y013978D01*
X017964Y013978D01*
X018032Y013988D01*
X018098Y014010D01*
X018159Y014041D01*
X018215Y014081D01*
X018264Y014130D01*
X018304Y014186D01*
X018335Y014247D01*
X018357Y014313D01*
X018367Y014381D01*
X018367Y014930D01*
X017930Y014930D01*
X017930Y014930D01*
X017930Y014930D01*
X017930Y013978D01*
X017930Y014930D01*
X017930Y014930D01*
X017930Y015367D01*
X017896Y015367D01*
X017828Y015357D01*
X017802Y015348D01*
X017852Y015398D01*
X017927Y015581D01*
X017927Y016294D01*
X017867Y016440D01*
X017993Y016440D01*
X017955Y016347D02*
X017905Y016347D01*
X017927Y016189D02*
X017933Y016189D01*
X017927Y016030D02*
X017933Y016030D01*
X017927Y015872D02*
X017933Y015872D01*
X017927Y015713D02*
X017933Y015713D01*
X017916Y015555D02*
X017944Y015555D01*
X018010Y015396D02*
X017850Y015396D01*
X017930Y015238D02*
X017930Y015238D01*
X017930Y015079D02*
X017930Y015079D01*
X017930Y014921D02*
X017930Y014921D01*
X017930Y014762D02*
X017930Y014762D01*
X017930Y014604D02*
X017930Y014604D01*
X017930Y014445D02*
X017930Y014445D01*
X017930Y014287D02*
X017930Y014287D01*
X017930Y014128D02*
X017930Y014128D01*
X017833Y013970D02*
X018570Y013970D01*
X018552Y013811D02*
X017906Y013811D01*
X017920Y013653D02*
X018393Y013653D01*
X018235Y013494D02*
X017920Y013494D01*
X017920Y013336D02*
X018076Y013336D01*
X017976Y013235D02*
X017976Y013235D01*
X018262Y014128D02*
X018513Y014128D01*
X018445Y014287D02*
X018348Y014287D01*
X018367Y014445D02*
X018433Y014445D01*
X018433Y014604D02*
X018367Y014604D01*
X018367Y014762D02*
X018433Y014762D01*
X018430Y014921D02*
X018367Y014921D01*
X016058Y015348D02*
X016032Y015357D01*
X015964Y015367D01*
X015930Y015367D01*
X015930Y014930D01*
X015930Y014930D01*
X015930Y013978D01*
X015964Y013978D01*
X015997Y013983D01*
X015989Y013975D01*
X015930Y013832D01*
X015871Y013975D01*
X015863Y013983D01*
X015896Y013978D01*
X015930Y013978D01*
X015930Y014930D01*
X015930Y014930D01*
X015930Y015367D01*
X015896Y015367D01*
X015828Y015357D01*
X015802Y015348D01*
X015852Y015398D01*
X015927Y015581D01*
X015927Y016294D01*
X015867Y016440D01*
X015993Y016440D01*
X015933Y016294D01*
X015933Y015581D01*
X016008Y015398D01*
X016058Y015348D01*
X016010Y015396D02*
X015850Y015396D01*
X015916Y015555D02*
X015944Y015555D01*
X015927Y015713D02*
X015933Y015713D01*
X015927Y015872D02*
X015933Y015872D01*
X015927Y016030D02*
X015933Y016030D01*
X015927Y016189D02*
X015933Y016189D01*
X015955Y016347D02*
X015905Y016347D01*
X015930Y015238D02*
X015930Y015238D01*
X015930Y015079D02*
X015930Y015079D01*
X015930Y014921D02*
X015930Y014921D01*
X015930Y014762D02*
X015930Y014762D01*
X015930Y014604D02*
X015930Y014604D01*
X015930Y014445D02*
X015930Y014445D01*
X015930Y014287D02*
X015930Y014287D01*
X015930Y014128D02*
X015930Y014128D01*
X015873Y013970D02*
X015987Y013970D01*
X013910Y013336D02*
X013845Y013336D01*
X013790Y013177D02*
X013910Y013177D01*
X013910Y013019D02*
X013790Y013019D01*
X013790Y012860D02*
X013910Y012860D01*
X013910Y012702D02*
X013790Y012702D01*
X013790Y012543D02*
X013910Y012543D01*
X013910Y012385D02*
X013790Y012385D01*
X013790Y012226D02*
X013910Y012226D01*
X013910Y012068D02*
X013790Y012068D01*
X013790Y011909D02*
X013910Y011909D01*
X013910Y011751D02*
X013790Y011751D01*
X013790Y011592D02*
X013910Y011592D01*
X013910Y011434D02*
X013790Y011434D01*
X013790Y011275D02*
X013910Y011275D01*
X013910Y011117D02*
X013790Y011117D01*
X013790Y010958D02*
X013910Y010958D01*
X013910Y010800D02*
X013790Y010800D01*
X013817Y010641D02*
X013910Y010641D01*
X013910Y010483D02*
X013868Y010483D01*
X013860Y010324D02*
X013910Y010324D01*
X013910Y010166D02*
X013785Y010166D01*
X013910Y010007D02*
X013554Y010007D01*
X013306Y010007D02*
X012554Y010007D01*
X012306Y010007D02*
X012290Y010007D01*
X012290Y009849D02*
X013910Y009849D01*
X013910Y009690D02*
X012290Y009690D01*
X012290Y009532D02*
X013910Y009532D01*
X013910Y009373D02*
X012290Y009373D01*
X012290Y009215D02*
X013910Y009215D01*
X013910Y009056D02*
X012290Y009056D01*
X012290Y008898D02*
X013910Y008898D01*
X013910Y008739D02*
X012290Y008739D01*
X012290Y008581D02*
X013910Y008581D01*
X013910Y008422D02*
X012290Y008422D01*
X012290Y008264D02*
X013394Y008264D01*
X013278Y008105D02*
X012290Y008105D01*
X012290Y007947D02*
X013242Y007947D01*
X013265Y007788D02*
X012290Y007788D01*
X012430Y007630D02*
X013320Y007630D01*
X013320Y007471D02*
X012430Y007471D01*
X012430Y007313D02*
X013320Y007313D01*
X013320Y007154D02*
X012361Y007154D01*
X012203Y006996D02*
X013320Y006996D01*
X013320Y006837D02*
X013220Y006837D01*
X012620Y006837D02*
X011240Y006837D01*
X011399Y006679D02*
X012461Y006679D01*
X012420Y006520D02*
X011440Y006520D01*
X011440Y006362D02*
X012420Y006362D01*
X012440Y006203D02*
X011420Y006203D01*
X011262Y006045D02*
X012598Y006045D01*
X013242Y006045D02*
X013320Y006045D01*
X013320Y005886D02*
X007351Y005886D01*
X007281Y005956D02*
X006050Y007187D01*
X006050Y007784D01*
X006227Y007961D01*
X006265Y008053D01*
X006581Y008053D01*
X006742Y008120D01*
X008229Y009607D01*
X008353Y009731D01*
X008420Y009892D01*
X008420Y011085D01*
X008451Y011116D01*
X008451Y011117D02*
X008993Y011117D01*
X008885Y011225D02*
X009175Y010935D01*
X009380Y010935D01*
X009585Y010935D01*
X009875Y011225D01*
X009875Y011430D01*
X009875Y011635D01*
X009585Y011925D01*
X009380Y011925D01*
X009380Y011430D01*
X009875Y011430D01*
X009380Y011430D01*
X009380Y011430D01*
X009380Y011430D01*
X009380Y010935D01*
X009380Y011430D01*
X009380Y011430D01*
X009380Y011430D01*
X008885Y011430D01*
X008885Y011635D01*
X009175Y011925D01*
X009380Y011925D01*
X009380Y011430D01*
X008885Y011430D01*
X008885Y011225D01*
X008885Y011275D02*
X008517Y011275D01*
X008535Y011320D02*
X008535Y011540D01*
X008451Y011744D01*
X008294Y011901D01*
X008090Y011985D01*
X007870Y011985D01*
X007666Y011901D01*
X007509Y011744D01*
X007425Y011540D01*
X007425Y011320D01*
X007509Y011116D01*
X007509Y011117D02*
X006313Y011117D01*
X006370Y010980D02*
X006227Y011325D01*
X005962Y011590D01*
X005617Y011733D01*
X005243Y011733D01*
X004898Y011590D01*
X004633Y011325D01*
X004490Y010980D01*
X004490Y010606D01*
X004633Y010261D01*
X004810Y010084D01*
X004810Y009202D01*
X004633Y009025D01*
X004490Y008680D01*
X004490Y008306D01*
X004633Y007961D01*
X004810Y007784D01*
X004810Y006995D01*
X004728Y007175D01*
X004385Y007571D01*
X003944Y007854D01*
X003442Y008001D01*
X002918Y008001D01*
X002416Y007854D01*
X002416Y007854D01*
X001975Y007571D01*
X001975Y007571D01*
X001975Y007571D01*
X001632Y007175D01*
X001415Y006698D01*
X001340Y006180D01*
X001340Y006180D01*
X001415Y005662D01*
X001415Y005662D01*
X001632Y005185D01*
X001975Y004789D01*
X001975Y004789D01*
X002416Y004506D01*
X002918Y004359D01*
X003442Y004359D01*
X003944Y004506D01*
X003944Y004506D01*
X004385Y004789D01*
X004385Y004789D01*
X004385Y004789D01*
X004728Y005185D01*
X004728Y005185D01*
X004945Y005662D01*
X005020Y006180D01*
X004972Y006511D01*
X006310Y005173D01*
X006310Y004319D01*
X006175Y004184D01*
X006040Y003857D01*
X006040Y003503D01*
X006175Y003176D01*
X006426Y002925D01*
X006753Y002790D01*
X007107Y002790D01*
X007434Y002925D01*
X007685Y003176D01*
X007820Y003503D01*
X007820Y003857D01*
X007685Y004184D01*
X007550Y004319D01*
X007550Y005553D01*
X007456Y005781D01*
X007281Y005956D01*
X007192Y006045D02*
X010618Y006045D01*
X010640Y006837D02*
X009532Y006837D01*
X009374Y006996D02*
X011657Y006996D01*
X011499Y007154D02*
X009215Y007154D01*
X009057Y007313D02*
X011430Y007313D01*
X011430Y007471D02*
X008898Y007471D01*
X008999Y007630D02*
X009361Y007630D01*
X009265Y007788D02*
X009095Y007788D01*
X009118Y007947D02*
X009242Y007947D01*
X009278Y008105D02*
X009082Y008105D01*
X009040Y008264D02*
X009320Y008264D01*
X009320Y008422D02*
X009040Y008422D01*
X009040Y008581D02*
X009320Y008581D01*
X009320Y008739D02*
X009040Y008739D01*
X009040Y008898D02*
X009320Y008898D01*
X009320Y009056D02*
X009065Y009056D01*
X009224Y009215D02*
X009320Y009215D01*
X008681Y009690D02*
X008312Y009690D01*
X008402Y009849D02*
X008839Y009849D01*
X008998Y010007D02*
X008420Y010007D01*
X008420Y010166D02*
X009156Y010166D01*
X009315Y010324D02*
X008420Y010324D01*
X008420Y010483D02*
X009473Y010483D01*
X009632Y010641D02*
X008420Y010641D01*
X008420Y010800D02*
X009790Y010800D01*
X009949Y010958D02*
X009608Y010958D01*
X009767Y011117D02*
X010107Y011117D01*
X010266Y011275D02*
X009875Y011275D01*
X009875Y011434D02*
X010424Y011434D01*
X010570Y011592D02*
X009875Y011592D01*
X009760Y011751D02*
X010570Y011751D01*
X010570Y011909D02*
X009601Y011909D01*
X009380Y011909D02*
X009380Y011909D01*
X009380Y011751D02*
X009380Y011751D01*
X009380Y011592D02*
X009380Y011592D01*
X009380Y011434D02*
X009380Y011434D01*
X009380Y011275D02*
X009380Y011275D01*
X009380Y011117D02*
X009380Y011117D01*
X009380Y010958D02*
X009380Y010958D01*
X009152Y010958D02*
X008420Y010958D01*
X008451Y011116D02*
X008535Y011320D01*
X008535Y011434D02*
X008885Y011434D01*
X008885Y011592D02*
X008514Y011592D01*
X008444Y011751D02*
X009000Y011751D01*
X009159Y011909D02*
X008274Y011909D01*
X007686Y011909D02*
X001160Y011909D01*
X001160Y011751D02*
X007516Y011751D01*
X007446Y011592D02*
X005957Y011592D01*
X006119Y011434D02*
X007425Y011434D01*
X007443Y011275D02*
X006248Y011275D01*
X006370Y010980D02*
X006370Y010606D01*
X006227Y010261D01*
X006050Y010084D01*
X006050Y009202D01*
X006227Y009025D01*
X006265Y008933D01*
X006311Y008933D01*
X007540Y010162D01*
X007540Y011085D01*
X007509Y011116D01*
X007540Y010958D02*
X006370Y010958D01*
X006370Y010800D02*
X007540Y010800D01*
X007540Y010641D02*
X006370Y010641D01*
X006319Y010483D02*
X007540Y010483D01*
X007540Y010324D02*
X006253Y010324D01*
X006132Y010166D02*
X007540Y010166D01*
X007385Y010007D02*
X006050Y010007D01*
X006050Y009849D02*
X007226Y009849D01*
X007068Y009690D02*
X006050Y009690D01*
X006050Y009532D02*
X006909Y009532D01*
X006751Y009373D02*
X006050Y009373D01*
X006050Y009215D02*
X006592Y009215D01*
X006434Y009056D02*
X006196Y009056D01*
X006886Y008264D02*
X007644Y008264D01*
X007528Y008105D02*
X006706Y008105D01*
X007044Y008422D02*
X008320Y008422D01*
X008320Y008264D02*
X008216Y008264D01*
X008320Y008581D02*
X007203Y008581D01*
X007361Y008739D02*
X008320Y008739D01*
X008320Y008898D02*
X007520Y008898D01*
X007678Y009056D02*
X008320Y009056D01*
X008320Y009215D02*
X007837Y009215D01*
X007995Y009373D02*
X008370Y009373D01*
X008522Y009532D02*
X008154Y009532D01*
X010065Y009056D02*
X011570Y009056D01*
X011570Y008898D02*
X010040Y008898D01*
X010040Y008739D02*
X011570Y008739D01*
X011570Y008581D02*
X010040Y008581D01*
X010040Y008422D02*
X011570Y008422D01*
X011570Y008264D02*
X010040Y008264D01*
X010082Y008105D02*
X011570Y008105D01*
X011570Y007947D02*
X010118Y007947D01*
X010095Y007788D02*
X011570Y007788D01*
X011430Y007630D02*
X009999Y007630D01*
X008672Y006679D02*
X006558Y006679D01*
X006400Y006837D02*
X008514Y006837D01*
X008355Y006996D02*
X006241Y006996D01*
X006083Y007154D02*
X008197Y007154D01*
X008038Y007313D02*
X006050Y007313D01*
X006050Y007471D02*
X007880Y007471D01*
X007611Y007630D02*
X006050Y007630D01*
X006054Y007788D02*
X007515Y007788D01*
X007492Y007947D02*
X006213Y007947D01*
X004806Y007788D02*
X004047Y007788D01*
X003944Y007854D02*
X003944Y007854D01*
X004293Y007630D02*
X004810Y007630D01*
X004810Y007471D02*
X004471Y007471D01*
X004385Y007571D02*
X004385Y007571D01*
X004609Y007313D02*
X004810Y007313D01*
X004810Y007154D02*
X004737Y007154D01*
X004728Y007175D02*
X004728Y007175D01*
X004810Y006996D02*
X004810Y006996D01*
X004994Y006362D02*
X005122Y006362D01*
X005017Y006203D02*
X005280Y006203D01*
X005439Y006045D02*
X005001Y006045D01*
X004978Y005886D02*
X005597Y005886D01*
X005756Y005728D02*
X004955Y005728D01*
X004945Y005662D02*
X004945Y005662D01*
X004903Y005569D02*
X005914Y005569D01*
X006073Y005411D02*
X004831Y005411D01*
X004758Y005252D02*
X006231Y005252D01*
X006310Y005094D02*
X004648Y005094D01*
X004511Y004935D02*
X006310Y004935D01*
X006310Y004777D02*
X004365Y004777D01*
X004118Y004618D02*
X006310Y004618D01*
X006310Y004460D02*
X003785Y004460D01*
X002575Y004460D02*
X001160Y004460D01*
X001160Y004618D02*
X002242Y004618D01*
X002416Y004506D02*
X002416Y004506D01*
X001995Y004777D02*
X001160Y004777D01*
X001160Y004935D02*
X001849Y004935D01*
X001712Y005094D02*
X001160Y005094D01*
X001160Y005252D02*
X001602Y005252D01*
X001632Y005185D02*
X001632Y005185D01*
X001529Y005411D02*
X001160Y005411D01*
X001160Y005569D02*
X001457Y005569D01*
X001405Y005728D02*
X001160Y005728D01*
X001160Y005886D02*
X001382Y005886D01*
X001359Y006045D02*
X001160Y006045D01*
X001160Y006203D02*
X001343Y006203D01*
X001366Y006362D02*
X001160Y006362D01*
X001160Y006520D02*
X001389Y006520D01*
X001412Y006679D02*
X001160Y006679D01*
X001160Y006837D02*
X001478Y006837D01*
X001415Y006698D02*
X001415Y006698D01*
X001550Y006996D02*
X001160Y006996D01*
X001160Y007154D02*
X001623Y007154D01*
X001632Y007175D02*
X001632Y007175D01*
X001751Y007313D02*
X001160Y007313D01*
X001160Y007471D02*
X001889Y007471D01*
X002067Y007630D02*
X001160Y007630D01*
X001160Y007788D02*
X002313Y007788D01*
X002732Y007947D02*
X001160Y007947D01*
X001160Y008105D02*
X004573Y008105D01*
X004508Y008264D02*
X001160Y008264D01*
X001160Y008422D02*
X004490Y008422D01*
X004490Y008581D02*
X001160Y008581D01*
X001160Y008739D02*
X004514Y008739D01*
X004580Y008898D02*
X001160Y008898D01*
X001160Y009056D02*
X004664Y009056D01*
X004810Y009215D02*
X001160Y009215D01*
X001160Y009373D02*
X004810Y009373D01*
X004810Y009532D02*
X001160Y009532D01*
X001160Y009690D02*
X004810Y009690D01*
X004810Y009849D02*
X001160Y009849D01*
X001160Y010007D02*
X004810Y010007D01*
X004728Y010166D02*
X001160Y010166D01*
X001160Y010324D02*
X004607Y010324D01*
X004541Y010483D02*
X001160Y010483D01*
X001160Y010641D02*
X004490Y010641D01*
X004490Y010800D02*
X001160Y010800D01*
X001160Y010958D02*
X004490Y010958D01*
X004547Y011117D02*
X001160Y011117D01*
X001160Y011275D02*
X004612Y011275D01*
X004741Y011434D02*
X001160Y011434D01*
X001160Y011592D02*
X004903Y011592D01*
X005122Y013177D02*
X001160Y013177D01*
X001160Y013019D02*
X010570Y013019D01*
X010570Y013177D02*
X005738Y013177D01*
X006028Y013336D02*
X010570Y013336D01*
X010570Y013494D02*
X006186Y013494D01*
X006276Y013653D02*
X010570Y013653D01*
X010570Y013811D02*
X006341Y013811D01*
X006370Y013970D02*
X009706Y013970D01*
X009648Y013993D02*
X009831Y013918D01*
X010029Y013918D01*
X010212Y013993D01*
X010352Y014133D01*
X010427Y014316D01*
X010427Y015029D01*
X010352Y015212D01*
X010212Y015352D01*
X010029Y015427D01*
X009831Y015427D01*
X009648Y015352D01*
X009508Y015212D01*
X009433Y015029D01*
X009433Y014316D01*
X009508Y014133D01*
X009648Y013993D01*
X009513Y014128D02*
X006370Y014128D01*
X006357Y014287D02*
X009445Y014287D01*
X009433Y014445D02*
X006291Y014445D01*
X006223Y014604D02*
X009433Y014604D01*
X009433Y014762D02*
X006064Y014762D01*
X006050Y014921D02*
X009433Y014921D01*
X009453Y015079D02*
X006050Y015079D01*
X006050Y015238D02*
X009534Y015238D01*
X009755Y015396D02*
X006050Y015396D01*
X006050Y015555D02*
X010944Y015555D01*
X010933Y015713D02*
X006105Y015713D01*
X004810Y015555D02*
X001160Y015555D01*
X001162Y015713D02*
X004755Y015713D01*
X004618Y015872D02*
X001174Y015872D01*
X001211Y016030D02*
X004552Y016030D01*
X004490Y016189D02*
X001248Y016189D01*
X001325Y016347D02*
X004490Y016347D01*
X004490Y016506D02*
X001406Y016506D01*
X001533Y016664D02*
X004536Y016664D01*
X004601Y016823D02*
X001690Y016823D01*
X001900Y016981D02*
X004715Y016981D01*
X004873Y017140D02*
X002287Y017140D01*
X001160Y015396D02*
X004810Y015396D01*
X004810Y015238D02*
X001160Y015238D01*
X001160Y015079D02*
X004810Y015079D01*
X004810Y014921D02*
X001160Y014921D01*
X001160Y014762D02*
X004796Y014762D01*
X004637Y014604D02*
X001160Y014604D01*
X001160Y014445D02*
X004569Y014445D01*
X004503Y014287D02*
X001160Y014287D01*
X001160Y014128D02*
X004490Y014128D01*
X004490Y013970D02*
X001160Y013970D01*
X001160Y013811D02*
X004519Y013811D01*
X004584Y013653D02*
X001160Y013653D01*
X001160Y013494D02*
X004674Y013494D01*
X004832Y013336D02*
X001160Y013336D01*
X001160Y012860D02*
X010570Y012860D01*
X010570Y012702D02*
X001160Y012702D01*
X001160Y012543D02*
X010570Y012543D01*
X010570Y012385D02*
X001160Y012385D01*
X001160Y012226D02*
X010570Y012226D01*
X010570Y012068D02*
X001160Y012068D01*
X003628Y007947D02*
X004647Y007947D01*
X006717Y006520D02*
X008831Y006520D01*
X008989Y006362D02*
X006875Y006362D01*
X007034Y006203D02*
X009148Y006203D01*
X007544Y005569D02*
X013320Y005569D01*
X013320Y005411D02*
X007550Y005411D01*
X007550Y005252D02*
X013320Y005252D01*
X013320Y005094D02*
X007550Y005094D01*
X007550Y004935D02*
X013320Y004935D01*
X013320Y004777D02*
X013193Y004777D01*
X013316Y004618D02*
X013320Y004618D01*
X013320Y004143D02*
X013252Y004143D01*
X013320Y003984D02*
X009702Y003984D01*
X009718Y003947D02*
X009676Y004048D01*
X009622Y004142D01*
X009555Y004228D01*
X009478Y004305D01*
X009392Y004372D01*
X009298Y004426D01*
X009197Y004468D01*
X009092Y004496D01*
X008984Y004510D01*
X008968Y004510D01*
X008968Y003718D01*
X008892Y003718D01*
X008892Y003642D01*
X008100Y003642D01*
X008100Y003626D01*
X008114Y003518D01*
X008142Y003413D01*
X008184Y003312D01*
X008238Y003218D01*
X008305Y003132D01*
X008382Y003055D01*
X008468Y002988D01*
X008562Y002934D01*
X008663Y002892D01*
X008768Y002864D01*
X008876Y002850D01*
X008892Y002850D01*
X008892Y003642D01*
X008968Y003642D01*
X008968Y003718D01*
X009760Y003718D01*
X009760Y003734D01*
X009746Y003842D01*
X009718Y003947D01*
X009748Y003826D02*
X013320Y003826D01*
X013320Y003667D02*
X008968Y003667D01*
X008968Y003642D02*
X009760Y003642D01*
X009760Y003626D01*
X009746Y003518D01*
X009718Y003413D01*
X009676Y003312D01*
X009622Y003218D01*
X009555Y003132D01*
X009478Y003055D01*
X009392Y002988D01*
X009298Y002934D01*
X009197Y002892D01*
X009092Y002864D01*
X008984Y002850D01*
X008968Y002850D01*
X008968Y003642D01*
X008892Y003667D02*
X007820Y003667D01*
X007820Y003509D02*
X008117Y003509D01*
X008168Y003350D02*
X007757Y003350D01*
X007691Y003192D02*
X008259Y003192D01*
X008410Y003033D02*
X007542Y003033D01*
X007311Y002875D02*
X008729Y002875D01*
X008892Y002875D02*
X008968Y002875D01*
X008968Y003033D02*
X008892Y003033D01*
X008892Y003192D02*
X008968Y003192D01*
X008968Y003350D02*
X008892Y003350D01*
X008892Y003509D02*
X008968Y003509D01*
X008892Y003718D02*
X008100Y003718D01*
X008100Y003734D01*
X008114Y003842D01*
X008142Y003947D01*
X008184Y004048D01*
X008238Y004142D01*
X008305Y004228D01*
X008382Y004305D01*
X008468Y004372D01*
X008562Y004426D01*
X008663Y004468D01*
X008768Y004496D01*
X008876Y004510D01*
X008892Y004510D01*
X008892Y003718D01*
X008892Y003826D02*
X008968Y003826D01*
X008968Y003984D02*
X008892Y003984D01*
X008892Y004143D02*
X008968Y004143D01*
X008968Y004301D02*
X008892Y004301D01*
X008892Y004460D02*
X008968Y004460D01*
X009217Y004460D02*
X011242Y004460D01*
X011259Y004301D02*
X009483Y004301D01*
X009621Y004143D02*
X011348Y004143D01*
X011284Y004618D02*
X007550Y004618D01*
X007550Y004460D02*
X008643Y004460D01*
X008377Y004301D02*
X007568Y004301D01*
X007702Y004143D02*
X008239Y004143D01*
X008158Y003984D02*
X007767Y003984D01*
X007820Y003826D02*
X008112Y003826D01*
X009131Y002875D02*
X010998Y002875D01*
X011079Y002956D02*
X010904Y002781D01*
X010810Y002553D01*
X010810Y002307D01*
X010904Y002079D01*
X011079Y001904D01*
X011307Y001810D01*
X011553Y001810D01*
X011781Y001904D01*
X011956Y002079D01*
X011969Y002112D01*
X012003Y002065D01*
X012065Y002003D01*
X012136Y001951D01*
X012215Y001911D01*
X012299Y001884D01*
X012386Y001870D01*
X012421Y001870D01*
X012421Y002421D01*
X012439Y002421D01*
X012439Y002439D01*
X012421Y002439D01*
X012421Y002990D01*
X012386Y002990D01*
X012299Y002976D01*
X012215Y002949D01*
X012136Y002909D01*
X012065Y002857D01*
X012003Y002795D01*
X011969Y002748D01*
X011956Y002781D01*
X011781Y002956D01*
X011553Y003050D01*
X011307Y003050D01*
X011079Y002956D01*
X011266Y003033D02*
X009450Y003033D01*
X009601Y003192D02*
X013320Y003192D01*
X013320Y003350D02*
X009692Y003350D01*
X009743Y003509D02*
X013320Y003509D01*
X013320Y003033D02*
X011594Y003033D01*
X011862Y002875D02*
X012089Y002875D01*
X012421Y002875D02*
X012439Y002875D01*
X012439Y002990D02*
X012439Y002439D01*
X012990Y002439D01*
X012990Y002474D01*
X012976Y002561D01*
X012949Y002645D01*
X012909Y002724D01*
X012857Y002795D01*
X012795Y002857D01*
X012724Y002909D01*
X012645Y002949D01*
X012561Y002976D01*
X012474Y002990D01*
X012439Y002990D01*
X012771Y002875D02*
X013320Y002875D01*
X013320Y002716D02*
X012913Y002716D01*
X012977Y002558D02*
X013320Y002558D01*
X013320Y002399D02*
X012990Y002399D01*
X012990Y002386D02*
X012990Y002421D01*
X012439Y002421D01*
X012439Y001870D01*
X012474Y001870D01*
X012561Y001884D01*
X012645Y001911D01*
X012724Y001951D01*
X012795Y002003D01*
X012857Y002065D01*
X012909Y002136D01*
X012949Y002215D01*
X012976Y002299D01*
X012990Y002386D01*
X012957Y002241D02*
X013369Y002241D01*
X013519Y002082D02*
X012869Y002082D01*
X012669Y001924D02*
X013677Y001924D01*
X013836Y001765D02*
X001478Y001765D01*
X001368Y001924D02*
X011060Y001924D01*
X010903Y002082D02*
X001292Y002082D01*
X001231Y002241D02*
X010837Y002241D01*
X010810Y002399D02*
X001195Y002399D01*
X001167Y002558D02*
X010812Y002558D01*
X010877Y002716D02*
X001160Y002716D01*
X001160Y002875D02*
X006549Y002875D01*
X006318Y003033D02*
X001160Y003033D01*
X001160Y003192D02*
X006169Y003192D01*
X006103Y003350D02*
X001160Y003350D01*
X001160Y003509D02*
X006040Y003509D01*
X006040Y003667D02*
X001160Y003667D01*
X001160Y003826D02*
X006040Y003826D01*
X006093Y003984D02*
X001160Y003984D01*
X001160Y004143D02*
X006158Y004143D01*
X006292Y004301D02*
X001160Y004301D01*
X001604Y001607D02*
X014020Y001607D01*
X012439Y001924D02*
X012421Y001924D01*
X012421Y002082D02*
X012439Y002082D01*
X012439Y002241D02*
X012421Y002241D01*
X012421Y002399D02*
X012439Y002399D01*
X012439Y002558D02*
X012421Y002558D01*
X012421Y002716D02*
X012439Y002716D01*
X011991Y002082D02*
X011957Y002082D01*
X011800Y001924D02*
X012191Y001924D01*
X011407Y004777D02*
X007550Y004777D01*
X007478Y005728D02*
X013320Y005728D01*
X011570Y009215D02*
X010224Y009215D01*
X010382Y009373D02*
X011570Y009373D01*
X011570Y009532D02*
X010541Y009532D01*
X010699Y009690D02*
X011570Y009690D01*
X011570Y009849D02*
X010858Y009849D01*
X011016Y010007D02*
X011570Y010007D01*
X011570Y010166D02*
X011175Y010166D01*
X011333Y010324D02*
X011570Y010324D01*
X011570Y010483D02*
X011492Y010483D01*
X012785Y010166D02*
X013075Y010166D01*
X013000Y010324D02*
X012860Y010324D01*
X012992Y010483D02*
X012992Y010483D01*
X010570Y013970D02*
X010154Y013970D01*
X010347Y014128D02*
X010513Y014128D01*
X010445Y014287D02*
X010415Y014287D01*
X010427Y014445D02*
X010433Y014445D01*
X010427Y014604D02*
X010433Y014604D01*
X010427Y014762D02*
X010433Y014762D01*
X010427Y014921D02*
X010433Y014921D01*
X010453Y015079D02*
X010407Y015079D01*
X010326Y015238D02*
X010534Y015238D01*
X010755Y015396D02*
X010105Y015396D01*
X010933Y015872D02*
X008952Y015872D01*
X009157Y016030D02*
X010933Y016030D01*
X010933Y016189D02*
X009315Y016189D01*
X009474Y016347D02*
X010955Y016347D01*
X021154Y013970D02*
X021706Y013970D01*
X021513Y014128D02*
X021347Y014128D01*
X021415Y014287D02*
X021445Y014287D01*
X021433Y014445D02*
X021427Y014445D01*
X021427Y014604D02*
X021433Y014604D01*
X021427Y014762D02*
X021433Y014762D01*
X021427Y014921D02*
X021433Y014921D01*
X021453Y015079D02*
X021407Y015079D01*
X020563Y007788D02*
X019540Y007788D01*
X019540Y007630D02*
X020317Y007630D01*
X020139Y007471D02*
X019540Y007471D01*
X019540Y007313D02*
X020001Y007313D01*
X019882Y007175D02*
X019882Y007175D01*
X019873Y007154D02*
X019540Y007154D01*
X019540Y006996D02*
X019800Y006996D01*
X019728Y006837D02*
X019540Y006837D01*
X019540Y006679D02*
X019662Y006679D01*
X019639Y006520D02*
X019540Y006520D01*
X019540Y006362D02*
X019616Y006362D01*
X019593Y006203D02*
X019540Y006203D01*
X019540Y006045D02*
X019609Y006045D01*
X019632Y005886D02*
X019540Y005886D01*
X019540Y005728D02*
X019655Y005728D01*
X019707Y005569D02*
X019540Y005569D01*
X019540Y005411D02*
X019779Y005411D01*
X019852Y005252D02*
X019540Y005252D01*
X019540Y005094D02*
X019962Y005094D01*
X020099Y004935D02*
X019684Y004935D01*
X019843Y004777D02*
X020245Y004777D01*
X020001Y004618D02*
X020492Y004618D01*
X022524Y001290D02*
X002086Y001290D01*
D19*
X007930Y007930D03*
X008680Y007930D03*
X009680Y007930D03*
X012430Y010430D03*
X012430Y011180D03*
X013430Y010430D03*
X014430Y011680D03*
X014430Y013680D03*
X017430Y013680D03*
X017430Y011680D03*
X021680Y011430D03*
X013680Y007930D03*
X012920Y004430D03*
X011680Y004430D03*
X003868Y009118D03*
X003680Y010680D03*
X009180Y016930D03*
D20*
X012430Y016430D02*
X012430Y015680D01*
X012430Y016430D02*
X012930Y016930D01*
X018930Y016930D01*
X019430Y016430D01*
X019430Y015680D01*
X017430Y013680D02*
X017430Y011680D01*
X017430Y002930D01*
D21*
X016430Y002930D02*
X016430Y013680D01*
X015430Y013680D02*
X015430Y002930D01*
X014430Y002930D02*
X014430Y011680D01*
X014430Y013680D01*
X012430Y016430D02*
X011930Y016930D01*
X009180Y016930D01*
X005430Y016430D02*
X005430Y014067D01*
D22*
X005430Y013930D02*
X005430Y016430D01*
X008680Y016430D01*
X009180Y016930D01*
X005430Y010930D02*
X005430Y008493D01*
X005430Y006930D01*
X006930Y005430D01*
X006930Y003680D01*
D23*
X009430Y006430D02*
X007930Y007930D01*
X008680Y007930D02*
X008680Y009180D01*
X010930Y011430D01*
X010930Y014930D01*
X011430Y015680D02*
X011430Y010930D01*
X009680Y009180D01*
X009680Y007930D01*
X009430Y006430D02*
X010940Y006430D01*
X011930Y007430D02*
X011930Y014930D01*
X012930Y014930D02*
X012930Y014430D01*
X012430Y013930D01*
X012430Y011180D01*
X012930Y010930D02*
X012430Y010430D01*
X012930Y010930D02*
X012930Y013680D01*
X013430Y014180D01*
X013430Y015680D01*
X013930Y014930D02*
X013930Y013930D01*
X013430Y013430D01*
X013430Y010430D01*
X013680Y007930D02*
X013680Y002430D01*
X014180Y001930D01*
X018430Y001930D01*
X019430Y002930D01*
X018180Y004180D01*
X018180Y012930D01*
X018930Y013680D01*
X018930Y014930D01*
X018430Y015430D01*
X018430Y015680D01*
X017430Y015680D02*
X017430Y013680D01*
X016430Y013680D02*
X016430Y015680D01*
X015430Y015680D02*
X015430Y013680D01*
X014430Y013680D02*
X014430Y015680D01*
X018680Y012430D02*
X019930Y013680D01*
X019930Y014930D01*
X020430Y015680D02*
X020430Y013180D01*
X019180Y011930D01*
X019180Y004930D01*
X019930Y004180D01*
X021180Y004180D01*
X022430Y002930D01*
X021430Y002930D02*
X020680Y003680D01*
X019680Y003680D01*
X018680Y004680D01*
X018680Y012430D01*
X012920Y004430D02*
X011680Y004430D01*
D24*
X006493Y008493D02*
X007980Y009980D01*
X007980Y011430D01*
X006493Y008493D02*
X005430Y008493D01*
M02*
