G75*
G70*
%OFA0B0*%
%FSLAX24Y24*%
%IPPOS*%
%LPD*%
%AMOC8*
5,1,8,0,0,1.08239X$1,22.5*
%
%ADD10C,0.0560*%
%ADD11C,0.0920*%
%ADD12OC8,0.0540*%
%ADD13OC8,0.0690*%
%ADD14C,0.0690*%
%ADD15C,0.0820*%
%ADD16C,0.1460*%
%ADD17C,0.1360*%
%ADD18C,0.1241*%
%ADD19C,0.0496*%
D10*
X009930Y014430D02*
X009930Y014930D01*
X010430Y015680D02*
X010430Y016180D01*
X011430Y016180D02*
X011430Y015680D01*
X010930Y014930D02*
X010930Y014430D01*
X011930Y014430D02*
X011930Y014930D01*
X012430Y015680D02*
X012430Y016180D01*
X013430Y016180D02*
X013430Y015680D01*
X012930Y014930D02*
X012930Y014430D01*
X013930Y014430D02*
X013930Y014930D01*
X014430Y015680D02*
X014430Y016180D01*
X014930Y014930D02*
X014930Y014430D01*
X015930Y014430D02*
X015930Y014930D01*
X016430Y015680D02*
X016430Y016180D01*
X017430Y016180D02*
X017430Y015680D01*
X016930Y014930D02*
X016930Y014430D01*
X017930Y014430D02*
X017930Y014930D01*
X018430Y015680D02*
X018430Y016180D01*
X019430Y016180D02*
X019430Y015680D01*
X018930Y014930D02*
X018930Y014430D01*
X019930Y014430D02*
X019930Y014930D01*
X020430Y015680D02*
X020430Y016180D01*
X021430Y016180D02*
X021430Y015680D01*
X020930Y014930D02*
X020930Y014430D01*
X021930Y014430D02*
X021930Y014930D01*
D11*
X021430Y002930D03*
X020430Y002930D03*
X019430Y002930D03*
X017430Y002930D03*
X016430Y002930D03*
X015430Y002930D03*
X014430Y002930D03*
X022430Y002930D03*
D12*
X012920Y006430D03*
X011930Y007430D03*
X010940Y006430D03*
D13*
X009380Y011430D03*
D14*
X007980Y011430D03*
D15*
X011430Y002430D03*
X012430Y002430D03*
D16*
X005430Y008493D03*
X005430Y010793D03*
X005430Y014067D03*
X005430Y016367D03*
D17*
X006930Y003680D03*
X008930Y003680D03*
D18*
X003180Y006180D03*
X021430Y006180D03*
D19*
X021680Y011430D03*
X017430Y011680D03*
X017430Y013180D03*
X014430Y013180D03*
X014430Y011680D03*
X013430Y010430D03*
X012430Y010430D03*
X012430Y011180D03*
X013680Y007930D03*
X009680Y007930D03*
X008680Y007930D03*
X007930Y007930D03*
X003868Y009118D03*
X003680Y010680D03*
X008930Y016930D03*
X011680Y004430D03*
X012920Y004430D03*
M02*
