%
M48
M72
T01C0.0236
T02C0.0315
T03C0.0320
T04C0.0354
T05C0.0433
T06C0.0472
T07C0.1000
T08C0.1181
%
T01
X7930Y7930
X8680Y7930
X9680Y7930
X12430Y10430
X12430Y11180
X13430Y10430
X14430Y11680
X14430Y13180
X17430Y13180
X17430Y11680
X21680Y11430
X13680Y7930
X12920Y4430
X11680Y4430
X3868Y9118
X3680Y10680
X8930Y16930
T02
X10430Y15680
X9930Y14930
X10930Y14930
X11430Y15680
X11930Y14930
X12430Y15680
X12930Y14930
X13430Y15680
X13930Y14930
X14430Y15680
X14930Y14930
X15430Y15680
X15930Y14930
X16430Y15680
X16930Y14930
X17430Y15680
X17930Y14930
X18430Y15680
X18930Y14930
X19430Y15680
X19930Y14930
X20430Y15680
X20930Y14930
X21430Y15680
X21930Y14930
T03
X11930Y7430
X10940Y6430
X12920Y6430
X9380Y11430
X7980Y11430
T04
X11430Y2430
X12430Y2430
T05
X14430Y2930
X15430Y2930
X16430Y2930
X17430Y2930
X19430Y2930
X20430Y2930
X21430Y2930
X22430Y2930
T06
X6930Y3680
X8930Y3680
T07
X5430Y8493
X5430Y10793
X5430Y14067
X5430Y16367
T08
X3180Y6180
X21430Y6180
M30
