G75*
G70*
%OFA0B0*%
%FSLAX24Y24*%
%IPPOS*%
%LPD*%
%AMOC8*
5,1,8,0,0,1.08239X$1,22.5*
%
%ADD10C,0.0090*%
%ADD11C,0.0050*%
%ADD12C,0.0160*%
%ADD13C,0.0080*%
%ADD14C,0.0070*%
%ADD15C,0.0100*%
%ADD16C,0.0060*%
D10*
X005913Y001230D02*
X006253Y001230D01*
X006465Y001145D02*
X006635Y000975D01*
X006805Y001145D01*
X006805Y001485D01*
X007017Y001485D02*
X007188Y001485D01*
X007103Y001485D02*
X007103Y000975D01*
X007188Y000975D02*
X007017Y000975D01*
X007386Y000975D02*
X007386Y001485D01*
X007726Y000975D01*
X007726Y001485D01*
X008225Y001400D02*
X008225Y001060D01*
X008310Y000975D01*
X008480Y000975D01*
X008565Y001060D01*
X008565Y001230D01*
X008395Y001230D01*
X008225Y001400D02*
X008310Y001485D01*
X008480Y001485D01*
X008565Y001400D01*
X008777Y001485D02*
X009118Y000975D01*
X009118Y001485D01*
X009330Y001485D02*
X009585Y001485D01*
X009670Y001400D01*
X009670Y001060D01*
X009585Y000975D01*
X009330Y000975D01*
X009330Y001485D01*
X008777Y001485D02*
X008777Y000975D01*
X006465Y001145D02*
X006465Y001485D01*
X006083Y001400D02*
X006083Y001060D01*
X006895Y011810D02*
X006895Y012150D01*
X006725Y011980D02*
X007065Y011980D01*
X010475Y011980D02*
X010815Y011980D01*
D11*
X010955Y011475D02*
X011090Y011475D01*
X011135Y011430D01*
X011135Y011340D01*
X011090Y011295D01*
X010955Y011295D01*
X010955Y011205D02*
X010955Y011475D01*
X011045Y011295D02*
X011135Y011205D01*
X011250Y011205D02*
X011430Y011385D01*
X011430Y011430D01*
X011385Y011475D01*
X011295Y011475D01*
X011250Y011430D01*
X011250Y011205D02*
X011430Y011205D01*
X011442Y010975D02*
X011397Y010930D01*
X011442Y010975D02*
X011532Y010975D01*
X011577Y010930D01*
X011577Y010885D01*
X011397Y010705D01*
X011577Y010705D01*
X011692Y010750D02*
X011872Y010930D01*
X011872Y010750D01*
X011827Y010705D01*
X011737Y010705D01*
X011692Y010750D01*
X011692Y010930D01*
X011737Y010975D01*
X011827Y010975D01*
X011872Y010930D01*
X011986Y010930D02*
X012031Y010975D01*
X012121Y010975D01*
X012166Y010930D01*
X012166Y010840D01*
X012121Y010795D01*
X012121Y010705D01*
X012166Y010705D01*
X012031Y010705D02*
X012031Y010795D01*
X011986Y010840D01*
X011986Y010930D01*
X011986Y010705D02*
X012031Y010705D01*
X011295Y010705D02*
X011250Y010705D01*
X011250Y010750D01*
X011295Y010750D01*
X011295Y010705D01*
X011135Y010750D02*
X011090Y010705D01*
X011000Y010705D01*
X010955Y010750D01*
X011135Y010930D01*
X011135Y010750D01*
X010955Y010750D02*
X010955Y010930D01*
X011000Y010975D01*
X011090Y010975D01*
X011135Y010930D01*
X011197Y009975D02*
X011197Y009705D01*
X011107Y009705D02*
X011287Y009705D01*
X011107Y009885D02*
X011197Y009975D01*
X010992Y009930D02*
X010947Y009975D01*
X010857Y009975D01*
X010812Y009930D01*
X010812Y009885D01*
X010857Y009840D01*
X010947Y009840D01*
X010992Y009795D01*
X010992Y009750D01*
X010947Y009705D01*
X010857Y009705D01*
X010812Y009750D01*
X010698Y009705D02*
X010698Y009975D01*
X010608Y009885D01*
X010518Y009975D01*
X010518Y009705D01*
X011580Y009705D02*
X011580Y009975D01*
X011670Y009885D01*
X011760Y009975D01*
X011760Y009705D01*
X011875Y009750D02*
X011920Y009705D01*
X012010Y009705D01*
X012055Y009750D01*
X012055Y009795D01*
X012010Y009840D01*
X011920Y009840D01*
X011875Y009885D01*
X011875Y009930D01*
X011920Y009975D01*
X012010Y009975D01*
X012055Y009930D01*
X012169Y009930D02*
X012214Y009975D01*
X012304Y009975D01*
X012349Y009930D01*
X012349Y009885D01*
X012169Y009705D01*
X012349Y009705D01*
X012580Y009705D02*
X012580Y009975D01*
X012670Y009885D01*
X012760Y009975D01*
X012760Y009705D01*
X012875Y009750D02*
X012920Y009705D01*
X013010Y009705D01*
X013055Y009750D01*
X013055Y009795D01*
X013010Y009840D01*
X012920Y009840D01*
X012875Y009885D01*
X012875Y009930D01*
X012920Y009975D01*
X013010Y009975D01*
X013055Y009930D01*
X013169Y009930D02*
X013214Y009975D01*
X013304Y009975D01*
X013349Y009930D01*
X013349Y009885D01*
X013304Y009840D01*
X013349Y009795D01*
X013349Y009750D01*
X013304Y009705D01*
X013214Y009705D01*
X013169Y009750D01*
X013259Y009840D02*
X013304Y009840D01*
X014455Y008725D02*
X014635Y008725D01*
X014545Y008725D02*
X014545Y008455D01*
X014750Y008455D02*
X014750Y008725D01*
X014750Y008590D02*
X014930Y008590D01*
X015044Y008590D02*
X015179Y008590D01*
X015224Y008545D01*
X015224Y008500D01*
X015179Y008455D01*
X015044Y008455D01*
X015044Y008725D01*
X015179Y008725D01*
X015224Y008680D01*
X015224Y008635D01*
X015179Y008590D01*
X015339Y008590D02*
X015429Y008680D01*
X015519Y008725D01*
X015634Y008680D02*
X015679Y008725D01*
X015769Y008725D01*
X015814Y008680D01*
X015634Y008500D01*
X015679Y008455D01*
X015769Y008455D01*
X015814Y008500D01*
X015814Y008680D01*
X015928Y008590D02*
X016063Y008590D01*
X016108Y008545D01*
X016108Y008500D01*
X016063Y008455D01*
X015973Y008455D01*
X015928Y008500D01*
X015928Y008590D01*
X016018Y008680D01*
X016108Y008725D01*
X016223Y008590D02*
X016403Y008590D01*
X016358Y008455D02*
X016358Y008725D01*
X016223Y008590D01*
X016059Y008225D02*
X016059Y007955D01*
X015969Y008045D01*
X015879Y007955D01*
X015879Y008225D01*
X016174Y008090D02*
X016174Y008000D01*
X016219Y007955D01*
X016309Y007955D01*
X016354Y008045D02*
X016174Y008045D01*
X016174Y008090D02*
X016219Y008135D01*
X016309Y008135D01*
X016354Y008090D01*
X016354Y008045D01*
X016468Y008090D02*
X016513Y008135D01*
X016649Y008135D01*
X016604Y008045D02*
X016513Y008045D01*
X016468Y008090D01*
X016468Y007955D02*
X016604Y007955D01*
X016649Y008000D01*
X016604Y008045D01*
X016763Y008135D02*
X016853Y008135D01*
X016808Y008180D02*
X016808Y008000D01*
X016853Y007955D01*
X016960Y008000D02*
X017005Y007955D01*
X017095Y007955D01*
X017140Y008000D01*
X017140Y008090D01*
X017095Y008135D01*
X017005Y008135D01*
X016960Y008090D01*
X016960Y008000D01*
X017254Y007955D02*
X017254Y008135D01*
X017389Y008135D01*
X017434Y008090D01*
X017434Y007955D01*
X017549Y007865D02*
X017639Y007955D01*
X017594Y007955D01*
X017594Y008000D01*
X017639Y008000D01*
X017639Y007955D01*
X018040Y007955D02*
X018220Y008135D01*
X018220Y008180D01*
X018175Y008225D01*
X018085Y008225D01*
X018040Y008180D01*
X018040Y007955D02*
X018220Y007955D01*
X018335Y008000D02*
X018515Y008180D01*
X018515Y008000D01*
X018470Y007955D01*
X018380Y007955D01*
X018335Y008000D01*
X018335Y008180D01*
X018380Y008225D01*
X018470Y008225D01*
X018515Y008180D01*
X018629Y008135D02*
X018719Y008225D01*
X018719Y007955D01*
X018629Y007955D02*
X018809Y007955D01*
X018924Y007955D02*
X019104Y008135D01*
X019104Y008180D01*
X019059Y008225D01*
X018969Y008225D01*
X018924Y008180D01*
X018924Y007955D02*
X019104Y007955D01*
X019116Y008455D02*
X019071Y008500D01*
X019071Y008590D01*
X019116Y008635D01*
X019206Y008635D01*
X019251Y008590D01*
X019251Y008545D01*
X019071Y008545D01*
X019116Y008455D02*
X019206Y008455D01*
X019366Y008455D02*
X019366Y008635D01*
X019366Y008545D02*
X019456Y008635D01*
X019501Y008635D01*
X019906Y008635D02*
X019951Y008590D01*
X020041Y008590D01*
X020086Y008545D01*
X020086Y008500D01*
X020041Y008455D01*
X019951Y008455D01*
X019906Y008500D01*
X019906Y008635D02*
X019906Y008680D01*
X019951Y008725D01*
X020041Y008725D01*
X020086Y008680D01*
X020201Y008635D02*
X020291Y008635D01*
X020246Y008680D02*
X020246Y008500D01*
X020291Y008455D01*
X020397Y008500D02*
X020397Y008590D01*
X020442Y008635D01*
X020532Y008635D01*
X020577Y008590D01*
X020577Y008545D01*
X020397Y008545D01*
X020397Y008500D02*
X020442Y008455D01*
X020532Y008455D01*
X020692Y008455D02*
X020827Y008455D01*
X020872Y008500D01*
X020872Y008590D01*
X020827Y008635D01*
X020692Y008635D01*
X020692Y008365D01*
X020986Y008365D02*
X020986Y008635D01*
X021122Y008635D01*
X021167Y008590D01*
X021167Y008500D01*
X021122Y008455D01*
X020986Y008455D01*
X021281Y008500D02*
X021281Y008590D01*
X021326Y008635D01*
X021416Y008635D01*
X021461Y008590D01*
X021461Y008545D01*
X021281Y008545D01*
X021281Y008500D02*
X021326Y008455D01*
X021416Y008455D01*
X021576Y008455D02*
X021576Y008635D01*
X021576Y008545D02*
X021666Y008635D01*
X021711Y008635D01*
X022116Y008725D02*
X022116Y008455D01*
X022251Y008455D01*
X022296Y008500D01*
X022296Y008680D01*
X022251Y008725D01*
X022116Y008725D01*
X022411Y008635D02*
X022411Y008455D01*
X022411Y008545D02*
X022501Y008635D01*
X022546Y008635D01*
X022656Y008635D02*
X022701Y008635D01*
X022701Y008455D01*
X022656Y008455D02*
X022746Y008455D01*
X022943Y008455D02*
X022853Y008635D01*
X022701Y008725D02*
X022701Y008770D01*
X023033Y008635D02*
X022943Y008455D01*
X023147Y008500D02*
X023147Y008590D01*
X023192Y008635D01*
X023282Y008635D01*
X023327Y008590D01*
X023327Y008545D01*
X023147Y008545D01*
X023147Y008500D02*
X023192Y008455D01*
X023282Y008455D01*
X023442Y008455D02*
X023442Y008635D01*
X023442Y008545D02*
X023532Y008635D01*
X023577Y008635D01*
X023405Y010455D02*
X023405Y010635D01*
X023405Y010545D02*
X023135Y010545D01*
X023225Y010455D01*
X023180Y010750D02*
X023135Y010795D01*
X023135Y010885D01*
X023180Y010930D01*
X023360Y010750D01*
X023405Y010795D01*
X023405Y010885D01*
X023360Y010930D01*
X023180Y010930D01*
X023180Y011044D02*
X023135Y011089D01*
X023135Y011179D01*
X023180Y011224D01*
X023360Y011044D01*
X023405Y011089D01*
X023405Y011179D01*
X023360Y011224D01*
X023180Y011224D01*
X023225Y011339D02*
X023225Y011474D01*
X023270Y011519D01*
X023405Y011519D01*
X023405Y011634D02*
X023135Y011634D01*
X023135Y011814D01*
X023270Y011724D02*
X023270Y011634D01*
X023225Y011339D02*
X023405Y011339D01*
X023360Y011044D02*
X023180Y011044D01*
X023180Y010750D02*
X023360Y010750D01*
X023322Y013205D02*
X023367Y013205D01*
X023322Y013205D02*
X023322Y013295D01*
X023367Y013340D01*
X023367Y013430D01*
X023322Y013475D01*
X023232Y013475D01*
X023187Y013430D01*
X023187Y013340D01*
X023232Y013295D01*
X023232Y013205D01*
X023187Y013205D01*
X023077Y013205D02*
X022942Y013295D01*
X023077Y013385D01*
X022942Y013475D02*
X022942Y013205D01*
X022827Y013205D02*
X022647Y013205D01*
X022827Y013385D01*
X022827Y013430D01*
X022782Y013475D01*
X022692Y013475D01*
X022647Y013430D01*
X022545Y013250D02*
X022545Y013205D01*
X022500Y013205D01*
X022500Y013250D01*
X022545Y013250D01*
X022385Y013205D02*
X022205Y013205D01*
X022385Y013385D01*
X022385Y013430D01*
X022340Y013475D01*
X022250Y013475D01*
X022205Y013430D01*
X021970Y013430D02*
X021970Y013340D01*
X021925Y013295D01*
X021925Y013205D01*
X021970Y013205D01*
X021835Y013205D02*
X021835Y013295D01*
X021790Y013340D01*
X021790Y013430D01*
X021835Y013475D01*
X021925Y013475D01*
X021970Y013430D01*
X021679Y013385D02*
X021544Y013295D01*
X021679Y013205D01*
X021790Y013205D02*
X021835Y013205D01*
X021544Y013205D02*
X021544Y013475D01*
X021430Y013475D02*
X021430Y013430D01*
X021250Y013250D01*
X021250Y013205D01*
X021090Y013205D02*
X021090Y013475D01*
X020955Y013340D01*
X021135Y013340D01*
X021250Y013475D02*
X021430Y013475D01*
X022430Y013680D02*
X022680Y015680D01*
X022430Y016930D01*
X009430Y016930D01*
X009180Y015680D01*
X009430Y013680D01*
X022430Y013680D01*
X019166Y010930D02*
X019166Y010840D01*
X019121Y010795D01*
X019121Y010705D01*
X019166Y010705D01*
X019031Y010705D02*
X019031Y010795D01*
X018986Y010840D01*
X018986Y010930D01*
X019031Y010975D01*
X019121Y010975D01*
X019166Y010930D01*
X019031Y010705D02*
X018986Y010705D01*
X018872Y010750D02*
X018872Y010930D01*
X018692Y010750D01*
X018737Y010705D01*
X018827Y010705D01*
X018872Y010750D01*
X018872Y010930D02*
X018827Y010975D01*
X018737Y010975D01*
X018692Y010930D01*
X018692Y010750D01*
X018577Y010705D02*
X018397Y010705D01*
X018577Y010885D01*
X018577Y010930D01*
X018532Y010975D01*
X018442Y010975D01*
X018397Y010930D01*
X018295Y010750D02*
X018295Y010705D01*
X018250Y010705D01*
X018250Y010750D01*
X018295Y010750D01*
X018135Y010750D02*
X018135Y010930D01*
X017955Y010750D01*
X018000Y010705D01*
X018090Y010705D01*
X018135Y010750D01*
X017955Y010750D02*
X017955Y010930D01*
X018000Y010975D01*
X018090Y010975D01*
X018135Y010930D01*
X018135Y011205D02*
X018045Y011295D01*
X018090Y011295D02*
X017955Y011295D01*
X017955Y011205D02*
X017955Y011475D01*
X018090Y011475D01*
X018135Y011430D01*
X018135Y011340D01*
X018090Y011295D01*
X018250Y011250D02*
X018295Y011205D01*
X018385Y011205D01*
X018430Y011250D01*
X018430Y011295D01*
X018385Y011340D01*
X018340Y011340D01*
X018385Y011340D02*
X018430Y011385D01*
X018430Y011430D01*
X018385Y011475D01*
X018295Y011475D01*
X018250Y011430D01*
X018187Y008725D02*
X018322Y008725D01*
X018367Y008680D01*
X018367Y008590D01*
X018322Y008545D01*
X018187Y008545D01*
X018187Y008455D02*
X018187Y008725D01*
X018073Y008590D02*
X017893Y008590D01*
X017778Y008590D02*
X017778Y008455D01*
X017778Y008590D02*
X017733Y008635D01*
X017643Y008635D01*
X017598Y008590D01*
X017483Y008635D02*
X017348Y008635D01*
X017303Y008590D01*
X017303Y008500D01*
X017348Y008455D01*
X017483Y008455D01*
X017483Y008410D02*
X017438Y008365D01*
X017393Y008365D01*
X017483Y008410D02*
X017483Y008635D01*
X017598Y008725D02*
X017598Y008455D01*
X017197Y008455D02*
X017107Y008455D01*
X017152Y008455D02*
X017152Y008635D01*
X017107Y008635D01*
X017152Y008725D02*
X017152Y008770D01*
X016992Y008725D02*
X016992Y008455D01*
X016992Y008590D02*
X016812Y008590D01*
X016812Y008455D02*
X016812Y008725D01*
X015634Y008680D02*
X015634Y008500D01*
X015519Y008500D02*
X015519Y008545D01*
X015474Y008590D01*
X015339Y008590D01*
X015339Y008500D01*
X015384Y008455D01*
X015474Y008455D01*
X015519Y008500D01*
X015425Y008135D02*
X015470Y008090D01*
X015470Y008045D01*
X015290Y008045D01*
X015290Y008000D02*
X015290Y008090D01*
X015335Y008135D01*
X015425Y008135D01*
X015425Y007955D02*
X015335Y007955D01*
X015290Y008000D01*
X015179Y007955D02*
X015044Y008045D01*
X015179Y008135D01*
X015044Y008225D02*
X015044Y007955D01*
X014930Y007955D02*
X014930Y008135D01*
X014930Y007955D02*
X014795Y007955D01*
X014750Y008000D01*
X014750Y008135D01*
X014635Y007955D02*
X014455Y007955D01*
X014455Y008225D01*
X014930Y008455D02*
X014930Y008725D01*
X014384Y006475D02*
X014384Y006205D01*
X014294Y006205D02*
X014474Y006205D01*
X014380Y005975D02*
X014425Y005930D01*
X014425Y005840D01*
X014380Y005795D01*
X014380Y005705D01*
X014425Y005705D01*
X014290Y005705D02*
X014290Y005795D01*
X014245Y005840D01*
X014245Y005930D01*
X014290Y005975D01*
X014380Y005975D01*
X014135Y005885D02*
X014000Y005795D01*
X014135Y005705D01*
X014245Y005705D02*
X014290Y005705D01*
X014000Y005705D02*
X014000Y005975D01*
X013885Y005975D02*
X013705Y005975D01*
X013705Y005840D01*
X013795Y005885D01*
X013840Y005885D01*
X013885Y005840D01*
X013885Y005750D01*
X013840Y005705D01*
X013750Y005705D01*
X013705Y005750D01*
X013750Y005475D02*
X013705Y005430D01*
X013705Y005250D01*
X013750Y005205D01*
X013840Y005205D01*
X013885Y005250D01*
X014000Y005250D02*
X014045Y005205D01*
X014180Y005205D01*
X014180Y005385D01*
X014294Y005385D02*
X014294Y005205D01*
X014294Y005295D02*
X014384Y005385D01*
X014429Y005385D01*
X014540Y005385D02*
X014540Y005205D01*
X014540Y005295D02*
X014630Y005385D01*
X014675Y005385D01*
X014785Y005340D02*
X014785Y005250D01*
X014830Y005205D01*
X014921Y005205D01*
X014966Y005295D02*
X014785Y005295D01*
X014785Y005340D02*
X014830Y005385D01*
X014921Y005385D01*
X014966Y005340D01*
X014966Y005295D01*
X015080Y005205D02*
X015080Y005385D01*
X015215Y005385D01*
X015260Y005340D01*
X015260Y005205D01*
X015420Y005250D02*
X015465Y005205D01*
X015420Y005250D02*
X015420Y005430D01*
X015375Y005385D02*
X015465Y005385D01*
X015866Y005385D02*
X015911Y005340D01*
X016001Y005340D01*
X016046Y005295D01*
X016046Y005250D01*
X016001Y005205D01*
X015911Y005205D01*
X015866Y005250D01*
X015866Y005385D02*
X015866Y005430D01*
X015911Y005475D01*
X016001Y005475D01*
X016046Y005430D01*
X016160Y005340D02*
X016205Y005385D01*
X016296Y005385D01*
X016341Y005340D01*
X016341Y005295D01*
X016160Y005295D01*
X016160Y005250D02*
X016160Y005340D01*
X016160Y005250D02*
X016205Y005205D01*
X016296Y005205D01*
X016500Y005250D02*
X016500Y005430D01*
X016455Y005385D02*
X016545Y005385D01*
X016500Y005250D02*
X016545Y005205D01*
X015171Y004635D02*
X015125Y004635D01*
X015035Y004545D01*
X015035Y004455D02*
X015035Y004635D01*
X014921Y004590D02*
X014921Y004500D01*
X014876Y004455D01*
X014786Y004455D01*
X014741Y004500D01*
X014741Y004590D01*
X014786Y004635D01*
X014876Y004635D01*
X014921Y004590D01*
X014634Y004635D02*
X014544Y004635D01*
X014589Y004680D02*
X014589Y004500D01*
X014634Y004455D01*
X014430Y004500D02*
X014430Y004590D01*
X014385Y004635D01*
X014295Y004635D01*
X014250Y004590D01*
X014250Y004500D01*
X014295Y004455D01*
X014385Y004455D01*
X014430Y004500D01*
X014135Y004455D02*
X014135Y004725D01*
X014045Y004635D01*
X013955Y004725D01*
X013955Y004455D01*
X013930Y004180D02*
X013930Y001680D01*
X017930Y001680D01*
X017930Y004180D01*
X013930Y004180D01*
X014000Y005250D02*
X014000Y005385D01*
X013885Y005430D02*
X013840Y005475D01*
X013750Y005475D01*
X013795Y006205D02*
X013885Y006295D01*
X013885Y006475D01*
X014000Y006475D02*
X014135Y006475D01*
X014180Y006430D01*
X014180Y006340D01*
X014135Y006295D01*
X014000Y006295D01*
X014090Y006295D02*
X014180Y006205D01*
X014000Y006205D02*
X014000Y006475D01*
X013705Y006475D02*
X013705Y006295D01*
X013795Y006205D01*
X014294Y006385D02*
X014384Y006475D01*
X012072Y003975D02*
X011982Y003975D01*
X011937Y003930D01*
X011937Y003840D01*
X011982Y003795D01*
X011982Y003705D01*
X011937Y003705D01*
X011827Y003705D02*
X011692Y003795D01*
X011827Y003885D01*
X011692Y003975D02*
X011692Y003705D01*
X011577Y003930D02*
X011397Y003750D01*
X011397Y003705D01*
X011295Y003705D02*
X011250Y003705D01*
X011250Y003750D01*
X011295Y003750D01*
X011295Y003705D01*
X011135Y003705D02*
X010955Y003705D01*
X011135Y003885D01*
X011135Y003930D01*
X011090Y003975D01*
X011000Y003975D01*
X010955Y003930D01*
X011397Y003975D02*
X011577Y003975D01*
X011577Y003930D01*
X012072Y003975D02*
X012117Y003930D01*
X012117Y003840D01*
X012072Y003795D01*
X012072Y003705D01*
X012117Y003705D01*
X012134Y003475D02*
X012314Y003475D01*
X012224Y003340D02*
X012134Y003340D01*
X012019Y003340D02*
X012019Y003205D01*
X012134Y003205D02*
X012134Y003475D01*
X012019Y003340D02*
X011974Y003385D01*
X011839Y003385D01*
X011839Y003205D01*
X011724Y003250D02*
X011724Y003430D01*
X011544Y003250D01*
X011589Y003205D01*
X011679Y003205D01*
X011724Y003250D01*
X011544Y003250D02*
X011544Y003430D01*
X011589Y003475D01*
X011679Y003475D01*
X011724Y003430D01*
X011430Y003430D02*
X011430Y003250D01*
X011385Y003205D01*
X011295Y003205D01*
X011250Y003250D01*
X011430Y003430D01*
X011385Y003475D01*
X011295Y003475D01*
X011250Y003430D01*
X011250Y003250D01*
X011135Y003205D02*
X010955Y003205D01*
X011045Y003205D02*
X011045Y003475D01*
X010955Y003385D01*
X010893Y001288D02*
X010893Y001108D01*
X010983Y001018D01*
X011073Y001108D01*
X011073Y001288D01*
X011187Y001288D02*
X011322Y001288D01*
X011367Y001243D01*
X011367Y001153D01*
X011322Y001108D01*
X011187Y001108D01*
X011277Y001108D02*
X011367Y001018D01*
X011482Y001018D02*
X011662Y001018D01*
X011776Y001018D02*
X011776Y001288D01*
X011957Y001288D01*
X011867Y001153D02*
X011776Y001153D01*
X011662Y001288D02*
X011482Y001288D01*
X011482Y001018D01*
X011482Y001153D02*
X011572Y001153D01*
X011187Y001018D02*
X011187Y001288D01*
X014080Y001205D02*
X014080Y001475D01*
X014170Y001385D01*
X014260Y001475D01*
X014260Y001205D01*
X014375Y001205D02*
X014510Y001205D01*
X014555Y001250D01*
X014555Y001295D01*
X014510Y001340D01*
X014375Y001340D01*
X014510Y001340D02*
X014555Y001385D01*
X014555Y001430D01*
X014510Y001475D01*
X014375Y001475D01*
X014375Y001205D01*
X014669Y001340D02*
X014849Y001340D01*
X015018Y001205D02*
X015018Y001475D01*
X015108Y001385D01*
X015198Y001475D01*
X015198Y001205D01*
X015312Y001205D02*
X015447Y001205D01*
X015492Y001250D01*
X015492Y001295D01*
X015447Y001340D01*
X015312Y001340D01*
X015312Y001205D02*
X015312Y001475D01*
X015447Y001475D01*
X015492Y001430D01*
X015492Y001385D01*
X015447Y001340D01*
X015607Y001340D02*
X015787Y001340D01*
X015697Y001430D02*
X015697Y001250D01*
X016018Y001205D02*
X016018Y001475D01*
X016108Y001385D01*
X016198Y001475D01*
X016198Y001205D01*
X016312Y001205D02*
X016312Y001385D01*
X016402Y001475D01*
X016492Y001385D01*
X016492Y001205D01*
X016492Y001340D02*
X016312Y001340D01*
X016607Y001340D02*
X016787Y001340D01*
X017018Y001205D02*
X017018Y001475D01*
X017108Y001385D01*
X017198Y001475D01*
X017198Y001205D01*
X017312Y001205D02*
X017312Y001385D01*
X017402Y001475D01*
X017492Y001385D01*
X017492Y001205D01*
X017492Y001340D02*
X017312Y001340D01*
X017607Y001340D02*
X017787Y001340D01*
X017697Y001430D02*
X017697Y001250D01*
X018930Y001680D02*
X018930Y004180D01*
X022930Y004180D01*
X022930Y001680D01*
X018930Y001680D01*
X019108Y001430D02*
X019108Y001250D01*
X019018Y001340D02*
X019198Y001340D01*
X019312Y001340D02*
X019402Y001385D01*
X019447Y001385D01*
X019492Y001340D01*
X019492Y001250D01*
X019447Y001205D01*
X019357Y001205D01*
X019312Y001250D01*
X019312Y001340D02*
X019312Y001475D01*
X019492Y001475D01*
X019607Y001475D02*
X019607Y001295D01*
X019697Y001205D01*
X019787Y001295D01*
X019787Y001475D01*
X020080Y001430D02*
X020080Y001250D01*
X020125Y001205D01*
X020215Y001205D01*
X020260Y001250D01*
X020260Y001340D01*
X020170Y001340D01*
X020080Y001430D02*
X020125Y001475D01*
X020215Y001475D01*
X020260Y001430D01*
X020375Y001475D02*
X020375Y001205D01*
X020555Y001205D02*
X020555Y001475D01*
X020669Y001475D02*
X020804Y001475D01*
X020849Y001430D01*
X020849Y001250D01*
X020804Y001205D01*
X020669Y001205D01*
X020669Y001475D01*
X020555Y001205D02*
X020375Y001475D01*
X021018Y001430D02*
X021018Y001385D01*
X021063Y001340D01*
X021153Y001340D01*
X021198Y001295D01*
X021198Y001250D01*
X021153Y001205D01*
X021063Y001205D01*
X021018Y001250D01*
X021018Y001430D02*
X021063Y001475D01*
X021153Y001475D01*
X021198Y001430D01*
X021312Y001475D02*
X021492Y001475D01*
X021402Y001475D02*
X021402Y001205D01*
X021607Y001205D02*
X021607Y001475D01*
X021742Y001475D01*
X021787Y001430D01*
X021787Y001340D01*
X021742Y001295D01*
X021607Y001295D01*
X022080Y001205D02*
X022215Y001205D01*
X022260Y001250D01*
X022260Y001430D01*
X022215Y001475D01*
X022080Y001475D01*
X022080Y001205D01*
X022375Y001205D02*
X022465Y001205D01*
X022420Y001205D02*
X022420Y001475D01*
X022375Y001475D02*
X022465Y001475D01*
X022571Y001475D02*
X022706Y001475D01*
X022751Y001430D01*
X022751Y001340D01*
X022706Y001295D01*
X022571Y001295D01*
X022571Y001205D02*
X022571Y001475D01*
X022661Y001295D02*
X022751Y001205D01*
X019446Y004365D02*
X019446Y004635D01*
X019581Y004635D01*
X019626Y004590D01*
X019626Y004500D01*
X019581Y004455D01*
X019446Y004455D01*
X019332Y004455D02*
X019332Y004590D01*
X019287Y004635D01*
X019151Y004635D01*
X019151Y004455D01*
X019045Y004455D02*
X018955Y004455D01*
X019000Y004455D02*
X019000Y004725D01*
X018955Y004725D02*
X019045Y004725D01*
X019741Y004635D02*
X019741Y004500D01*
X019786Y004455D01*
X019921Y004455D01*
X019921Y004635D01*
X020035Y004635D02*
X020125Y004635D01*
X020080Y004680D02*
X020080Y004500D01*
X020125Y004455D01*
X020232Y004455D02*
X020367Y004455D01*
X020412Y004500D01*
X020367Y004545D01*
X020277Y004545D01*
X020232Y004590D01*
X020277Y004635D01*
X020412Y004635D01*
X018912Y008455D02*
X018957Y008500D01*
X018957Y008635D01*
X018867Y008500D02*
X018912Y008455D01*
X018867Y008500D02*
X018822Y008455D01*
X018777Y008500D01*
X018777Y008635D01*
X018662Y008590D02*
X018617Y008635D01*
X018527Y008635D01*
X018482Y008590D01*
X018482Y008500D01*
X018527Y008455D01*
X018617Y008455D01*
X018662Y008500D01*
X018662Y008590D01*
X010814Y013225D02*
X010634Y013225D01*
X010634Y012955D01*
X010519Y013000D02*
X010519Y013090D01*
X010519Y013000D02*
X010474Y012955D01*
X010429Y012955D01*
X010384Y013000D01*
X010384Y012910D01*
X010339Y012865D01*
X010384Y013000D02*
X010384Y013090D01*
X010224Y013000D02*
X010179Y012955D01*
X010089Y012955D01*
X010044Y013000D01*
X010224Y013180D01*
X010224Y013000D01*
X010044Y013000D02*
X010044Y013180D01*
X010089Y013225D01*
X010179Y013225D01*
X010224Y013180D01*
X009930Y013180D02*
X009930Y013000D01*
X009885Y012955D01*
X009795Y012955D01*
X009750Y013000D01*
X009930Y013180D01*
X009885Y013225D01*
X009795Y013225D01*
X009750Y013180D01*
X009750Y013000D01*
X009635Y012955D02*
X009455Y012955D01*
X009545Y012955D02*
X009545Y013225D01*
X009455Y013135D01*
X009500Y013330D02*
X009590Y013330D01*
X009635Y013375D01*
X009750Y013330D02*
X009930Y013330D01*
X009840Y013330D02*
X009840Y013600D01*
X009750Y013510D01*
X009635Y013555D02*
X009590Y013600D01*
X009500Y013600D01*
X009455Y013555D01*
X009455Y013375D01*
X009500Y013330D01*
X008884Y013955D02*
X008884Y014225D01*
X009064Y014225D01*
X008974Y014090D02*
X008884Y014090D01*
X008769Y014090D02*
X008769Y013955D01*
X008769Y014090D02*
X008724Y014135D01*
X008589Y014135D01*
X008589Y013955D01*
X008474Y014000D02*
X008429Y013955D01*
X008339Y013955D01*
X008294Y014000D01*
X008474Y014180D01*
X008474Y014000D01*
X008294Y014000D02*
X008294Y014180D01*
X008339Y014225D01*
X008429Y014225D01*
X008474Y014180D01*
X008180Y014180D02*
X008180Y014000D01*
X008135Y013955D01*
X008045Y013955D01*
X008000Y014000D01*
X008180Y014180D01*
X008135Y014225D01*
X008045Y014225D01*
X008000Y014180D01*
X008000Y014000D01*
X007885Y013955D02*
X007705Y013955D01*
X007795Y013955D02*
X007795Y014225D01*
X007705Y014135D01*
X007750Y014455D02*
X007840Y014455D01*
X007885Y014500D01*
X008000Y014455D02*
X008180Y014635D01*
X008180Y014680D01*
X008135Y014725D01*
X008045Y014725D01*
X008000Y014680D01*
X007885Y014680D02*
X007840Y014725D01*
X007750Y014725D01*
X007705Y014680D01*
X007705Y014500D01*
X007750Y014455D01*
X008000Y014455D02*
X008180Y014455D01*
X010634Y013090D02*
X010724Y013090D01*
X008635Y009225D02*
X008545Y009225D01*
X008500Y009180D01*
X008500Y009135D01*
X008545Y009090D01*
X008680Y009090D01*
X008680Y009000D02*
X008680Y009180D01*
X008635Y009225D01*
X008680Y009000D02*
X008635Y008955D01*
X008545Y008955D01*
X008500Y009000D01*
X008385Y008955D02*
X008295Y009045D01*
X008340Y009045D02*
X008205Y009045D01*
X008205Y008955D02*
X008205Y009225D01*
X008340Y009225D01*
X008385Y009180D01*
X008385Y009090D01*
X008340Y009045D01*
X008340Y008725D02*
X008205Y008590D01*
X008385Y008590D01*
X008340Y008455D02*
X008340Y008725D01*
X008500Y008725D02*
X008680Y008725D01*
X008680Y008680D01*
X008500Y008500D01*
X008500Y008455D01*
X008794Y008500D02*
X008794Y008680D01*
X008839Y008725D01*
X008929Y008725D01*
X008974Y008680D01*
X008794Y008500D01*
X008839Y008455D01*
X008929Y008455D01*
X008974Y008500D01*
X008974Y008680D01*
X009089Y008680D02*
X009134Y008725D01*
X009224Y008725D01*
X009269Y008680D01*
X009269Y008590D01*
X009224Y008545D01*
X009224Y008455D01*
X009269Y008455D01*
X009134Y008455D02*
X009134Y008545D01*
X009089Y008590D01*
X009089Y008680D01*
X009089Y008455D02*
X009134Y008455D01*
X009268Y006163D02*
X009403Y006163D01*
X009448Y006118D01*
X009448Y005938D01*
X009403Y005893D01*
X009268Y005893D01*
X009268Y006163D01*
X008992Y006163D02*
X008992Y005893D01*
X009082Y005893D02*
X008901Y005893D01*
X008901Y006073D02*
X008992Y006163D01*
X008787Y006163D02*
X008787Y006118D01*
X008697Y006028D01*
X008697Y005893D01*
X008697Y006028D02*
X008607Y006118D01*
X008607Y006163D01*
X008492Y006118D02*
X008447Y006163D01*
X008357Y006163D01*
X008312Y006118D01*
X008312Y005938D01*
X008357Y005893D01*
X008447Y005893D01*
X008492Y005938D01*
X008198Y005938D02*
X008198Y006118D01*
X008153Y006163D01*
X008018Y006163D01*
X008018Y005893D01*
X008153Y005893D01*
X008198Y005938D01*
X009562Y005938D02*
X009607Y005893D01*
X009697Y005893D01*
X009742Y005938D01*
X009742Y006118D02*
X009697Y006163D01*
X009607Y006163D01*
X009562Y006118D01*
X009562Y005938D01*
X009857Y006118D02*
X009947Y006028D01*
X009947Y005893D01*
X009947Y006028D02*
X010037Y006118D01*
X010037Y006163D01*
X010151Y006118D02*
X010196Y006163D01*
X010287Y006163D01*
X010332Y006118D01*
X010332Y006073D01*
X010151Y005893D01*
X010332Y005893D01*
X009857Y006118D02*
X009857Y006163D01*
X003635Y008840D02*
X003455Y008840D01*
X002385Y008840D02*
X002205Y008840D01*
X002134Y008893D02*
X002134Y009073D01*
X002134Y008983D02*
X002224Y009073D01*
X002269Y009073D01*
X002295Y008930D02*
X002295Y008750D01*
X001974Y008893D02*
X001884Y008893D01*
X001839Y008938D01*
X001839Y009028D01*
X001884Y009073D01*
X001974Y009073D01*
X002019Y009028D01*
X002019Y008983D01*
X001839Y008983D01*
X001724Y008938D02*
X001724Y009073D01*
X001724Y008938D02*
X001679Y008893D01*
X001634Y008938D01*
X001589Y008893D01*
X001544Y008938D01*
X001544Y009073D01*
X001430Y009028D02*
X001430Y008938D01*
X001385Y008893D01*
X001295Y008893D01*
X001250Y008938D01*
X001250Y009028D01*
X001295Y009073D01*
X001385Y009073D01*
X001430Y009028D01*
X001135Y009028D02*
X001090Y008983D01*
X000955Y008983D01*
X000955Y008893D02*
X000955Y009163D01*
X001090Y009163D01*
X001135Y009118D01*
X001135Y009028D01*
X001455Y009455D02*
X001635Y009455D01*
X001545Y009455D02*
X001545Y009725D01*
X001455Y009635D01*
X001750Y009545D02*
X001885Y009635D01*
X001995Y009590D02*
X002040Y009545D01*
X002040Y009455D01*
X001995Y009455D01*
X001885Y009455D02*
X001750Y009545D01*
X001750Y009455D02*
X001750Y009725D01*
X001995Y009680D02*
X002040Y009725D01*
X002130Y009725D01*
X002175Y009680D01*
X002175Y009590D01*
X002130Y009545D01*
X002130Y009455D01*
X002175Y009455D01*
X001995Y009590D02*
X001995Y009680D01*
X001840Y010205D02*
X001930Y010295D01*
X001930Y010475D01*
X001750Y010475D02*
X001750Y010295D01*
X001840Y010205D01*
X001635Y010250D02*
X001635Y010340D01*
X001590Y010385D01*
X001545Y010385D01*
X001455Y010340D01*
X001455Y010475D01*
X001635Y010475D01*
X001635Y010250D02*
X001590Y010205D01*
X001500Y010205D01*
X001455Y010250D01*
X002205Y010340D02*
X002385Y010340D01*
X002295Y010430D02*
X002295Y010250D01*
X002322Y010955D02*
X002367Y010955D01*
X002322Y010955D02*
X002322Y011045D01*
X002367Y011090D01*
X002367Y011180D01*
X002322Y011225D01*
X002232Y011225D01*
X002187Y011180D01*
X002187Y011090D01*
X002232Y011045D01*
X002232Y010955D01*
X002187Y010955D01*
X002077Y010955D02*
X001942Y011045D01*
X002077Y011135D01*
X001942Y011225D02*
X001942Y010955D01*
X001827Y011000D02*
X001782Y010955D01*
X001692Y010955D01*
X001647Y011000D01*
X001545Y011000D02*
X001545Y010955D01*
X001500Y010955D01*
X001500Y011000D01*
X001545Y011000D01*
X001385Y011000D02*
X001385Y011045D01*
X001340Y011090D01*
X001295Y011090D01*
X001340Y011090D02*
X001385Y011135D01*
X001385Y011180D01*
X001340Y011225D01*
X001250Y011225D01*
X001205Y011180D01*
X001205Y011000D02*
X001250Y010955D01*
X001340Y010955D01*
X001385Y011000D01*
X001647Y011180D02*
X001692Y011225D01*
X001782Y011225D01*
X001827Y011180D01*
X001827Y011135D01*
X001782Y011090D01*
X001827Y011045D01*
X001827Y011000D01*
X001782Y011090D02*
X001737Y011090D01*
X002295Y011750D02*
X002295Y011930D01*
X002205Y011840D02*
X002385Y011840D01*
X002330Y012268D02*
X002330Y012448D01*
X002420Y012538D01*
X002510Y012448D01*
X002510Y012268D01*
X002625Y012268D02*
X002715Y012268D01*
X002670Y012268D02*
X002670Y012538D01*
X002625Y012538D01*
X002510Y012403D02*
X002330Y012403D01*
X002821Y012403D02*
X002866Y012448D01*
X002956Y012448D01*
X003001Y012403D01*
X003001Y012358D01*
X002821Y012358D01*
X002821Y012313D02*
X002821Y012403D01*
X002821Y012313D02*
X002866Y012268D01*
X002956Y012268D01*
X003116Y012268D02*
X003116Y012448D01*
X003116Y012358D02*
X003206Y012448D01*
X003251Y012448D01*
X003361Y012448D02*
X003451Y012448D01*
X003406Y012493D02*
X003406Y012313D01*
X003451Y012268D01*
X003455Y011840D02*
X003635Y011840D01*
X003635Y010340D02*
X003455Y010340D01*
X002322Y008225D02*
X002367Y008180D01*
X002367Y008090D01*
X002322Y008045D01*
X002322Y007955D01*
X002367Y007955D01*
X002232Y007955D02*
X002232Y008045D01*
X002187Y008090D01*
X002187Y008180D01*
X002232Y008225D01*
X002322Y008225D01*
X002077Y008135D02*
X001942Y008045D01*
X002077Y007955D01*
X002187Y007955D02*
X002232Y007955D01*
X001942Y007955D02*
X001942Y008225D01*
X001827Y008180D02*
X001827Y008135D01*
X001782Y008090D01*
X001827Y008045D01*
X001827Y008000D01*
X001782Y007955D01*
X001692Y007955D01*
X001647Y008000D01*
X001545Y008000D02*
X001545Y007955D01*
X001500Y007955D01*
X001500Y008000D01*
X001545Y008000D01*
X001385Y008000D02*
X001340Y007955D01*
X001250Y007955D01*
X001205Y008000D01*
X001295Y008090D02*
X001340Y008090D01*
X001385Y008045D01*
X001385Y008000D01*
X001340Y008090D02*
X001385Y008135D01*
X001385Y008180D01*
X001340Y008225D01*
X001250Y008225D01*
X001205Y008180D01*
X001647Y008180D02*
X001692Y008225D01*
X001782Y008225D01*
X001827Y008180D01*
X001782Y008090D02*
X001737Y008090D01*
X003605Y013455D02*
X003705Y013555D01*
X003605Y013655D01*
X003905Y013655D01*
X003905Y013777D02*
X003705Y013977D01*
X003655Y013977D01*
X003605Y013927D01*
X003605Y013827D01*
X003655Y013777D01*
X003905Y013777D02*
X003905Y013977D01*
X003855Y014100D02*
X003655Y014300D01*
X003855Y014300D01*
X003905Y014250D01*
X003905Y014150D01*
X003855Y014100D01*
X003655Y014100D01*
X003605Y014150D01*
X003605Y014250D01*
X003655Y014300D01*
X003605Y014422D02*
X003755Y014422D01*
X003705Y014522D01*
X003705Y014572D01*
X003755Y014622D01*
X003855Y014622D01*
X003905Y014572D01*
X003905Y014472D01*
X003855Y014422D01*
X003605Y014422D02*
X003605Y014622D01*
X003605Y015066D02*
X003605Y015267D01*
X003705Y015389D02*
X003855Y015389D01*
X003905Y015439D01*
X003905Y015589D01*
X003705Y015589D01*
X003755Y015711D02*
X003705Y015761D01*
X003705Y015911D01*
X003805Y015861D02*
X003805Y015761D01*
X003755Y015711D01*
X003905Y015711D02*
X003905Y015861D01*
X003855Y015911D01*
X003805Y015861D01*
X003805Y016033D02*
X003805Y016233D01*
X003755Y016233D01*
X003705Y016183D01*
X003705Y016083D01*
X003755Y016033D01*
X003855Y016033D01*
X003905Y016083D01*
X003905Y016183D01*
X003755Y015166D02*
X003755Y015066D01*
X003905Y015066D02*
X003605Y015066D01*
X003605Y013455D02*
X003905Y013455D01*
X009545Y017080D02*
X009545Y017350D01*
X009455Y017350D02*
X009635Y017350D01*
X009750Y017350D02*
X009750Y017080D01*
X009750Y017215D02*
X009930Y017215D01*
X010044Y017215D02*
X010179Y017215D01*
X010224Y017170D01*
X010224Y017125D01*
X010179Y017080D01*
X010044Y017080D01*
X010044Y017350D01*
X010179Y017350D01*
X010224Y017305D01*
X010224Y017260D01*
X010179Y017215D01*
X010339Y017215D02*
X010429Y017305D01*
X010519Y017350D01*
X010634Y017305D02*
X010634Y017125D01*
X010814Y017305D01*
X010814Y017125D01*
X010769Y017080D01*
X010679Y017080D01*
X010634Y017125D01*
X010519Y017125D02*
X010519Y017170D01*
X010474Y017215D01*
X010339Y017215D01*
X010339Y017125D01*
X010384Y017080D01*
X010474Y017080D01*
X010519Y017125D01*
X010634Y017305D02*
X010679Y017350D01*
X010769Y017350D01*
X010814Y017305D01*
X010928Y017215D02*
X011063Y017215D01*
X011108Y017170D01*
X011108Y017125D01*
X011063Y017080D01*
X010973Y017080D01*
X010928Y017125D01*
X010928Y017215D01*
X011018Y017305D01*
X011108Y017350D01*
X011223Y017215D02*
X011403Y017215D01*
X011358Y017080D02*
X011358Y017350D01*
X011223Y017215D01*
X009930Y017350D02*
X009930Y017080D01*
D12*
X012930Y002430D02*
X013430Y002430D01*
X013430Y002180D01*
X013680Y002180D01*
X013430Y002180D02*
X013180Y002180D01*
X013305Y001930D02*
X013555Y001930D01*
X013493Y001680D02*
X013368Y001680D01*
D13*
X002750Y001720D02*
X002470Y001720D01*
X002610Y001720D02*
X002610Y002140D01*
X002470Y002000D01*
X002930Y002070D02*
X003000Y002140D01*
X003141Y002140D01*
X003211Y002070D01*
X003211Y002000D01*
X002930Y001720D01*
X003211Y001720D01*
X003391Y001930D02*
X003671Y001930D01*
X003851Y001790D02*
X003921Y001720D01*
X004061Y001720D01*
X004131Y001790D01*
X004131Y001860D01*
X004061Y001930D01*
X003991Y001930D01*
X004061Y001930D02*
X004131Y002000D01*
X004131Y002070D01*
X004061Y002140D01*
X003921Y002140D01*
X003851Y002070D01*
X004312Y002070D02*
X004312Y001790D01*
X004592Y002070D01*
X004592Y001790D01*
X004522Y001720D01*
X004382Y001720D01*
X004312Y001790D01*
X004312Y002070D02*
X004382Y002140D01*
X004522Y002140D01*
X004592Y002070D01*
X005232Y002140D02*
X005232Y001860D01*
X005372Y001720D01*
X005513Y001860D01*
X005513Y002140D01*
X002550Y006180D02*
X002552Y006230D01*
X002558Y006280D01*
X002568Y006329D01*
X002582Y006377D01*
X002599Y006424D01*
X002620Y006469D01*
X002645Y006513D01*
X002673Y006554D01*
X002705Y006593D01*
X002739Y006630D01*
X002776Y006664D01*
X002816Y006694D01*
X002858Y006721D01*
X002902Y006745D01*
X002948Y006766D01*
X002995Y006782D01*
X003043Y006795D01*
X003093Y006804D01*
X003142Y006809D01*
X003193Y006810D01*
X003243Y006807D01*
X003292Y006800D01*
X003341Y006789D01*
X003389Y006774D01*
X003435Y006756D01*
X003480Y006734D01*
X003523Y006708D01*
X003564Y006679D01*
X003603Y006647D01*
X003639Y006612D01*
X003671Y006574D01*
X003701Y006534D01*
X003728Y006491D01*
X003751Y006447D01*
X003770Y006401D01*
X003786Y006353D01*
X003798Y006304D01*
X003806Y006255D01*
X003810Y006205D01*
X003810Y006155D01*
X003806Y006105D01*
X003798Y006056D01*
X003786Y006007D01*
X003770Y005959D01*
X003751Y005913D01*
X003728Y005869D01*
X003701Y005826D01*
X003671Y005786D01*
X003639Y005748D01*
X003603Y005713D01*
X003564Y005681D01*
X003523Y005652D01*
X003480Y005626D01*
X003435Y005604D01*
X003389Y005586D01*
X003341Y005571D01*
X003292Y005560D01*
X003243Y005553D01*
X003193Y005550D01*
X003142Y005551D01*
X003093Y005556D01*
X003043Y005565D01*
X002995Y005578D01*
X002948Y005594D01*
X002902Y005615D01*
X002858Y005639D01*
X002816Y005666D01*
X002776Y005696D01*
X002739Y005730D01*
X002705Y005767D01*
X002673Y005806D01*
X002645Y005847D01*
X002620Y005891D01*
X002599Y005936D01*
X002582Y005983D01*
X002568Y006031D01*
X002558Y006080D01*
X002552Y006130D01*
X002550Y006180D01*
X004160Y008443D02*
X006700Y008443D01*
X006700Y010843D01*
X004160Y010843D01*
X004160Y010813D02*
X004160Y008443D01*
X004160Y014017D02*
X006700Y014017D01*
X006700Y014047D02*
X006700Y016417D01*
X004160Y016417D01*
X004160Y014017D01*
X008720Y014970D02*
X009000Y014970D01*
X008860Y014970D02*
X008860Y015390D01*
X008720Y015250D01*
X020800Y006180D02*
X020802Y006230D01*
X020808Y006280D01*
X020818Y006329D01*
X020832Y006377D01*
X020849Y006424D01*
X020870Y006469D01*
X020895Y006513D01*
X020923Y006554D01*
X020955Y006593D01*
X020989Y006630D01*
X021026Y006664D01*
X021066Y006694D01*
X021108Y006721D01*
X021152Y006745D01*
X021198Y006766D01*
X021245Y006782D01*
X021293Y006795D01*
X021343Y006804D01*
X021392Y006809D01*
X021443Y006810D01*
X021493Y006807D01*
X021542Y006800D01*
X021591Y006789D01*
X021639Y006774D01*
X021685Y006756D01*
X021730Y006734D01*
X021773Y006708D01*
X021814Y006679D01*
X021853Y006647D01*
X021889Y006612D01*
X021921Y006574D01*
X021951Y006534D01*
X021978Y006491D01*
X022001Y006447D01*
X022020Y006401D01*
X022036Y006353D01*
X022048Y006304D01*
X022056Y006255D01*
X022060Y006205D01*
X022060Y006155D01*
X022056Y006105D01*
X022048Y006056D01*
X022036Y006007D01*
X022020Y005959D01*
X022001Y005913D01*
X021978Y005869D01*
X021951Y005826D01*
X021921Y005786D01*
X021889Y005748D01*
X021853Y005713D01*
X021814Y005681D01*
X021773Y005652D01*
X021730Y005626D01*
X021685Y005604D01*
X021639Y005586D01*
X021591Y005571D01*
X021542Y005560D01*
X021493Y005553D01*
X021443Y005550D01*
X021392Y005551D01*
X021343Y005556D01*
X021293Y005565D01*
X021245Y005578D01*
X021198Y005594D01*
X021152Y005615D01*
X021108Y005639D01*
X021066Y005666D01*
X021026Y005696D01*
X020989Y005730D01*
X020955Y005767D01*
X020923Y005806D01*
X020895Y005847D01*
X020870Y005891D01*
X020849Y005936D01*
X020832Y005983D01*
X020818Y006031D01*
X020808Y006080D01*
X020802Y006130D01*
X020800Y006180D01*
D14*
X003000Y008760D02*
X003000Y008930D01*
X002860Y008780D01*
X002860Y009080D01*
X003001Y008930D01*
X003000Y008930D02*
X003000Y009100D01*
X003000Y010260D02*
X003000Y010430D01*
X002860Y010280D01*
X002860Y010580D01*
X003001Y010430D01*
X003000Y010430D02*
X003000Y010600D01*
X003000Y011760D02*
X003000Y011930D01*
X002860Y011780D01*
X002860Y012080D01*
X003001Y011930D01*
X003000Y011930D02*
X003000Y012100D01*
D15*
X002980Y011280D02*
X002880Y011280D01*
X002880Y011080D02*
X002980Y011080D01*
X002980Y009780D02*
X002880Y009780D01*
X002880Y009580D02*
X002980Y009580D01*
X002980Y008280D02*
X002880Y008280D01*
X002880Y008080D02*
X002980Y008080D01*
X007830Y008880D02*
X007830Y008980D01*
X008030Y008980D02*
X008030Y008880D01*
X010630Y004530D02*
X010730Y004530D01*
X010730Y004330D02*
X010630Y004330D01*
X010530Y003480D02*
X010530Y003380D01*
X010330Y003380D02*
X010330Y003480D01*
X021330Y012380D02*
X021330Y012480D01*
X021530Y012480D02*
X021530Y012380D01*
X022330Y012380D02*
X022330Y012480D01*
X022530Y012480D02*
X022530Y012380D01*
X023080Y012380D02*
X023080Y012480D01*
X023280Y012480D02*
X023280Y012380D01*
X008730Y013580D02*
X008630Y013580D01*
X008630Y013780D02*
X008730Y013780D01*
D16*
X007480Y012030D02*
X007480Y011730D01*
X007330Y011880D02*
X007630Y011880D01*
X007080Y011430D02*
X007082Y011510D01*
X007088Y011589D01*
X007098Y011668D01*
X007112Y011747D01*
X007129Y011825D01*
X007151Y011902D01*
X007176Y011977D01*
X007206Y012051D01*
X007238Y012124D01*
X007275Y012195D01*
X007315Y012264D01*
X007358Y012331D01*
X007405Y012396D01*
X007454Y012458D01*
X007507Y012518D01*
X007563Y012575D01*
X007621Y012630D01*
X007682Y012681D01*
X007746Y012729D01*
X007812Y012774D01*
X007880Y012816D01*
X007950Y012854D01*
X008022Y012888D01*
X008095Y012919D01*
X008170Y012947D01*
X008247Y012970D01*
X008324Y012990D01*
X008402Y013006D01*
X008481Y013018D01*
X008560Y013026D01*
X008640Y013030D01*
X008720Y013030D01*
X008800Y013026D01*
X008879Y013018D01*
X008958Y013006D01*
X009036Y012990D01*
X009113Y012970D01*
X009190Y012947D01*
X009265Y012919D01*
X009338Y012888D01*
X009410Y012854D01*
X009480Y012816D01*
X009548Y012774D01*
X009614Y012729D01*
X009678Y012681D01*
X009739Y012630D01*
X009797Y012575D01*
X009853Y012518D01*
X009906Y012458D01*
X009955Y012396D01*
X010002Y012331D01*
X010045Y012264D01*
X010085Y012195D01*
X010122Y012124D01*
X010154Y012051D01*
X010184Y011977D01*
X010209Y011902D01*
X010231Y011825D01*
X010248Y011747D01*
X010262Y011668D01*
X010272Y011589D01*
X010278Y011510D01*
X010280Y011430D01*
X010278Y011350D01*
X010272Y011271D01*
X010262Y011192D01*
X010248Y011113D01*
X010231Y011035D01*
X010209Y010958D01*
X010184Y010883D01*
X010154Y010809D01*
X010122Y010736D01*
X010085Y010665D01*
X010045Y010596D01*
X010002Y010529D01*
X009955Y010464D01*
X009906Y010402D01*
X009853Y010342D01*
X009797Y010285D01*
X009739Y010230D01*
X009678Y010179D01*
X009614Y010131D01*
X009548Y010086D01*
X009480Y010044D01*
X009410Y010006D01*
X009338Y009972D01*
X009265Y009941D01*
X009190Y009913D01*
X009113Y009890D01*
X009036Y009870D01*
X008958Y009854D01*
X008879Y009842D01*
X008800Y009834D01*
X008720Y009830D01*
X008640Y009830D01*
X008560Y009834D01*
X008481Y009842D01*
X008402Y009854D01*
X008324Y009870D01*
X008247Y009890D01*
X008170Y009913D01*
X008095Y009941D01*
X008022Y009972D01*
X007950Y010006D01*
X007880Y010044D01*
X007812Y010086D01*
X007746Y010131D01*
X007682Y010179D01*
X007621Y010230D01*
X007563Y010285D01*
X007507Y010342D01*
X007454Y010402D01*
X007405Y010464D01*
X007358Y010529D01*
X007315Y010596D01*
X007275Y010665D01*
X007238Y010736D01*
X007206Y010809D01*
X007176Y010883D01*
X007151Y010958D01*
X007129Y011035D01*
X007112Y011113D01*
X007098Y011192D01*
X007088Y011271D01*
X007082Y011350D01*
X007080Y011430D01*
X010530Y009480D02*
X010530Y008380D01*
X010532Y008363D01*
X010536Y008346D01*
X010543Y008330D01*
X010553Y008316D01*
X010566Y008303D01*
X010580Y008293D01*
X010596Y008286D01*
X010613Y008282D01*
X010630Y008280D01*
X011230Y008280D01*
X011247Y008282D01*
X011264Y008286D01*
X011280Y008293D01*
X011294Y008303D01*
X011307Y008316D01*
X011317Y008330D01*
X011324Y008346D01*
X011328Y008363D01*
X011330Y008380D01*
X011330Y009480D01*
X011328Y009497D01*
X011324Y009514D01*
X011317Y009530D01*
X011307Y009544D01*
X011294Y009557D01*
X011280Y009567D01*
X011264Y009574D01*
X011247Y009578D01*
X011230Y009580D01*
X010630Y009580D01*
X010613Y009578D01*
X010596Y009574D01*
X010580Y009567D01*
X010566Y009557D01*
X010553Y009544D01*
X010543Y009530D01*
X010536Y009514D01*
X010532Y009497D01*
X010530Y009480D01*
X011530Y009480D02*
X011530Y008380D01*
X011532Y008363D01*
X011536Y008346D01*
X011543Y008330D01*
X011553Y008316D01*
X011566Y008303D01*
X011580Y008293D01*
X011596Y008286D01*
X011613Y008282D01*
X011630Y008280D01*
X012230Y008280D01*
X012247Y008282D01*
X012264Y008286D01*
X012280Y008293D01*
X012294Y008303D01*
X012307Y008316D01*
X012317Y008330D01*
X012324Y008346D01*
X012328Y008363D01*
X012330Y008380D01*
X012330Y009480D01*
X012328Y009497D01*
X012324Y009514D01*
X012317Y009530D01*
X012307Y009544D01*
X012294Y009557D01*
X012280Y009567D01*
X012264Y009574D01*
X012247Y009578D01*
X012230Y009580D01*
X011630Y009580D01*
X011613Y009578D01*
X011596Y009574D01*
X011580Y009567D01*
X011566Y009557D01*
X011553Y009544D01*
X011543Y009530D01*
X011536Y009514D01*
X011532Y009497D01*
X011530Y009480D01*
X012530Y009480D02*
X012530Y008380D01*
X012532Y008363D01*
X012536Y008346D01*
X012543Y008330D01*
X012553Y008316D01*
X012566Y008303D01*
X012580Y008293D01*
X012596Y008286D01*
X012613Y008282D01*
X012630Y008280D01*
X013230Y008280D01*
X013247Y008282D01*
X013264Y008286D01*
X013280Y008293D01*
X013294Y008303D01*
X013307Y008316D01*
X013317Y008330D01*
X013324Y008346D01*
X013328Y008363D01*
X013330Y008380D01*
X013330Y009480D01*
X013328Y009497D01*
X013324Y009514D01*
X013317Y009530D01*
X013307Y009544D01*
X013294Y009557D01*
X013280Y009567D01*
X013264Y009574D01*
X013247Y009578D01*
X013230Y009580D01*
X012630Y009580D01*
X012613Y009578D01*
X012596Y009574D01*
X012580Y009567D01*
X012566Y009557D01*
X012553Y009544D01*
X012543Y009530D01*
X012536Y009514D01*
X012532Y009497D01*
X012530Y009480D01*
X013230Y007830D02*
X010630Y007830D01*
X010530Y007730D01*
X010530Y005130D01*
X010630Y005030D01*
X013230Y005030D01*
X013330Y005130D01*
X013330Y007730D01*
X013230Y007830D01*
X010080Y007480D02*
X010080Y006380D01*
X010078Y006363D01*
X010074Y006346D01*
X010067Y006330D01*
X010057Y006316D01*
X010044Y006303D01*
X010030Y006293D01*
X010014Y006286D01*
X009997Y006282D01*
X009980Y006280D01*
X009380Y006280D01*
X009363Y006282D01*
X009346Y006286D01*
X009330Y006293D01*
X009316Y006303D01*
X009303Y006316D01*
X009293Y006330D01*
X009286Y006346D01*
X009282Y006363D01*
X009280Y006380D01*
X009280Y007480D01*
X009282Y007497D01*
X009286Y007514D01*
X009293Y007530D01*
X009303Y007544D01*
X009316Y007557D01*
X009330Y007567D01*
X009346Y007574D01*
X009363Y007578D01*
X009380Y007580D01*
X009980Y007580D01*
X009997Y007578D01*
X010014Y007574D01*
X010030Y007567D01*
X010044Y007557D01*
X010057Y007544D01*
X010067Y007530D01*
X010074Y007514D01*
X010078Y007497D01*
X010080Y007480D01*
X009080Y007480D02*
X009080Y006380D01*
X009078Y006363D01*
X009074Y006346D01*
X009067Y006330D01*
X009057Y006316D01*
X009044Y006303D01*
X009030Y006293D01*
X009014Y006286D01*
X008997Y006282D01*
X008980Y006280D01*
X008380Y006280D01*
X008363Y006282D01*
X008346Y006286D01*
X008330Y006293D01*
X008316Y006303D01*
X008303Y006316D01*
X008293Y006330D01*
X008286Y006346D01*
X008282Y006363D01*
X008280Y006380D01*
X008280Y007480D01*
X008282Y007497D01*
X008286Y007514D01*
X008293Y007530D01*
X008303Y007544D01*
X008316Y007557D01*
X008330Y007567D01*
X008346Y007574D01*
X008363Y007578D01*
X008380Y007580D01*
X008980Y007580D01*
X008997Y007578D01*
X009014Y007574D01*
X009030Y007567D01*
X009044Y007557D01*
X009057Y007544D01*
X009067Y007530D01*
X009074Y007514D01*
X009078Y007497D01*
X009080Y007480D01*
X009930Y005680D02*
X009930Y001680D01*
X005930Y001680D01*
X005930Y005680D01*
X009930Y005680D01*
X011180Y002930D02*
X010930Y002680D01*
X010930Y002180D01*
X011180Y001930D01*
X011680Y001930D01*
X011930Y002180D01*
X012180Y001930D01*
X012680Y001930D01*
X012930Y002180D01*
X012930Y002680D01*
X012680Y002930D01*
X012180Y002930D01*
X011930Y002680D01*
X011680Y002930D01*
X011180Y002930D01*
X001830Y006180D02*
X001832Y006253D01*
X001838Y006326D01*
X001848Y006398D01*
X001862Y006470D01*
X001879Y006541D01*
X001901Y006611D01*
X001926Y006680D01*
X001955Y006747D01*
X001987Y006812D01*
X002023Y006876D01*
X002063Y006938D01*
X002105Y006997D01*
X002151Y007054D01*
X002200Y007108D01*
X002252Y007160D01*
X002306Y007209D01*
X002363Y007255D01*
X002422Y007297D01*
X002484Y007337D01*
X002548Y007373D01*
X002613Y007405D01*
X002680Y007434D01*
X002749Y007459D01*
X002819Y007481D01*
X002890Y007498D01*
X002962Y007512D01*
X003034Y007522D01*
X003107Y007528D01*
X003180Y007530D01*
X003253Y007528D01*
X003326Y007522D01*
X003398Y007512D01*
X003470Y007498D01*
X003541Y007481D01*
X003611Y007459D01*
X003680Y007434D01*
X003747Y007405D01*
X003812Y007373D01*
X003876Y007337D01*
X003938Y007297D01*
X003997Y007255D01*
X004054Y007209D01*
X004108Y007160D01*
X004160Y007108D01*
X004209Y007054D01*
X004255Y006997D01*
X004297Y006938D01*
X004337Y006876D01*
X004373Y006812D01*
X004405Y006747D01*
X004434Y006680D01*
X004459Y006611D01*
X004481Y006541D01*
X004498Y006470D01*
X004512Y006398D01*
X004522Y006326D01*
X004528Y006253D01*
X004530Y006180D01*
X004528Y006107D01*
X004522Y006034D01*
X004512Y005962D01*
X004498Y005890D01*
X004481Y005819D01*
X004459Y005749D01*
X004434Y005680D01*
X004405Y005613D01*
X004373Y005548D01*
X004337Y005484D01*
X004297Y005422D01*
X004255Y005363D01*
X004209Y005306D01*
X004160Y005252D01*
X004108Y005200D01*
X004054Y005151D01*
X003997Y005105D01*
X003938Y005063D01*
X003876Y005023D01*
X003812Y004987D01*
X003747Y004955D01*
X003680Y004926D01*
X003611Y004901D01*
X003541Y004879D01*
X003470Y004862D01*
X003398Y004848D01*
X003326Y004838D01*
X003253Y004832D01*
X003180Y004830D01*
X003107Y004832D01*
X003034Y004838D01*
X002962Y004848D01*
X002890Y004862D01*
X002819Y004879D01*
X002749Y004901D01*
X002680Y004926D01*
X002613Y004955D01*
X002548Y004987D01*
X002484Y005023D01*
X002422Y005063D01*
X002363Y005105D01*
X002306Y005151D01*
X002252Y005200D01*
X002200Y005252D01*
X002151Y005306D01*
X002105Y005363D01*
X002063Y005422D01*
X002023Y005484D01*
X001987Y005548D01*
X001955Y005613D01*
X001926Y005680D01*
X001901Y005749D01*
X001879Y005819D01*
X001862Y005890D01*
X001848Y005962D01*
X001838Y006034D01*
X001832Y006107D01*
X001830Y006180D01*
X020080Y006180D02*
X020082Y006253D01*
X020088Y006326D01*
X020098Y006398D01*
X020112Y006470D01*
X020129Y006541D01*
X020151Y006611D01*
X020176Y006680D01*
X020205Y006747D01*
X020237Y006812D01*
X020273Y006876D01*
X020313Y006938D01*
X020355Y006997D01*
X020401Y007054D01*
X020450Y007108D01*
X020502Y007160D01*
X020556Y007209D01*
X020613Y007255D01*
X020672Y007297D01*
X020734Y007337D01*
X020798Y007373D01*
X020863Y007405D01*
X020930Y007434D01*
X020999Y007459D01*
X021069Y007481D01*
X021140Y007498D01*
X021212Y007512D01*
X021284Y007522D01*
X021357Y007528D01*
X021430Y007530D01*
X021503Y007528D01*
X021576Y007522D01*
X021648Y007512D01*
X021720Y007498D01*
X021791Y007481D01*
X021861Y007459D01*
X021930Y007434D01*
X021997Y007405D01*
X022062Y007373D01*
X022126Y007337D01*
X022188Y007297D01*
X022247Y007255D01*
X022304Y007209D01*
X022358Y007160D01*
X022410Y007108D01*
X022459Y007054D01*
X022505Y006997D01*
X022547Y006938D01*
X022587Y006876D01*
X022623Y006812D01*
X022655Y006747D01*
X022684Y006680D01*
X022709Y006611D01*
X022731Y006541D01*
X022748Y006470D01*
X022762Y006398D01*
X022772Y006326D01*
X022778Y006253D01*
X022780Y006180D01*
X022778Y006107D01*
X022772Y006034D01*
X022762Y005962D01*
X022748Y005890D01*
X022731Y005819D01*
X022709Y005749D01*
X022684Y005680D01*
X022655Y005613D01*
X022623Y005548D01*
X022587Y005484D01*
X022547Y005422D01*
X022505Y005363D01*
X022459Y005306D01*
X022410Y005252D01*
X022358Y005200D01*
X022304Y005151D01*
X022247Y005105D01*
X022188Y005063D01*
X022126Y005023D01*
X022062Y004987D01*
X021997Y004955D01*
X021930Y004926D01*
X021861Y004901D01*
X021791Y004879D01*
X021720Y004862D01*
X021648Y004848D01*
X021576Y004838D01*
X021503Y004832D01*
X021430Y004830D01*
X021357Y004832D01*
X021284Y004838D01*
X021212Y004848D01*
X021140Y004862D01*
X021069Y004879D01*
X020999Y004901D01*
X020930Y004926D01*
X020863Y004955D01*
X020798Y004987D01*
X020734Y005023D01*
X020672Y005063D01*
X020613Y005105D01*
X020556Y005151D01*
X020502Y005200D01*
X020450Y005252D01*
X020401Y005306D01*
X020355Y005363D01*
X020313Y005422D01*
X020273Y005484D01*
X020237Y005548D01*
X020205Y005613D01*
X020176Y005680D01*
X020151Y005749D01*
X020129Y005819D01*
X020112Y005890D01*
X020098Y005962D01*
X020088Y006034D01*
X020082Y006107D01*
X020080Y006180D01*
M02*
