G75*
G70*
%OFA0B0*%
%FSLAX24Y24*%
%IPPOS*%
%LPD*%
%AMOC8*
5,1,8,0,0,1.08239X$1,22.5*
%
%ADD10C,0.0500*%
%ADD11C,0.0860*%
%ADD12OC8,0.0480*%
%ADD13OC8,0.0630*%
%ADD14C,0.0630*%
%ADD15C,0.0760*%
%ADD16C,0.1400*%
%ADD17C,0.1300*%
%ADD18C,0.0160*%
%ADD19C,0.0436*%
%ADD20C,0.0560*%
%ADD21C,0.0760*%
%ADD22C,0.0240*%
%ADD23C,0.0400*%
D10*
X017430Y002930D02*
X017430Y011680D01*
X017430Y013180D01*
X016930Y014430D02*
X016930Y014930D01*
X016430Y015680D02*
X016430Y016180D01*
X015430Y016180D02*
X015430Y015680D01*
X014930Y014930D02*
X014930Y014430D01*
X013930Y014430D02*
X013930Y014930D01*
X013430Y015680D02*
X013430Y016180D01*
X012930Y016930D02*
X018930Y016930D01*
X019430Y016430D01*
X019430Y015680D01*
X019430Y016180D01*
X018430Y016180D02*
X018430Y015680D01*
X017930Y014930D02*
X017930Y014430D01*
X018930Y014430D02*
X018930Y014930D01*
X019930Y014930D02*
X019930Y014430D01*
X020930Y014430D02*
X020930Y014930D01*
X020430Y015680D02*
X020430Y016180D01*
X021430Y016180D02*
X021430Y015680D01*
X021930Y014930D02*
X021930Y014430D01*
X017430Y015680D02*
X017430Y016180D01*
X015930Y014930D02*
X015930Y014430D01*
X014430Y015680D02*
X014430Y016180D01*
X012930Y016930D02*
X012430Y016430D01*
X012430Y015680D01*
X012430Y016180D01*
X011430Y016180D02*
X011430Y015680D01*
X010930Y014930D02*
X010930Y014430D01*
X009930Y014430D02*
X009930Y014930D01*
X010430Y015680D02*
X010430Y016180D01*
X011930Y014930D02*
X011930Y014430D01*
X012930Y014430D02*
X012930Y014930D01*
D11*
X014430Y002930D03*
X015430Y002930D03*
X016430Y002930D03*
X017430Y002930D03*
X019430Y002930D03*
X020430Y002930D03*
X021430Y002930D03*
X022430Y002930D03*
D12*
X012920Y006430D03*
X011930Y007430D03*
X010940Y006430D03*
D13*
X009380Y011430D03*
D14*
X007980Y011430D03*
D15*
X011430Y002430D03*
X012430Y002430D03*
D16*
X005430Y008493D03*
X005430Y010793D03*
X005430Y014067D03*
X005430Y016367D03*
D17*
X006930Y003680D03*
X008930Y003680D03*
D18*
X001464Y001464D02*
X001224Y001765D01*
X001057Y002112D01*
X000971Y002487D01*
X000960Y002680D01*
X000960Y015680D01*
X000971Y015873D01*
X001057Y016248D01*
X001224Y016595D01*
X001464Y016896D01*
X001765Y017136D01*
X002112Y017303D01*
X002487Y017389D01*
X002680Y017400D01*
X008523Y017400D01*
X008173Y017050D01*
X006076Y017050D01*
X005962Y017164D01*
X005617Y017307D01*
X005243Y017307D01*
X004898Y017164D01*
X004633Y016899D01*
X004490Y016554D01*
X004490Y016180D01*
X004633Y015835D01*
X004810Y015658D01*
X004810Y014776D01*
X004633Y014599D01*
X004490Y014254D01*
X004490Y013880D01*
X004633Y013535D01*
X004898Y013270D01*
X005243Y013127D01*
X005617Y013127D01*
X005962Y013270D01*
X006227Y013535D01*
X006370Y013880D01*
X006370Y014254D01*
X006227Y014599D01*
X006050Y014776D01*
X006050Y015658D01*
X006202Y015810D01*
X008553Y015810D01*
X008781Y015904D01*
X009287Y016410D01*
X010995Y016410D01*
X010940Y016277D01*
X010940Y015583D01*
X011007Y015420D01*
X010833Y015420D01*
X010652Y015345D01*
X010515Y015208D01*
X010440Y015027D01*
X010440Y014333D01*
X010515Y014152D01*
X010570Y014097D01*
X010570Y011579D01*
X008476Y009485D01*
X008375Y009384D01*
X008320Y009252D01*
X008320Y008218D01*
X008305Y008203D01*
X008189Y008318D01*
X008021Y008388D01*
X007839Y008388D01*
X007671Y008318D01*
X007542Y008189D01*
X007472Y008021D01*
X007472Y007839D01*
X007542Y007671D01*
X007671Y007542D01*
X007839Y007472D01*
X007879Y007472D01*
X009226Y006125D01*
X009358Y006070D01*
X010621Y006070D01*
X010741Y005950D01*
X011139Y005950D01*
X011420Y006231D01*
X011420Y006629D01*
X011139Y006910D01*
X010741Y006910D01*
X010621Y006790D01*
X009579Y006790D01*
X008860Y007509D01*
X008939Y007542D01*
X009068Y007671D01*
X009138Y007839D01*
X009138Y008021D01*
X009068Y008189D01*
X009040Y008218D01*
X009040Y009031D01*
X009362Y009353D01*
X009320Y009252D01*
X009320Y008218D01*
X009292Y008189D01*
X009222Y008021D01*
X009222Y007839D01*
X009292Y007671D01*
X009421Y007542D01*
X009589Y007472D01*
X009771Y007472D01*
X009939Y007542D01*
X010068Y007671D01*
X010138Y007839D01*
X010138Y008021D01*
X010068Y008189D01*
X010040Y008218D01*
X010040Y009031D01*
X011570Y010561D01*
X011570Y007749D01*
X011450Y007629D01*
X011450Y007231D01*
X011731Y006950D01*
X012129Y006950D01*
X012410Y007231D01*
X012410Y007629D01*
X012290Y007749D01*
X012290Y009992D01*
X012339Y009972D01*
X012521Y009972D01*
X012689Y010042D01*
X012818Y010171D01*
X012888Y010339D01*
X012888Y010379D01*
X012972Y010463D01*
X012972Y010339D01*
X013042Y010171D01*
X013171Y010042D01*
X013339Y009972D01*
X013521Y009972D01*
X013689Y010042D01*
X013818Y010171D01*
X013888Y010339D01*
X013888Y010521D01*
X013818Y010689D01*
X013790Y010718D01*
X013790Y013281D01*
X014070Y013561D01*
X014070Y013555D01*
X013989Y013475D01*
X013910Y013283D01*
X013910Y008331D01*
X013771Y008388D01*
X013589Y008388D01*
X013421Y008318D01*
X013292Y008189D01*
X013222Y008021D01*
X013222Y007839D01*
X013292Y007671D01*
X013320Y007642D01*
X013320Y006709D01*
X013119Y006910D01*
X012721Y006910D01*
X012440Y006629D01*
X012440Y006231D01*
X012721Y005950D01*
X013119Y005950D01*
X013320Y006151D01*
X013320Y004661D01*
X013308Y004689D01*
X013179Y004818D01*
X013011Y004888D01*
X012829Y004888D01*
X012661Y004818D01*
X012632Y004790D01*
X011968Y004790D01*
X011939Y004818D01*
X011771Y004888D01*
X011589Y004888D01*
X011421Y004818D01*
X011292Y004689D01*
X011222Y004521D01*
X011222Y004339D01*
X011292Y004171D01*
X011421Y004042D01*
X011589Y003972D01*
X011771Y003972D01*
X011939Y004042D01*
X011968Y004070D01*
X012632Y004070D01*
X012661Y004042D01*
X012829Y003972D01*
X013011Y003972D01*
X013179Y004042D01*
X013308Y004171D01*
X013320Y004199D01*
X013320Y002358D01*
X013375Y002226D01*
X013875Y001726D01*
X013976Y001625D01*
X014108Y001570D01*
X018502Y001570D01*
X018634Y001625D01*
X019277Y002268D01*
X019297Y002260D01*
X019563Y002260D01*
X019810Y002362D01*
X019987Y002539D01*
X020046Y002480D01*
X020121Y002425D01*
X020204Y002383D01*
X020292Y002355D01*
X020384Y002340D01*
X020402Y002340D01*
X020402Y002902D01*
X020458Y002902D01*
X020458Y002340D01*
X020476Y002340D01*
X020568Y002355D01*
X020656Y002383D01*
X020739Y002425D01*
X020814Y002480D01*
X020873Y002539D01*
X021050Y002362D01*
X021297Y002260D01*
X021563Y002260D01*
X021810Y002362D01*
X021930Y002482D01*
X022050Y002362D01*
X022297Y002260D01*
X022563Y002260D01*
X022810Y002362D01*
X022998Y002550D01*
X023100Y002797D01*
X023100Y003063D01*
X022998Y003310D01*
X022810Y003498D01*
X022563Y003600D01*
X022297Y003600D01*
X022277Y003592D01*
X021510Y004359D01*
X021692Y004359D01*
X022194Y004506D01*
X022194Y004506D01*
X022635Y004789D01*
X022635Y004789D01*
X022635Y004789D01*
X022978Y005185D01*
X022978Y005185D01*
X023195Y005662D01*
X023270Y006180D01*
X023195Y006698D01*
X022978Y007175D01*
X022635Y007571D01*
X022194Y007854D01*
X021692Y008001D01*
X021168Y008001D01*
X020666Y007854D01*
X020666Y007854D01*
X020225Y007571D01*
X020225Y007571D01*
X020225Y007571D01*
X019882Y007175D01*
X019665Y006698D01*
X019590Y006180D01*
X019665Y005662D01*
X019882Y005185D01*
X020225Y004789D01*
X020225Y004789D01*
X020613Y004540D01*
X020079Y004540D01*
X019540Y005079D01*
X019540Y011781D01*
X020735Y012976D01*
X020790Y013108D01*
X020790Y013958D01*
X020833Y013940D01*
X021027Y013940D01*
X021208Y014015D01*
X021345Y014152D01*
X021420Y014333D01*
X021420Y015027D01*
X021353Y015190D01*
X021507Y015190D01*
X021440Y015027D01*
X021440Y014333D01*
X021515Y014152D01*
X021652Y014015D01*
X021833Y013940D01*
X022027Y013940D01*
X022208Y014015D01*
X022345Y014152D01*
X022420Y014333D01*
X022420Y015027D01*
X022345Y015208D01*
X022208Y015345D01*
X022027Y015420D01*
X021853Y015420D01*
X021920Y015583D01*
X021920Y016277D01*
X021845Y016458D01*
X021708Y016595D01*
X021527Y016670D01*
X021333Y016670D01*
X021152Y016595D01*
X021015Y016458D01*
X020940Y016277D01*
X020940Y015583D01*
X021007Y015420D01*
X020853Y015420D01*
X020920Y015583D01*
X020920Y016277D01*
X020845Y016458D01*
X020708Y016595D01*
X020527Y016670D01*
X020333Y016670D01*
X020152Y016595D01*
X020015Y016458D01*
X019940Y016277D01*
X019940Y015583D01*
X020007Y015420D01*
X019853Y015420D01*
X019920Y015583D01*
X019920Y016527D01*
X019845Y016708D01*
X019708Y016845D01*
X019208Y017345D01*
X019076Y017400D01*
X021930Y017400D01*
X022123Y017389D01*
X022498Y017303D01*
X022845Y017136D01*
X023146Y016896D01*
X023386Y016595D01*
X023386Y016595D01*
X023553Y016248D01*
X023639Y015873D01*
X023650Y015680D01*
X023650Y002680D01*
X023639Y002487D01*
X023553Y002112D01*
X023386Y001765D01*
X023146Y001464D01*
X022845Y001224D01*
X022498Y001057D01*
X022123Y000971D01*
X021930Y000960D01*
X002680Y000960D01*
X002487Y000971D01*
X002112Y001057D01*
X001765Y001224D01*
X001464Y001464D01*
X001484Y001448D02*
X023126Y001448D01*
X023260Y001607D02*
X018590Y001607D01*
X018774Y001765D02*
X023386Y001765D01*
X023463Y001924D02*
X018933Y001924D01*
X019091Y002082D02*
X023539Y002082D01*
X023583Y002241D02*
X019250Y002241D01*
X019847Y002399D02*
X020173Y002399D01*
X020402Y002399D02*
X020458Y002399D01*
X020458Y002558D02*
X020402Y002558D01*
X020402Y002716D02*
X020458Y002716D01*
X020458Y002875D02*
X020402Y002875D01*
X020687Y002399D02*
X021013Y002399D01*
X021847Y002399D02*
X022013Y002399D01*
X022847Y002399D02*
X023619Y002399D01*
X023643Y002558D02*
X023001Y002558D01*
X023067Y002716D02*
X023650Y002716D01*
X023650Y002875D02*
X023100Y002875D01*
X023100Y003033D02*
X023650Y003033D01*
X023650Y003192D02*
X023047Y003192D01*
X022958Y003350D02*
X023650Y003350D01*
X023650Y003509D02*
X022784Y003509D01*
X022202Y003667D02*
X023650Y003667D01*
X023650Y003826D02*
X022044Y003826D01*
X021885Y003984D02*
X023650Y003984D01*
X023650Y004143D02*
X021727Y004143D01*
X021568Y004301D02*
X023650Y004301D01*
X023650Y004460D02*
X022035Y004460D01*
X022368Y004618D02*
X023650Y004618D01*
X023650Y004777D02*
X022615Y004777D01*
X022761Y004935D02*
X023650Y004935D01*
X023650Y005094D02*
X022898Y005094D01*
X023008Y005252D02*
X023650Y005252D01*
X023650Y005411D02*
X023081Y005411D01*
X023153Y005569D02*
X023650Y005569D01*
X023650Y005728D02*
X023205Y005728D01*
X023195Y005662D02*
X023195Y005662D01*
X023228Y005886D02*
X023650Y005886D01*
X023650Y006045D02*
X023251Y006045D01*
X023267Y006203D02*
X023650Y006203D01*
X023650Y006362D02*
X023244Y006362D01*
X023221Y006520D02*
X023650Y006520D01*
X023650Y006679D02*
X023198Y006679D01*
X023195Y006698D02*
X023195Y006698D01*
X023132Y006837D02*
X023650Y006837D01*
X023650Y006996D02*
X023060Y006996D01*
X022987Y007154D02*
X023650Y007154D01*
X023650Y007313D02*
X022859Y007313D01*
X022978Y007175D02*
X022978Y007175D01*
X022721Y007471D02*
X023650Y007471D01*
X023650Y007630D02*
X022543Y007630D01*
X022635Y007571D02*
X022635Y007571D01*
X022297Y007788D02*
X023650Y007788D01*
X023650Y007947D02*
X021878Y007947D01*
X022194Y007854D02*
X022194Y007854D01*
X020982Y007947D02*
X019540Y007947D01*
X019540Y008105D02*
X023650Y008105D01*
X023650Y008264D02*
X019540Y008264D01*
X019540Y008422D02*
X023650Y008422D01*
X023650Y008581D02*
X019540Y008581D01*
X019540Y008739D02*
X023650Y008739D01*
X023650Y008898D02*
X019540Y008898D01*
X019540Y009056D02*
X023650Y009056D01*
X023650Y009215D02*
X019540Y009215D01*
X019540Y009373D02*
X023650Y009373D01*
X023650Y009532D02*
X019540Y009532D01*
X019540Y009690D02*
X023650Y009690D01*
X023650Y009849D02*
X019540Y009849D01*
X019540Y010007D02*
X023650Y010007D01*
X023650Y010166D02*
X019540Y010166D01*
X019540Y010324D02*
X023650Y010324D01*
X023650Y010483D02*
X019540Y010483D01*
X019540Y010641D02*
X023650Y010641D01*
X023650Y010800D02*
X019540Y010800D01*
X019540Y010958D02*
X023650Y010958D01*
X023650Y011117D02*
X019540Y011117D01*
X019540Y011275D02*
X023650Y011275D01*
X023650Y011434D02*
X019540Y011434D01*
X019540Y011592D02*
X023650Y011592D01*
X023650Y011751D02*
X019540Y011751D01*
X019668Y011909D02*
X023650Y011909D01*
X023650Y012068D02*
X019827Y012068D01*
X019985Y012226D02*
X023650Y012226D01*
X023650Y012385D02*
X020144Y012385D01*
X020302Y012543D02*
X023650Y012543D01*
X023650Y012702D02*
X020461Y012702D01*
X020619Y012860D02*
X023650Y012860D01*
X023650Y013019D02*
X020753Y013019D01*
X020790Y013177D02*
X023650Y013177D01*
X023650Y013336D02*
X020790Y013336D01*
X020790Y013494D02*
X023650Y013494D01*
X023650Y013653D02*
X020790Y013653D01*
X020790Y013811D02*
X023650Y013811D01*
X023650Y013970D02*
X022099Y013970D01*
X022321Y014128D02*
X023650Y014128D01*
X023650Y014287D02*
X022401Y014287D01*
X022420Y014445D02*
X023650Y014445D01*
X023650Y014604D02*
X022420Y014604D01*
X022420Y014762D02*
X023650Y014762D01*
X023650Y014921D02*
X022420Y014921D01*
X022399Y015079D02*
X023650Y015079D01*
X023650Y015238D02*
X022315Y015238D01*
X022085Y015396D02*
X023650Y015396D01*
X023650Y015555D02*
X021908Y015555D01*
X021920Y015713D02*
X023648Y015713D01*
X023639Y015872D02*
X021920Y015872D01*
X021920Y016030D02*
X023603Y016030D01*
X023567Y016189D02*
X021920Y016189D01*
X021891Y016347D02*
X023506Y016347D01*
X023430Y016506D02*
X021797Y016506D01*
X021542Y016664D02*
X023331Y016664D01*
X023205Y016823D02*
X019730Y016823D01*
X019863Y016664D02*
X020318Y016664D01*
X020542Y016664D02*
X021318Y016664D01*
X021063Y016506D02*
X020797Y016506D01*
X020891Y016347D02*
X020969Y016347D01*
X020940Y016189D02*
X020920Y016189D01*
X020920Y016030D02*
X020940Y016030D01*
X020940Y015872D02*
X020920Y015872D01*
X020920Y015713D02*
X020940Y015713D01*
X020952Y015555D02*
X020908Y015555D01*
X021399Y015079D02*
X021461Y015079D01*
X021440Y014921D02*
X021420Y014921D01*
X021420Y014762D02*
X021440Y014762D01*
X021440Y014604D02*
X021420Y014604D01*
X021420Y014445D02*
X021440Y014445D01*
X021459Y014287D02*
X021401Y014287D01*
X021321Y014128D02*
X021539Y014128D01*
X021761Y013970D02*
X021099Y013970D01*
X019952Y015555D02*
X019908Y015555D01*
X019920Y015713D02*
X019940Y015713D01*
X019940Y015872D02*
X019920Y015872D01*
X019920Y016030D02*
X019940Y016030D01*
X019940Y016189D02*
X019920Y016189D01*
X019920Y016347D02*
X019969Y016347D01*
X019920Y016506D02*
X020063Y016506D01*
X019572Y016981D02*
X023040Y016981D01*
X022839Y017140D02*
X019413Y017140D01*
X019255Y017298D02*
X022509Y017298D01*
X018440Y014911D02*
X018440Y014333D01*
X018515Y014152D01*
X018570Y014097D01*
X018570Y013829D01*
X017976Y013235D01*
X017920Y013179D01*
X017920Y013277D01*
X017845Y013458D01*
X017790Y013513D01*
X017790Y014044D01*
X017834Y014030D01*
X017898Y014020D01*
X017930Y014020D01*
X017962Y014020D01*
X018026Y014030D01*
X018087Y014050D01*
X018145Y014079D01*
X018197Y014117D01*
X018243Y014163D01*
X018281Y014215D01*
X018310Y014273D01*
X018330Y014334D01*
X018340Y014398D01*
X018340Y014930D01*
X018340Y014962D01*
X018331Y015020D01*
X018440Y014911D01*
X018430Y014921D02*
X018340Y014921D01*
X018340Y014930D02*
X017930Y014930D01*
X018340Y014930D01*
X018340Y014762D02*
X018440Y014762D01*
X018440Y014604D02*
X018340Y014604D01*
X018340Y014445D02*
X018440Y014445D01*
X018459Y014287D02*
X018314Y014287D01*
X018208Y014128D02*
X018539Y014128D01*
X018570Y013970D02*
X017790Y013970D01*
X017930Y014020D02*
X017930Y014930D01*
X017930Y014930D01*
X017930Y014930D01*
X017930Y015340D01*
X017962Y015340D01*
X018026Y015330D01*
X018087Y015310D01*
X018091Y015308D01*
X018078Y015339D01*
X018015Y015402D01*
X017940Y015583D01*
X017940Y016277D01*
X018007Y016440D01*
X017853Y016440D01*
X017920Y016277D01*
X017920Y015583D01*
X017845Y015402D01*
X017790Y015347D01*
X017790Y015316D01*
X017834Y015330D01*
X017898Y015340D01*
X017930Y015340D01*
X017930Y014930D01*
X017930Y014020D01*
X017930Y014128D02*
X017930Y014128D01*
X017930Y014287D02*
X017930Y014287D01*
X017930Y014445D02*
X017930Y014445D01*
X017930Y014604D02*
X017930Y014604D01*
X017930Y014762D02*
X017930Y014762D01*
X017930Y014921D02*
X017930Y014921D01*
X017930Y014930D02*
X017930Y014930D01*
X017930Y015079D02*
X017930Y015079D01*
X017930Y015238D02*
X017930Y015238D01*
X017839Y015396D02*
X018021Y015396D01*
X017952Y015555D02*
X017908Y015555D01*
X017920Y015713D02*
X017940Y015713D01*
X017940Y015872D02*
X017920Y015872D01*
X017920Y016030D02*
X017940Y016030D01*
X017940Y016189D02*
X017920Y016189D01*
X017891Y016347D02*
X017969Y016347D01*
X016007Y016440D02*
X015940Y016277D01*
X015940Y015583D01*
X016015Y015402D01*
X016070Y015347D01*
X016070Y015316D01*
X016026Y015330D01*
X015962Y015340D01*
X015930Y015340D01*
X015930Y014930D01*
X015930Y014930D01*
X015930Y014020D01*
X015962Y014020D01*
X016026Y014030D01*
X016054Y014039D01*
X015989Y013975D01*
X015930Y013832D01*
X015871Y013975D01*
X015806Y014039D01*
X015834Y014030D01*
X015898Y014020D01*
X015930Y014020D01*
X015930Y014930D01*
X015930Y014930D01*
X015930Y015340D01*
X015898Y015340D01*
X015834Y015330D01*
X015790Y015316D01*
X015790Y015347D01*
X015845Y015402D01*
X015920Y015583D01*
X015920Y016277D01*
X015853Y016440D01*
X016007Y016440D01*
X015969Y016347D02*
X015891Y016347D01*
X015920Y016189D02*
X015940Y016189D01*
X015940Y016030D02*
X015920Y016030D01*
X015920Y015872D02*
X015940Y015872D01*
X015940Y015713D02*
X015920Y015713D01*
X015908Y015555D02*
X015952Y015555D01*
X016021Y015396D02*
X015839Y015396D01*
X015930Y015238D02*
X015930Y015238D01*
X015930Y015079D02*
X015930Y015079D01*
X015930Y014921D02*
X015930Y014921D01*
X015930Y014762D02*
X015930Y014762D01*
X015930Y014604D02*
X015930Y014604D01*
X015930Y014445D02*
X015930Y014445D01*
X015930Y014287D02*
X015930Y014287D01*
X015930Y014128D02*
X015930Y014128D01*
X015873Y013970D02*
X015987Y013970D01*
X017790Y013811D02*
X018552Y013811D01*
X018393Y013653D02*
X017790Y013653D01*
X017809Y013494D02*
X018235Y013494D01*
X018076Y013336D02*
X017896Y013336D01*
X017976Y013235D02*
X017976Y013235D01*
X014009Y013494D02*
X014003Y013494D01*
X013932Y013336D02*
X013845Y013336D01*
X013790Y013177D02*
X013910Y013177D01*
X013910Y013019D02*
X013790Y013019D01*
X013790Y012860D02*
X013910Y012860D01*
X013910Y012702D02*
X013790Y012702D01*
X013790Y012543D02*
X013910Y012543D01*
X013910Y012385D02*
X013790Y012385D01*
X013790Y012226D02*
X013910Y012226D01*
X013910Y012068D02*
X013790Y012068D01*
X013790Y011909D02*
X013910Y011909D01*
X013910Y011751D02*
X013790Y011751D01*
X013790Y011592D02*
X013910Y011592D01*
X013910Y011434D02*
X013790Y011434D01*
X013790Y011275D02*
X013910Y011275D01*
X013910Y011117D02*
X013790Y011117D01*
X013790Y010958D02*
X013910Y010958D01*
X013910Y010800D02*
X013790Y010800D01*
X013838Y010641D02*
X013910Y010641D01*
X013910Y010483D02*
X013888Y010483D01*
X013882Y010324D02*
X013910Y010324D01*
X013910Y010166D02*
X013813Y010166D01*
X013910Y010007D02*
X013606Y010007D01*
X013910Y009849D02*
X012290Y009849D01*
X012290Y009690D02*
X013910Y009690D01*
X013910Y009532D02*
X012290Y009532D01*
X012290Y009373D02*
X013910Y009373D01*
X013910Y009215D02*
X012290Y009215D01*
X012290Y009056D02*
X013910Y009056D01*
X013910Y008898D02*
X012290Y008898D01*
X012290Y008739D02*
X013910Y008739D01*
X013910Y008581D02*
X012290Y008581D01*
X012290Y008422D02*
X013910Y008422D01*
X013366Y008264D02*
X012290Y008264D01*
X012290Y008105D02*
X013257Y008105D01*
X013222Y007947D02*
X012290Y007947D01*
X012290Y007788D02*
X013243Y007788D01*
X013320Y007630D02*
X012409Y007630D01*
X012410Y007471D02*
X013320Y007471D01*
X013320Y007313D02*
X012410Y007313D01*
X012333Y007154D02*
X013320Y007154D01*
X013320Y006996D02*
X012174Y006996D01*
X012490Y006679D02*
X011370Y006679D01*
X011420Y006520D02*
X012440Y006520D01*
X012440Y006362D02*
X011420Y006362D01*
X011392Y006203D02*
X012468Y006203D01*
X012627Y006045D02*
X011233Y006045D01*
X010647Y006045D02*
X007192Y006045D01*
X007281Y005956D02*
X006050Y007187D01*
X006050Y007784D01*
X006227Y007961D01*
X006265Y008053D01*
X006581Y008053D01*
X006742Y008120D01*
X008229Y009607D01*
X008353Y009731D01*
X008420Y009892D01*
X008420Y011085D01*
X008451Y011116D01*
X008451Y011117D02*
X009022Y011117D01*
X008905Y011233D02*
X009183Y010955D01*
X009380Y010955D01*
X009577Y010955D01*
X009855Y011233D01*
X009855Y011430D01*
X009855Y011627D01*
X009577Y011905D01*
X009380Y011905D01*
X009380Y011430D01*
X009855Y011430D01*
X009380Y011430D01*
X009380Y011430D01*
X009380Y011430D01*
X009380Y010955D01*
X009380Y011430D01*
X009380Y011430D01*
X009380Y011430D01*
X008905Y011430D01*
X008905Y011627D01*
X009183Y011905D01*
X009380Y011905D01*
X009380Y011430D01*
X008905Y011430D01*
X008905Y011233D01*
X008905Y011275D02*
X008517Y011275D01*
X008535Y011320D02*
X008535Y011540D01*
X008451Y011744D01*
X008294Y011901D01*
X008090Y011985D01*
X007870Y011985D01*
X007666Y011901D01*
X007509Y011744D01*
X007425Y011540D01*
X007425Y011320D01*
X007509Y011116D01*
X007509Y011117D02*
X006313Y011117D01*
X006370Y010980D02*
X006227Y011325D01*
X005962Y011590D01*
X005617Y011733D01*
X005243Y011733D01*
X004898Y011590D01*
X004633Y011325D01*
X004490Y010980D01*
X004490Y010606D01*
X004633Y010261D01*
X004810Y010084D01*
X004810Y009202D01*
X004633Y009025D01*
X004490Y008680D01*
X004490Y008306D01*
X004633Y007961D01*
X004810Y007784D01*
X004810Y006995D01*
X004728Y007175D01*
X004385Y007571D01*
X003944Y007854D01*
X003442Y008001D01*
X002918Y008001D01*
X002416Y007854D01*
X002416Y007854D01*
X001975Y007571D01*
X001975Y007571D01*
X001975Y007571D01*
X001632Y007175D01*
X001415Y006698D01*
X001340Y006180D01*
X001340Y006180D01*
X001415Y005662D01*
X001415Y005662D01*
X001632Y005185D01*
X001975Y004789D01*
X001975Y004789D01*
X002416Y004506D01*
X002918Y004359D01*
X003442Y004359D01*
X003944Y004506D01*
X003944Y004506D01*
X004385Y004789D01*
X004385Y004789D01*
X004385Y004789D01*
X004728Y005185D01*
X004728Y005185D01*
X004945Y005662D01*
X005020Y006180D01*
X004972Y006511D01*
X006310Y005173D01*
X006310Y004319D01*
X006175Y004184D01*
X006040Y003857D01*
X006040Y003503D01*
X006175Y003176D01*
X006426Y002925D01*
X006753Y002790D01*
X007107Y002790D01*
X007434Y002925D01*
X007685Y003176D01*
X007820Y003503D01*
X007820Y003857D01*
X007685Y004184D01*
X007550Y004319D01*
X007550Y005553D01*
X007456Y005781D01*
X007281Y005956D01*
X007351Y005886D02*
X013320Y005886D01*
X013320Y005728D02*
X007478Y005728D01*
X007544Y005569D02*
X013320Y005569D01*
X013320Y005411D02*
X007550Y005411D01*
X007550Y005252D02*
X013320Y005252D01*
X013320Y005094D02*
X007550Y005094D01*
X007550Y004935D02*
X013320Y004935D01*
X013320Y004777D02*
X013221Y004777D01*
X013280Y004143D02*
X013320Y004143D01*
X013320Y003984D02*
X013040Y003984D01*
X012800Y003984D02*
X011800Y003984D01*
X011560Y003984D02*
X009681Y003984D01*
X009699Y003941D02*
X009658Y004039D01*
X009605Y004131D01*
X009540Y004215D01*
X009465Y004290D01*
X009381Y004355D01*
X009289Y004408D01*
X009191Y004449D01*
X009088Y004476D01*
X008983Y004490D01*
X008968Y004490D01*
X008968Y003718D01*
X008892Y003718D01*
X008892Y003642D01*
X008120Y003642D01*
X008120Y003627D01*
X008134Y003522D01*
X008161Y003419D01*
X008202Y003321D01*
X008255Y003229D01*
X008320Y003145D01*
X008395Y003070D01*
X008479Y003005D01*
X008571Y002952D01*
X008669Y002911D01*
X008772Y002884D01*
X008877Y002870D01*
X008892Y002870D01*
X008892Y003642D01*
X008968Y003642D01*
X008968Y003718D01*
X009740Y003718D01*
X009740Y003733D01*
X009726Y003838D01*
X009699Y003941D01*
X009728Y003826D02*
X013320Y003826D01*
X013320Y003667D02*
X008968Y003667D01*
X008968Y003642D02*
X009740Y003642D01*
X009740Y003627D01*
X009726Y003522D01*
X009699Y003419D01*
X009658Y003321D01*
X009605Y003229D01*
X009540Y003145D01*
X009465Y003070D01*
X009381Y003005D01*
X009289Y002952D01*
X009191Y002911D01*
X009088Y002884D01*
X008983Y002870D01*
X008968Y002870D01*
X008968Y003642D01*
X008892Y003667D02*
X007820Y003667D01*
X007820Y003509D02*
X008137Y003509D01*
X008190Y003350D02*
X007757Y003350D01*
X007691Y003192D02*
X008284Y003192D01*
X008443Y003033D02*
X007542Y003033D01*
X007311Y002875D02*
X008843Y002875D01*
X008892Y002875D02*
X008968Y002875D01*
X009017Y002875D02*
X010998Y002875D01*
X011079Y002956D02*
X010904Y002781D01*
X010810Y002553D01*
X010810Y002307D01*
X010904Y002079D01*
X011079Y001904D01*
X011307Y001810D01*
X011553Y001810D01*
X011781Y001904D01*
X011956Y002079D01*
X011978Y002133D01*
X012018Y002078D01*
X012078Y002018D01*
X012147Y001968D01*
X012223Y001930D01*
X012304Y001903D01*
X012388Y001890D01*
X012421Y001890D01*
X012421Y002421D01*
X012439Y002421D01*
X012439Y002439D01*
X012421Y002439D01*
X012421Y002970D01*
X012388Y002970D01*
X012304Y002957D01*
X012223Y002930D01*
X012147Y002892D01*
X012078Y002842D01*
X012018Y002782D01*
X011978Y002727D01*
X011956Y002781D01*
X011781Y002956D01*
X011553Y003050D01*
X011307Y003050D01*
X011079Y002956D01*
X011266Y003033D02*
X009417Y003033D01*
X009576Y003192D02*
X013320Y003192D01*
X013320Y003350D02*
X009670Y003350D01*
X009723Y003509D02*
X013320Y003509D01*
X013320Y003033D02*
X011594Y003033D01*
X011862Y002875D02*
X012123Y002875D01*
X012421Y002875D02*
X012439Y002875D01*
X012439Y002970D02*
X012439Y002439D01*
X012970Y002439D01*
X012970Y002472D01*
X012957Y002556D01*
X012930Y002637D01*
X012892Y002713D01*
X012842Y002782D01*
X012782Y002842D01*
X012713Y002892D01*
X012637Y002930D01*
X012556Y002957D01*
X012472Y002970D01*
X012439Y002970D01*
X012737Y002875D02*
X013320Y002875D01*
X013320Y002716D02*
X012890Y002716D01*
X012956Y002558D02*
X013320Y002558D01*
X013320Y002399D02*
X012970Y002399D01*
X012970Y002388D02*
X012970Y002421D01*
X012439Y002421D01*
X012439Y001890D01*
X012472Y001890D01*
X012556Y001903D01*
X012637Y001930D01*
X012713Y001968D01*
X012782Y002018D01*
X012842Y002078D01*
X012892Y002147D01*
X012930Y002223D01*
X012957Y002304D01*
X012970Y002388D01*
X012936Y002241D02*
X013369Y002241D01*
X013519Y002082D02*
X012845Y002082D01*
X012619Y001924D02*
X013677Y001924D01*
X013836Y001765D02*
X001224Y001765D01*
X001147Y001924D02*
X011060Y001924D01*
X010903Y002082D02*
X001071Y002082D01*
X001027Y002241D02*
X010837Y002241D01*
X010810Y002399D02*
X000991Y002399D01*
X000967Y002558D02*
X010812Y002558D01*
X010877Y002716D02*
X000960Y002716D01*
X000960Y002875D02*
X006549Y002875D01*
X006318Y003033D02*
X000960Y003033D01*
X000960Y003192D02*
X006169Y003192D01*
X006103Y003350D02*
X000960Y003350D01*
X000960Y003509D02*
X006040Y003509D01*
X006040Y003667D02*
X000960Y003667D01*
X000960Y003826D02*
X006040Y003826D01*
X006093Y003984D02*
X000960Y003984D01*
X000960Y004143D02*
X006158Y004143D01*
X006292Y004301D02*
X000960Y004301D01*
X000960Y004460D02*
X002575Y004460D01*
X002416Y004506D02*
X002416Y004506D01*
X002242Y004618D02*
X000960Y004618D01*
X000960Y004777D02*
X001995Y004777D01*
X001849Y004935D02*
X000960Y004935D01*
X000960Y005094D02*
X001712Y005094D01*
X001632Y005185D02*
X001632Y005185D01*
X001602Y005252D02*
X000960Y005252D01*
X000960Y005411D02*
X001529Y005411D01*
X001457Y005569D02*
X000960Y005569D01*
X000960Y005728D02*
X001405Y005728D01*
X001382Y005886D02*
X000960Y005886D01*
X000960Y006045D02*
X001359Y006045D01*
X001343Y006203D02*
X000960Y006203D01*
X000960Y006362D02*
X001366Y006362D01*
X001389Y006520D02*
X000960Y006520D01*
X000960Y006679D02*
X001412Y006679D01*
X001415Y006698D02*
X001415Y006698D01*
X001478Y006837D02*
X000960Y006837D01*
X000960Y006996D02*
X001550Y006996D01*
X001623Y007154D02*
X000960Y007154D01*
X000960Y007313D02*
X001751Y007313D01*
X001632Y007175D02*
X001632Y007175D01*
X001889Y007471D02*
X000960Y007471D01*
X000960Y007630D02*
X002067Y007630D01*
X002313Y007788D02*
X000960Y007788D01*
X000960Y007947D02*
X002732Y007947D01*
X003628Y007947D02*
X004647Y007947D01*
X004573Y008105D02*
X000960Y008105D01*
X000960Y008264D02*
X004508Y008264D01*
X004490Y008422D02*
X000960Y008422D01*
X000960Y008581D02*
X004490Y008581D01*
X004514Y008739D02*
X000960Y008739D01*
X000960Y008898D02*
X004580Y008898D01*
X004664Y009056D02*
X000960Y009056D01*
X000960Y009215D02*
X004810Y009215D01*
X004810Y009373D02*
X000960Y009373D01*
X000960Y009532D02*
X004810Y009532D01*
X004810Y009690D02*
X000960Y009690D01*
X000960Y009849D02*
X004810Y009849D01*
X004810Y010007D02*
X000960Y010007D01*
X000960Y010166D02*
X004728Y010166D01*
X004607Y010324D02*
X000960Y010324D01*
X000960Y010483D02*
X004541Y010483D01*
X004490Y010641D02*
X000960Y010641D01*
X000960Y010800D02*
X004490Y010800D01*
X004490Y010958D02*
X000960Y010958D01*
X000960Y011117D02*
X004547Y011117D01*
X004612Y011275D02*
X000960Y011275D01*
X000960Y011434D02*
X004741Y011434D01*
X004903Y011592D02*
X000960Y011592D01*
X000960Y011751D02*
X007516Y011751D01*
X007446Y011592D02*
X005957Y011592D01*
X006119Y011434D02*
X007425Y011434D01*
X007443Y011275D02*
X006248Y011275D01*
X006370Y010980D02*
X006370Y010606D01*
X006227Y010261D01*
X006050Y010084D01*
X006050Y009202D01*
X006227Y009025D01*
X006265Y008933D01*
X006311Y008933D01*
X007540Y010162D01*
X007540Y011085D01*
X007509Y011116D01*
X007540Y010958D02*
X006370Y010958D01*
X006370Y010800D02*
X007540Y010800D01*
X007540Y010641D02*
X006370Y010641D01*
X006319Y010483D02*
X007540Y010483D01*
X007540Y010324D02*
X006253Y010324D01*
X006132Y010166D02*
X007540Y010166D01*
X007385Y010007D02*
X006050Y010007D01*
X006050Y009849D02*
X007226Y009849D01*
X007068Y009690D02*
X006050Y009690D01*
X006050Y009532D02*
X006909Y009532D01*
X006751Y009373D02*
X006050Y009373D01*
X006050Y009215D02*
X006592Y009215D01*
X006434Y009056D02*
X006196Y009056D01*
X006886Y008264D02*
X007616Y008264D01*
X007507Y008105D02*
X006706Y008105D01*
X007044Y008422D02*
X008320Y008422D01*
X008320Y008264D02*
X008244Y008264D01*
X008320Y008581D02*
X007203Y008581D01*
X007361Y008739D02*
X008320Y008739D01*
X008320Y008898D02*
X007520Y008898D01*
X007678Y009056D02*
X008320Y009056D01*
X008320Y009215D02*
X007837Y009215D01*
X007995Y009373D02*
X008370Y009373D01*
X008522Y009532D02*
X008154Y009532D01*
X008312Y009690D02*
X008681Y009690D01*
X008839Y009849D02*
X008402Y009849D01*
X008420Y010007D02*
X008998Y010007D01*
X009156Y010166D02*
X008420Y010166D01*
X008420Y010324D02*
X009315Y010324D01*
X009473Y010483D02*
X008420Y010483D01*
X008420Y010641D02*
X009632Y010641D01*
X009790Y010800D02*
X008420Y010800D01*
X008420Y010958D02*
X009180Y010958D01*
X009380Y010958D02*
X009380Y010958D01*
X009380Y011117D02*
X009380Y011117D01*
X009380Y011275D02*
X009380Y011275D01*
X009380Y011434D02*
X009380Y011434D01*
X009380Y011592D02*
X009380Y011592D01*
X009380Y011751D02*
X009380Y011751D01*
X009731Y011751D02*
X010570Y011751D01*
X010570Y011909D02*
X008274Y011909D01*
X008444Y011751D02*
X009029Y011751D01*
X008905Y011592D02*
X008514Y011592D01*
X008535Y011434D02*
X008905Y011434D01*
X008535Y011320D02*
X008451Y011116D01*
X007686Y011909D02*
X000960Y011909D01*
X000960Y012068D02*
X010570Y012068D01*
X010570Y012226D02*
X000960Y012226D01*
X000960Y012385D02*
X010570Y012385D01*
X010570Y012543D02*
X000960Y012543D01*
X000960Y012702D02*
X010570Y012702D01*
X010570Y012860D02*
X000960Y012860D01*
X000960Y013019D02*
X010570Y013019D01*
X010570Y013177D02*
X005738Y013177D01*
X006028Y013336D02*
X010570Y013336D01*
X010570Y013494D02*
X006186Y013494D01*
X006276Y013653D02*
X010570Y013653D01*
X010570Y013811D02*
X006341Y013811D01*
X006370Y013970D02*
X009761Y013970D01*
X009833Y013940D02*
X009652Y014015D01*
X009515Y014152D01*
X009440Y014333D01*
X009440Y015027D01*
X009515Y015208D01*
X009652Y015345D01*
X009833Y015420D01*
X010027Y015420D01*
X010208Y015345D01*
X010345Y015208D01*
X010420Y015027D01*
X010420Y014333D01*
X010345Y014152D01*
X010208Y014015D01*
X010027Y013940D01*
X009833Y013940D01*
X009539Y014128D02*
X006370Y014128D01*
X006357Y014287D02*
X009459Y014287D01*
X009440Y014445D02*
X006291Y014445D01*
X006223Y014604D02*
X009440Y014604D01*
X009440Y014762D02*
X006064Y014762D01*
X006050Y014921D02*
X009440Y014921D01*
X009461Y015079D02*
X006050Y015079D01*
X006050Y015238D02*
X009545Y015238D01*
X009775Y015396D02*
X006050Y015396D01*
X006050Y015555D02*
X010952Y015555D01*
X010940Y015713D02*
X006105Y015713D01*
X004810Y015555D02*
X000960Y015555D01*
X000962Y015713D02*
X004755Y015713D01*
X004618Y015872D02*
X000971Y015872D01*
X001007Y016030D02*
X004552Y016030D01*
X004490Y016189D02*
X001043Y016189D01*
X001104Y016347D02*
X004490Y016347D01*
X004490Y016506D02*
X001180Y016506D01*
X001279Y016664D02*
X004536Y016664D01*
X004601Y016823D02*
X001405Y016823D01*
X001570Y016981D02*
X004715Y016981D01*
X004873Y017140D02*
X001771Y017140D01*
X002101Y017298D02*
X005221Y017298D01*
X005639Y017298D02*
X008421Y017298D01*
X008263Y017140D02*
X005987Y017140D01*
X004810Y015396D02*
X000960Y015396D01*
X000960Y015238D02*
X004810Y015238D01*
X004810Y015079D02*
X000960Y015079D01*
X000960Y014921D02*
X004810Y014921D01*
X004796Y014762D02*
X000960Y014762D01*
X000960Y014604D02*
X004637Y014604D01*
X004569Y014445D02*
X000960Y014445D01*
X000960Y014287D02*
X004503Y014287D01*
X004490Y014128D02*
X000960Y014128D01*
X000960Y013970D02*
X004490Y013970D01*
X004519Y013811D02*
X000960Y013811D01*
X000960Y013653D02*
X004584Y013653D01*
X004674Y013494D02*
X000960Y013494D01*
X000960Y013336D02*
X004832Y013336D01*
X005122Y013177D02*
X000960Y013177D01*
X006213Y007947D02*
X007472Y007947D01*
X007493Y007788D02*
X006054Y007788D01*
X006050Y007630D02*
X007583Y007630D01*
X007880Y007471D02*
X006050Y007471D01*
X006050Y007313D02*
X008038Y007313D01*
X008197Y007154D02*
X006083Y007154D01*
X006241Y006996D02*
X008355Y006996D01*
X008514Y006837D02*
X006400Y006837D01*
X006558Y006679D02*
X008672Y006679D01*
X008831Y006520D02*
X006717Y006520D01*
X006875Y006362D02*
X008989Y006362D01*
X009148Y006203D02*
X007034Y006203D01*
X006073Y005411D02*
X004831Y005411D01*
X004903Y005569D02*
X005914Y005569D01*
X005756Y005728D02*
X004955Y005728D01*
X004945Y005662D02*
X004945Y005662D01*
X004978Y005886D02*
X005597Y005886D01*
X005439Y006045D02*
X005001Y006045D01*
X005017Y006203D02*
X005280Y006203D01*
X005122Y006362D02*
X004994Y006362D01*
X004810Y006996D02*
X004810Y006996D01*
X004810Y007154D02*
X004737Y007154D01*
X004728Y007175D02*
X004728Y007175D01*
X004810Y007313D02*
X004609Y007313D01*
X004471Y007471D02*
X004810Y007471D01*
X004810Y007630D02*
X004293Y007630D01*
X004385Y007571D02*
X004385Y007571D01*
X004047Y007788D02*
X004806Y007788D01*
X003944Y007854D02*
X003944Y007854D01*
X004758Y005252D02*
X006231Y005252D01*
X006310Y005094D02*
X004648Y005094D01*
X004511Y004935D02*
X006310Y004935D01*
X006310Y004777D02*
X004365Y004777D01*
X004118Y004618D02*
X006310Y004618D01*
X006310Y004460D02*
X003785Y004460D01*
X007550Y004460D02*
X008710Y004460D01*
X008669Y004449D02*
X008571Y004408D01*
X008479Y004355D01*
X008395Y004290D01*
X008320Y004215D01*
X008255Y004131D01*
X008202Y004039D01*
X008161Y003941D01*
X008134Y003838D01*
X008120Y003733D01*
X008120Y003718D01*
X008892Y003718D01*
X008892Y004490D01*
X008877Y004490D01*
X008772Y004476D01*
X008669Y004449D01*
X008892Y004460D02*
X008968Y004460D01*
X008968Y004301D02*
X008892Y004301D01*
X008892Y004143D02*
X008968Y004143D01*
X008968Y003984D02*
X008892Y003984D01*
X008892Y003826D02*
X008968Y003826D01*
X008968Y003509D02*
X008892Y003509D01*
X008892Y003350D02*
X008968Y003350D01*
X008968Y003192D02*
X008892Y003192D01*
X008892Y003033D02*
X008968Y003033D01*
X008132Y003826D02*
X007820Y003826D01*
X007767Y003984D02*
X008179Y003984D01*
X008264Y004143D02*
X007702Y004143D01*
X007568Y004301D02*
X008409Y004301D01*
X009150Y004460D02*
X011222Y004460D01*
X011238Y004301D02*
X009451Y004301D01*
X009596Y004143D02*
X011320Y004143D01*
X011262Y004618D02*
X007550Y004618D01*
X007550Y004777D02*
X011379Y004777D01*
X013213Y006045D02*
X013320Y006045D01*
X013320Y006837D02*
X013192Y006837D01*
X012648Y006837D02*
X011212Y006837D01*
X011527Y007154D02*
X009215Y007154D01*
X009057Y007313D02*
X011450Y007313D01*
X011450Y007471D02*
X008898Y007471D01*
X009027Y007630D02*
X009333Y007630D01*
X009243Y007788D02*
X009117Y007788D01*
X009138Y007947D02*
X009222Y007947D01*
X009257Y008105D02*
X009103Y008105D01*
X009040Y008264D02*
X009320Y008264D01*
X009320Y008422D02*
X009040Y008422D01*
X009040Y008581D02*
X009320Y008581D01*
X009320Y008739D02*
X009040Y008739D01*
X009040Y008898D02*
X009320Y008898D01*
X009320Y009056D02*
X009065Y009056D01*
X009224Y009215D02*
X009320Y009215D01*
X010065Y009056D02*
X011570Y009056D01*
X011570Y008898D02*
X010040Y008898D01*
X010040Y008739D02*
X011570Y008739D01*
X011570Y008581D02*
X010040Y008581D01*
X010040Y008422D02*
X011570Y008422D01*
X011570Y008264D02*
X010040Y008264D01*
X010103Y008105D02*
X011570Y008105D01*
X011570Y007947D02*
X010138Y007947D01*
X010117Y007788D02*
X011570Y007788D01*
X011451Y007630D02*
X010027Y007630D01*
X009374Y006996D02*
X011686Y006996D01*
X010668Y006837D02*
X009532Y006837D01*
X010224Y009215D02*
X011570Y009215D01*
X011570Y009373D02*
X010382Y009373D01*
X010541Y009532D02*
X011570Y009532D01*
X011570Y009690D02*
X010699Y009690D01*
X010858Y009849D02*
X011570Y009849D01*
X011570Y010007D02*
X011016Y010007D01*
X011175Y010166D02*
X011570Y010166D01*
X011570Y010324D02*
X011333Y010324D01*
X011492Y010483D02*
X011570Y010483D01*
X012606Y010007D02*
X013254Y010007D01*
X013047Y010166D02*
X012813Y010166D01*
X012882Y010324D02*
X012978Y010324D01*
X010570Y011592D02*
X009855Y011592D01*
X009855Y011434D02*
X010424Y011434D01*
X010266Y011275D02*
X009855Y011275D01*
X009738Y011117D02*
X010107Y011117D01*
X009949Y010958D02*
X009580Y010958D01*
X010099Y013970D02*
X010570Y013970D01*
X010539Y014128D02*
X010321Y014128D01*
X010401Y014287D02*
X010459Y014287D01*
X010440Y014445D02*
X010420Y014445D01*
X010420Y014604D02*
X010440Y014604D01*
X010440Y014762D02*
X010420Y014762D01*
X010420Y014921D02*
X010440Y014921D01*
X010461Y015079D02*
X010399Y015079D01*
X010315Y015238D02*
X010545Y015238D01*
X010775Y015396D02*
X010085Y015396D01*
X010940Y015872D02*
X008702Y015872D01*
X008907Y016030D02*
X010940Y016030D01*
X010940Y016189D02*
X009065Y016189D01*
X009224Y016347D02*
X010969Y016347D01*
X019540Y007788D02*
X020563Y007788D01*
X020317Y007630D02*
X019540Y007630D01*
X019540Y007471D02*
X020139Y007471D01*
X020001Y007313D02*
X019540Y007313D01*
X019540Y007154D02*
X019873Y007154D01*
X019882Y007175D02*
X019882Y007175D01*
X019800Y006996D02*
X019540Y006996D01*
X019540Y006837D02*
X019728Y006837D01*
X019662Y006679D02*
X019540Y006679D01*
X019540Y006520D02*
X019639Y006520D01*
X019616Y006362D02*
X019540Y006362D01*
X019540Y006203D02*
X019593Y006203D01*
X019609Y006045D02*
X019540Y006045D01*
X019540Y005886D02*
X019632Y005886D01*
X019655Y005728D02*
X019540Y005728D01*
X019540Y005569D02*
X019707Y005569D01*
X019779Y005411D02*
X019540Y005411D01*
X019540Y005252D02*
X019852Y005252D01*
X019962Y005094D02*
X019540Y005094D01*
X019684Y004935D02*
X020099Y004935D01*
X020245Y004777D02*
X019843Y004777D01*
X020001Y004618D02*
X020492Y004618D01*
X022928Y001290D02*
X001682Y001290D01*
X001957Y001131D02*
X022653Y001131D01*
X022130Y000973D02*
X002480Y000973D01*
X001350Y001607D02*
X014020Y001607D01*
X012439Y001924D02*
X012421Y001924D01*
X012421Y002082D02*
X012439Y002082D01*
X012439Y002241D02*
X012421Y002241D01*
X012421Y002399D02*
X012439Y002399D01*
X012439Y002558D02*
X012421Y002558D01*
X012421Y002716D02*
X012439Y002716D01*
X012015Y002082D02*
X011957Y002082D01*
X011800Y001924D02*
X012241Y001924D01*
D19*
X011680Y004430D03*
X012920Y004430D03*
X013680Y007930D03*
X013430Y010430D03*
X012430Y010430D03*
X012430Y011180D03*
X014430Y011680D03*
X014430Y013180D03*
X017430Y013180D03*
X017430Y011680D03*
X021680Y011430D03*
X009680Y007930D03*
X008680Y007930D03*
X007930Y007930D03*
X003868Y009118D03*
X003680Y010680D03*
X008930Y016930D03*
D20*
X011930Y016930D01*
X012430Y016430D01*
X015430Y013680D02*
X015430Y002930D01*
X014430Y002930D02*
X014430Y011680D01*
X014430Y013180D01*
X016430Y013680D02*
X016430Y002930D01*
X005430Y014067D02*
X005430Y016430D01*
D21*
X005430Y013930D01*
X005430Y016430D02*
X008430Y016430D01*
X008930Y016930D01*
X005430Y010930D02*
X005430Y008493D01*
X005430Y006930D01*
X006930Y005430D01*
X006930Y003680D01*
D22*
X009430Y006430D02*
X007930Y007930D01*
X008680Y007930D02*
X008680Y009180D01*
X010930Y011430D01*
X010930Y014930D01*
X011430Y015680D02*
X011430Y010930D01*
X009680Y009180D01*
X009680Y007930D01*
X009430Y006430D02*
X010940Y006430D01*
X011930Y007430D02*
X011930Y014930D01*
X012930Y014930D02*
X012930Y014430D01*
X012430Y013930D01*
X012430Y011180D01*
X012930Y010930D02*
X012430Y010430D01*
X012930Y010930D02*
X012930Y013680D01*
X013430Y014180D01*
X013430Y015680D01*
X013930Y014930D02*
X013930Y013930D01*
X013430Y013430D01*
X013430Y010430D01*
X013680Y007930D02*
X013680Y002430D01*
X014180Y001930D01*
X018430Y001930D01*
X019430Y002930D01*
X018180Y004180D01*
X018180Y012930D01*
X018930Y013680D01*
X018930Y014930D01*
X018430Y015430D01*
X018430Y015680D01*
X017430Y015680D02*
X017430Y013180D01*
X016430Y013680D02*
X016430Y015680D01*
X015430Y015680D02*
X015430Y013680D01*
X014430Y013180D02*
X014430Y015680D01*
X018680Y012430D02*
X019930Y013680D01*
X019930Y014930D01*
X020430Y015680D02*
X020430Y013180D01*
X019180Y011930D01*
X019180Y004930D01*
X019930Y004180D01*
X021180Y004180D01*
X022430Y002930D01*
X021430Y002930D02*
X020680Y003680D01*
X019680Y003680D01*
X018680Y004680D01*
X018680Y012430D01*
X012920Y004430D02*
X011680Y004430D01*
D23*
X006493Y008493D02*
X007980Y009980D01*
X007980Y011430D01*
X006493Y008493D02*
X005430Y008493D01*
M02*
