G75*
G70*
%OFA0B0*%
%FSLAX24Y24*%
%IPPOS*%
%LPD*%
%AMOC8*
5,1,8,0,0,1.08239X$1,22.5*
%
%ADD10C,0.0050*%
%ADD11C,0.0070*%
%ADD12C,0.0100*%
%ADD13C,0.0060*%
%ADD14C,0.0080*%
D10*
X013930Y001680D02*
X017930Y001680D01*
X017930Y004180D01*
X013930Y004180D01*
X013930Y001680D01*
X018930Y001680D02*
X018930Y004180D01*
X022930Y004180D01*
X022930Y001680D01*
X018930Y001680D01*
X022430Y013680D02*
X009430Y013680D01*
X009180Y015680D01*
X009430Y016930D01*
X022430Y016930D01*
X022680Y015680D01*
X022430Y013680D01*
D11*
X003000Y012100D02*
X003000Y011930D01*
X002860Y011780D01*
X002860Y012080D01*
X003001Y011930D01*
X003000Y011930D02*
X003000Y011760D01*
X003000Y010600D02*
X003000Y010430D01*
X002860Y010280D01*
X002860Y010580D01*
X003001Y010430D01*
X003000Y010430D02*
X003000Y010260D01*
X003000Y009100D02*
X003000Y008930D01*
X002860Y008780D01*
X002860Y009080D01*
X003001Y008930D01*
X003000Y008930D02*
X003000Y008760D01*
D12*
X002980Y008280D02*
X002880Y008280D01*
X002880Y008080D02*
X002980Y008080D01*
X002980Y009580D02*
X002880Y009580D01*
X002880Y009780D02*
X002980Y009780D01*
X002980Y011080D02*
X002880Y011080D01*
X002880Y011280D02*
X002980Y011280D01*
X007830Y008980D02*
X007830Y008880D01*
X008030Y008880D02*
X008030Y008980D01*
X010630Y004530D02*
X010730Y004530D01*
X010730Y004330D02*
X010630Y004330D01*
X010530Y003480D02*
X010530Y003380D01*
X010330Y003380D02*
X010330Y003480D01*
X021330Y012380D02*
X021330Y012480D01*
X021530Y012480D02*
X021530Y012380D01*
X022330Y012380D02*
X022330Y012480D01*
X022530Y012480D02*
X022530Y012380D01*
X023080Y012380D02*
X023080Y012480D01*
X023280Y012480D02*
X023280Y012380D01*
X008730Y013580D02*
X008630Y013580D01*
X008630Y013780D02*
X008730Y013780D01*
D13*
X005930Y005680D02*
X005930Y001680D01*
X009930Y001680D01*
X009930Y005680D01*
X005930Y005680D01*
X008280Y006380D02*
X008280Y007480D01*
X008282Y007497D01*
X008286Y007514D01*
X008293Y007530D01*
X008303Y007544D01*
X008316Y007557D01*
X008330Y007567D01*
X008346Y007574D01*
X008363Y007578D01*
X008380Y007580D01*
X008980Y007580D01*
X008997Y007578D01*
X009014Y007574D01*
X009030Y007567D01*
X009044Y007557D01*
X009057Y007544D01*
X009067Y007530D01*
X009074Y007514D01*
X009078Y007497D01*
X009080Y007480D01*
X009080Y006380D01*
X009078Y006363D01*
X009074Y006346D01*
X009067Y006330D01*
X009057Y006316D01*
X009044Y006303D01*
X009030Y006293D01*
X009014Y006286D01*
X008997Y006282D01*
X008980Y006280D01*
X008380Y006280D01*
X008363Y006282D01*
X008346Y006286D01*
X008330Y006293D01*
X008316Y006303D01*
X008303Y006316D01*
X008293Y006330D01*
X008286Y006346D01*
X008282Y006363D01*
X008280Y006380D01*
X009280Y006380D02*
X009280Y007480D01*
X009282Y007497D01*
X009286Y007514D01*
X009293Y007530D01*
X009303Y007544D01*
X009316Y007557D01*
X009330Y007567D01*
X009346Y007574D01*
X009363Y007578D01*
X009380Y007580D01*
X009980Y007580D01*
X009997Y007578D01*
X010014Y007574D01*
X010030Y007567D01*
X010044Y007557D01*
X010057Y007544D01*
X010067Y007530D01*
X010074Y007514D01*
X010078Y007497D01*
X010080Y007480D01*
X010080Y006380D01*
X010078Y006363D01*
X010074Y006346D01*
X010067Y006330D01*
X010057Y006316D01*
X010044Y006303D01*
X010030Y006293D01*
X010014Y006286D01*
X009997Y006282D01*
X009980Y006280D01*
X009380Y006280D01*
X009363Y006282D01*
X009346Y006286D01*
X009330Y006293D01*
X009316Y006303D01*
X009303Y006316D01*
X009293Y006330D01*
X009286Y006346D01*
X009282Y006363D01*
X009280Y006380D01*
X010530Y005130D02*
X010530Y007730D01*
X010630Y007830D01*
X013230Y007830D01*
X013330Y007730D01*
X013330Y005130D01*
X013230Y005030D01*
X010630Y005030D01*
X010530Y005130D01*
X011180Y002930D02*
X010930Y002680D01*
X010930Y002180D01*
X011180Y001930D01*
X011680Y001930D01*
X011930Y002180D01*
X012180Y001930D01*
X012680Y001930D01*
X012930Y002180D01*
X012930Y002680D01*
X012680Y002930D01*
X012180Y002930D01*
X011930Y002680D01*
X011680Y002930D01*
X011180Y002930D01*
X011230Y008280D02*
X010630Y008280D01*
X010613Y008282D01*
X010596Y008286D01*
X010580Y008293D01*
X010566Y008303D01*
X010553Y008316D01*
X010543Y008330D01*
X010536Y008346D01*
X010532Y008363D01*
X010530Y008380D01*
X010530Y009480D01*
X010532Y009497D01*
X010536Y009514D01*
X010543Y009530D01*
X010553Y009544D01*
X010566Y009557D01*
X010580Y009567D01*
X010596Y009574D01*
X010613Y009578D01*
X010630Y009580D01*
X011230Y009580D01*
X011247Y009578D01*
X011264Y009574D01*
X011280Y009567D01*
X011294Y009557D01*
X011307Y009544D01*
X011317Y009530D01*
X011324Y009514D01*
X011328Y009497D01*
X011330Y009480D01*
X011330Y008380D01*
X011328Y008363D01*
X011324Y008346D01*
X011317Y008330D01*
X011307Y008316D01*
X011294Y008303D01*
X011280Y008293D01*
X011264Y008286D01*
X011247Y008282D01*
X011230Y008280D01*
X011530Y008380D02*
X011530Y009480D01*
X011532Y009497D01*
X011536Y009514D01*
X011543Y009530D01*
X011553Y009544D01*
X011566Y009557D01*
X011580Y009567D01*
X011596Y009574D01*
X011613Y009578D01*
X011630Y009580D01*
X012230Y009580D01*
X012247Y009578D01*
X012264Y009574D01*
X012280Y009567D01*
X012294Y009557D01*
X012307Y009544D01*
X012317Y009530D01*
X012324Y009514D01*
X012328Y009497D01*
X012330Y009480D01*
X012330Y008380D01*
X012328Y008363D01*
X012324Y008346D01*
X012317Y008330D01*
X012307Y008316D01*
X012294Y008303D01*
X012280Y008293D01*
X012264Y008286D01*
X012247Y008282D01*
X012230Y008280D01*
X011630Y008280D01*
X011613Y008282D01*
X011596Y008286D01*
X011580Y008293D01*
X011566Y008303D01*
X011553Y008316D01*
X011543Y008330D01*
X011536Y008346D01*
X011532Y008363D01*
X011530Y008380D01*
X012530Y008380D02*
X012530Y009480D01*
X012532Y009497D01*
X012536Y009514D01*
X012543Y009530D01*
X012553Y009544D01*
X012566Y009557D01*
X012580Y009567D01*
X012596Y009574D01*
X012613Y009578D01*
X012630Y009580D01*
X013230Y009580D01*
X013247Y009578D01*
X013264Y009574D01*
X013280Y009567D01*
X013294Y009557D01*
X013307Y009544D01*
X013317Y009530D01*
X013324Y009514D01*
X013328Y009497D01*
X013330Y009480D01*
X013330Y008380D01*
X013328Y008363D01*
X013324Y008346D01*
X013317Y008330D01*
X013307Y008316D01*
X013294Y008303D01*
X013280Y008293D01*
X013264Y008286D01*
X013247Y008282D01*
X013230Y008280D01*
X012630Y008280D01*
X012613Y008282D01*
X012596Y008286D01*
X012580Y008293D01*
X012566Y008303D01*
X012553Y008316D01*
X012543Y008330D01*
X012536Y008346D01*
X012532Y008363D01*
X012530Y008380D01*
X007080Y011430D02*
X007082Y011510D01*
X007088Y011589D01*
X007098Y011668D01*
X007112Y011747D01*
X007129Y011825D01*
X007151Y011902D01*
X007176Y011977D01*
X007206Y012051D01*
X007238Y012124D01*
X007275Y012195D01*
X007315Y012264D01*
X007358Y012331D01*
X007405Y012396D01*
X007454Y012458D01*
X007507Y012518D01*
X007563Y012575D01*
X007621Y012630D01*
X007682Y012681D01*
X007746Y012729D01*
X007812Y012774D01*
X007880Y012816D01*
X007950Y012854D01*
X008022Y012888D01*
X008095Y012919D01*
X008170Y012947D01*
X008247Y012970D01*
X008324Y012990D01*
X008402Y013006D01*
X008481Y013018D01*
X008560Y013026D01*
X008640Y013030D01*
X008720Y013030D01*
X008800Y013026D01*
X008879Y013018D01*
X008958Y013006D01*
X009036Y012990D01*
X009113Y012970D01*
X009190Y012947D01*
X009265Y012919D01*
X009338Y012888D01*
X009410Y012854D01*
X009480Y012816D01*
X009548Y012774D01*
X009614Y012729D01*
X009678Y012681D01*
X009739Y012630D01*
X009797Y012575D01*
X009853Y012518D01*
X009906Y012458D01*
X009955Y012396D01*
X010002Y012331D01*
X010045Y012264D01*
X010085Y012195D01*
X010122Y012124D01*
X010154Y012051D01*
X010184Y011977D01*
X010209Y011902D01*
X010231Y011825D01*
X010248Y011747D01*
X010262Y011668D01*
X010272Y011589D01*
X010278Y011510D01*
X010280Y011430D01*
X010278Y011350D01*
X010272Y011271D01*
X010262Y011192D01*
X010248Y011113D01*
X010231Y011035D01*
X010209Y010958D01*
X010184Y010883D01*
X010154Y010809D01*
X010122Y010736D01*
X010085Y010665D01*
X010045Y010596D01*
X010002Y010529D01*
X009955Y010464D01*
X009906Y010402D01*
X009853Y010342D01*
X009797Y010285D01*
X009739Y010230D01*
X009678Y010179D01*
X009614Y010131D01*
X009548Y010086D01*
X009480Y010044D01*
X009410Y010006D01*
X009338Y009972D01*
X009265Y009941D01*
X009190Y009913D01*
X009113Y009890D01*
X009036Y009870D01*
X008958Y009854D01*
X008879Y009842D01*
X008800Y009834D01*
X008720Y009830D01*
X008640Y009830D01*
X008560Y009834D01*
X008481Y009842D01*
X008402Y009854D01*
X008324Y009870D01*
X008247Y009890D01*
X008170Y009913D01*
X008095Y009941D01*
X008022Y009972D01*
X007950Y010006D01*
X007880Y010044D01*
X007812Y010086D01*
X007746Y010131D01*
X007682Y010179D01*
X007621Y010230D01*
X007563Y010285D01*
X007507Y010342D01*
X007454Y010402D01*
X007405Y010464D01*
X007358Y010529D01*
X007315Y010596D01*
X007275Y010665D01*
X007238Y010736D01*
X007206Y010809D01*
X007176Y010883D01*
X007151Y010958D01*
X007129Y011035D01*
X007112Y011113D01*
X007098Y011192D01*
X007088Y011271D01*
X007082Y011350D01*
X007080Y011430D01*
X007480Y011730D02*
X007480Y012030D01*
X007330Y011880D02*
X007630Y011880D01*
X001830Y006180D02*
X001832Y006253D01*
X001838Y006326D01*
X001848Y006398D01*
X001862Y006470D01*
X001879Y006541D01*
X001901Y006611D01*
X001926Y006680D01*
X001955Y006747D01*
X001987Y006812D01*
X002023Y006876D01*
X002063Y006938D01*
X002105Y006997D01*
X002151Y007054D01*
X002200Y007108D01*
X002252Y007160D01*
X002306Y007209D01*
X002363Y007255D01*
X002422Y007297D01*
X002484Y007337D01*
X002548Y007373D01*
X002613Y007405D01*
X002680Y007434D01*
X002749Y007459D01*
X002819Y007481D01*
X002890Y007498D01*
X002962Y007512D01*
X003034Y007522D01*
X003107Y007528D01*
X003180Y007530D01*
X003253Y007528D01*
X003326Y007522D01*
X003398Y007512D01*
X003470Y007498D01*
X003541Y007481D01*
X003611Y007459D01*
X003680Y007434D01*
X003747Y007405D01*
X003812Y007373D01*
X003876Y007337D01*
X003938Y007297D01*
X003997Y007255D01*
X004054Y007209D01*
X004108Y007160D01*
X004160Y007108D01*
X004209Y007054D01*
X004255Y006997D01*
X004297Y006938D01*
X004337Y006876D01*
X004373Y006812D01*
X004405Y006747D01*
X004434Y006680D01*
X004459Y006611D01*
X004481Y006541D01*
X004498Y006470D01*
X004512Y006398D01*
X004522Y006326D01*
X004528Y006253D01*
X004530Y006180D01*
X004528Y006107D01*
X004522Y006034D01*
X004512Y005962D01*
X004498Y005890D01*
X004481Y005819D01*
X004459Y005749D01*
X004434Y005680D01*
X004405Y005613D01*
X004373Y005548D01*
X004337Y005484D01*
X004297Y005422D01*
X004255Y005363D01*
X004209Y005306D01*
X004160Y005252D01*
X004108Y005200D01*
X004054Y005151D01*
X003997Y005105D01*
X003938Y005063D01*
X003876Y005023D01*
X003812Y004987D01*
X003747Y004955D01*
X003680Y004926D01*
X003611Y004901D01*
X003541Y004879D01*
X003470Y004862D01*
X003398Y004848D01*
X003326Y004838D01*
X003253Y004832D01*
X003180Y004830D01*
X003107Y004832D01*
X003034Y004838D01*
X002962Y004848D01*
X002890Y004862D01*
X002819Y004879D01*
X002749Y004901D01*
X002680Y004926D01*
X002613Y004955D01*
X002548Y004987D01*
X002484Y005023D01*
X002422Y005063D01*
X002363Y005105D01*
X002306Y005151D01*
X002252Y005200D01*
X002200Y005252D01*
X002151Y005306D01*
X002105Y005363D01*
X002063Y005422D01*
X002023Y005484D01*
X001987Y005548D01*
X001955Y005613D01*
X001926Y005680D01*
X001901Y005749D01*
X001879Y005819D01*
X001862Y005890D01*
X001848Y005962D01*
X001838Y006034D01*
X001832Y006107D01*
X001830Y006180D01*
X020080Y006180D02*
X020082Y006253D01*
X020088Y006326D01*
X020098Y006398D01*
X020112Y006470D01*
X020129Y006541D01*
X020151Y006611D01*
X020176Y006680D01*
X020205Y006747D01*
X020237Y006812D01*
X020273Y006876D01*
X020313Y006938D01*
X020355Y006997D01*
X020401Y007054D01*
X020450Y007108D01*
X020502Y007160D01*
X020556Y007209D01*
X020613Y007255D01*
X020672Y007297D01*
X020734Y007337D01*
X020798Y007373D01*
X020863Y007405D01*
X020930Y007434D01*
X020999Y007459D01*
X021069Y007481D01*
X021140Y007498D01*
X021212Y007512D01*
X021284Y007522D01*
X021357Y007528D01*
X021430Y007530D01*
X021503Y007528D01*
X021576Y007522D01*
X021648Y007512D01*
X021720Y007498D01*
X021791Y007481D01*
X021861Y007459D01*
X021930Y007434D01*
X021997Y007405D01*
X022062Y007373D01*
X022126Y007337D01*
X022188Y007297D01*
X022247Y007255D01*
X022304Y007209D01*
X022358Y007160D01*
X022410Y007108D01*
X022459Y007054D01*
X022505Y006997D01*
X022547Y006938D01*
X022587Y006876D01*
X022623Y006812D01*
X022655Y006747D01*
X022684Y006680D01*
X022709Y006611D01*
X022731Y006541D01*
X022748Y006470D01*
X022762Y006398D01*
X022772Y006326D01*
X022778Y006253D01*
X022780Y006180D01*
X022778Y006107D01*
X022772Y006034D01*
X022762Y005962D01*
X022748Y005890D01*
X022731Y005819D01*
X022709Y005749D01*
X022684Y005680D01*
X022655Y005613D01*
X022623Y005548D01*
X022587Y005484D01*
X022547Y005422D01*
X022505Y005363D01*
X022459Y005306D01*
X022410Y005252D01*
X022358Y005200D01*
X022304Y005151D01*
X022247Y005105D01*
X022188Y005063D01*
X022126Y005023D01*
X022062Y004987D01*
X021997Y004955D01*
X021930Y004926D01*
X021861Y004901D01*
X021791Y004879D01*
X021720Y004862D01*
X021648Y004848D01*
X021576Y004838D01*
X021503Y004832D01*
X021430Y004830D01*
X021357Y004832D01*
X021284Y004838D01*
X021212Y004848D01*
X021140Y004862D01*
X021069Y004879D01*
X020999Y004901D01*
X020930Y004926D01*
X020863Y004955D01*
X020798Y004987D01*
X020734Y005023D01*
X020672Y005063D01*
X020613Y005105D01*
X020556Y005151D01*
X020502Y005200D01*
X020450Y005252D01*
X020401Y005306D01*
X020355Y005363D01*
X020313Y005422D01*
X020273Y005484D01*
X020237Y005548D01*
X020205Y005613D01*
X020176Y005680D01*
X020151Y005749D01*
X020129Y005819D01*
X020112Y005890D01*
X020098Y005962D01*
X020088Y006034D01*
X020082Y006107D01*
X020080Y006180D01*
D14*
X020800Y006180D02*
X020802Y006230D01*
X020808Y006280D01*
X020818Y006329D01*
X020832Y006377D01*
X020849Y006424D01*
X020870Y006469D01*
X020895Y006513D01*
X020923Y006554D01*
X020955Y006593D01*
X020989Y006630D01*
X021026Y006664D01*
X021066Y006694D01*
X021108Y006721D01*
X021152Y006745D01*
X021198Y006766D01*
X021245Y006782D01*
X021293Y006795D01*
X021343Y006804D01*
X021392Y006809D01*
X021443Y006810D01*
X021493Y006807D01*
X021542Y006800D01*
X021591Y006789D01*
X021639Y006774D01*
X021685Y006756D01*
X021730Y006734D01*
X021773Y006708D01*
X021814Y006679D01*
X021853Y006647D01*
X021889Y006612D01*
X021921Y006574D01*
X021951Y006534D01*
X021978Y006491D01*
X022001Y006447D01*
X022020Y006401D01*
X022036Y006353D01*
X022048Y006304D01*
X022056Y006255D01*
X022060Y006205D01*
X022060Y006155D01*
X022056Y006105D01*
X022048Y006056D01*
X022036Y006007D01*
X022020Y005959D01*
X022001Y005913D01*
X021978Y005869D01*
X021951Y005826D01*
X021921Y005786D01*
X021889Y005748D01*
X021853Y005713D01*
X021814Y005681D01*
X021773Y005652D01*
X021730Y005626D01*
X021685Y005604D01*
X021639Y005586D01*
X021591Y005571D01*
X021542Y005560D01*
X021493Y005553D01*
X021443Y005550D01*
X021392Y005551D01*
X021343Y005556D01*
X021293Y005565D01*
X021245Y005578D01*
X021198Y005594D01*
X021152Y005615D01*
X021108Y005639D01*
X021066Y005666D01*
X021026Y005696D01*
X020989Y005730D01*
X020955Y005767D01*
X020923Y005806D01*
X020895Y005847D01*
X020870Y005891D01*
X020849Y005936D01*
X020832Y005983D01*
X020818Y006031D01*
X020808Y006080D01*
X020802Y006130D01*
X020800Y006180D01*
X006700Y008443D02*
X006700Y010843D01*
X004160Y010843D01*
X004160Y010813D02*
X004160Y008443D01*
X006700Y008443D01*
X002550Y006180D02*
X002552Y006230D01*
X002558Y006280D01*
X002568Y006329D01*
X002582Y006377D01*
X002599Y006424D01*
X002620Y006469D01*
X002645Y006513D01*
X002673Y006554D01*
X002705Y006593D01*
X002739Y006630D01*
X002776Y006664D01*
X002816Y006694D01*
X002858Y006721D01*
X002902Y006745D01*
X002948Y006766D01*
X002995Y006782D01*
X003043Y006795D01*
X003093Y006804D01*
X003142Y006809D01*
X003193Y006810D01*
X003243Y006807D01*
X003292Y006800D01*
X003341Y006789D01*
X003389Y006774D01*
X003435Y006756D01*
X003480Y006734D01*
X003523Y006708D01*
X003564Y006679D01*
X003603Y006647D01*
X003639Y006612D01*
X003671Y006574D01*
X003701Y006534D01*
X003728Y006491D01*
X003751Y006447D01*
X003770Y006401D01*
X003786Y006353D01*
X003798Y006304D01*
X003806Y006255D01*
X003810Y006205D01*
X003810Y006155D01*
X003806Y006105D01*
X003798Y006056D01*
X003786Y006007D01*
X003770Y005959D01*
X003751Y005913D01*
X003728Y005869D01*
X003701Y005826D01*
X003671Y005786D01*
X003639Y005748D01*
X003603Y005713D01*
X003564Y005681D01*
X003523Y005652D01*
X003480Y005626D01*
X003435Y005604D01*
X003389Y005586D01*
X003341Y005571D01*
X003292Y005560D01*
X003243Y005553D01*
X003193Y005550D01*
X003142Y005551D01*
X003093Y005556D01*
X003043Y005565D01*
X002995Y005578D01*
X002948Y005594D01*
X002902Y005615D01*
X002858Y005639D01*
X002816Y005666D01*
X002776Y005696D01*
X002739Y005730D01*
X002705Y005767D01*
X002673Y005806D01*
X002645Y005847D01*
X002620Y005891D01*
X002599Y005936D01*
X002582Y005983D01*
X002568Y006031D01*
X002558Y006080D01*
X002552Y006130D01*
X002550Y006180D01*
X004160Y014017D02*
X006700Y014017D01*
X006700Y014047D02*
X006700Y016417D01*
X004160Y016417D01*
X004160Y014017D01*
M02*
